%TF.GenerationSoftware,KiCad,Pcbnew,(6.0.0)*%
%TF.CreationDate,2023-02-19T23:28:08+01:00*%
%TF.ProjectId,DETECTIVE BOYS BADGE,44455445-4354-4495-9645-20424f595320,rev?*%
%TF.SameCoordinates,Original*%
%TF.FileFunction,Paste,Top*%
%TF.FilePolarity,Positive*%
%FSLAX46Y46*%
G04 Gerber Fmt 4.6, Leading zero omitted, Abs format (unit mm)*
G04 Created by KiCad (PCBNEW (6.0.0)) date 2023-02-19 23:28:08*
%MOMM*%
%LPD*%
G01*
G04 APERTURE LIST*
G04 Aperture macros list*
%AMRoundRect*
0 Rectangle with rounded corners*
0 $1 Rounding radius*
0 $2 $3 $4 $5 $6 $7 $8 $9 X,Y pos of 4 corners*
0 Add a 4 corners polygon primitive as box body*
4,1,4,$2,$3,$4,$5,$6,$7,$8,$9,$2,$3,0*
0 Add four circle primitives for the rounded corners*
1,1,$1+$1,$2,$3*
1,1,$1+$1,$4,$5*
1,1,$1+$1,$6,$7*
1,1,$1+$1,$8,$9*
0 Add four rect primitives between the rounded corners*
20,1,$1+$1,$2,$3,$4,$5,0*
20,1,$1+$1,$4,$5,$6,$7,0*
20,1,$1+$1,$6,$7,$8,$9,0*
20,1,$1+$1,$8,$9,$2,$3,0*%
G04 Aperture macros list end*
%ADD10RoundRect,0.250000X0.250000X0.475000X-0.250000X0.475000X-0.250000X-0.475000X0.250000X-0.475000X0*%
%ADD11RoundRect,0.250000X0.262500X0.450000X-0.262500X0.450000X-0.262500X-0.450000X0.262500X-0.450000X0*%
%ADD12R,2.500000X1.200000*%
%ADD13R,1.550000X1.300000*%
%ADD14RoundRect,0.243750X0.456250X-0.243750X0.456250X0.243750X-0.456250X0.243750X-0.456250X-0.243750X0*%
%ADD15RoundRect,0.250000X-0.250000X-0.475000X0.250000X-0.475000X0.250000X0.475000X-0.250000X0.475000X0*%
%ADD16RoundRect,0.400000X0.000000X-0.600000X0.000000X-0.600000X0.000000X0.600000X0.000000X0.600000X0*%
%ADD17RoundRect,0.250000X0.475000X-0.250000X0.475000X0.250000X-0.475000X0.250000X-0.475000X-0.250000X0*%
%ADD18RoundRect,0.150000X-0.150000X0.675000X-0.150000X-0.675000X0.150000X-0.675000X0.150000X0.675000X0*%
%ADD19RoundRect,0.243750X0.243750X0.456250X-0.243750X0.456250X-0.243750X-0.456250X0.243750X-0.456250X0*%
%ADD20R,0.800000X1.000000*%
%ADD21R,1.500000X0.700000*%
%ADD22RoundRect,0.250000X0.450000X-0.262500X0.450000X0.262500X-0.450000X0.262500X-0.450000X-0.262500X0*%
%ADD23RoundRect,0.250000X-0.450000X0.262500X-0.450000X-0.262500X0.450000X-0.262500X0.450000X0.262500X0*%
%ADD24RoundRect,0.250000X-0.475000X0.250000X-0.475000X-0.250000X0.475000X-0.250000X0.475000X0.250000X0*%
%ADD25R,1.600000X0.550000*%
%ADD26R,0.550000X1.600000*%
%ADD27R,1.700000X1.700000*%
%ADD28O,1.700000X1.700000*%
%ADD29R,1.450000X0.600000*%
%ADD30R,1.450000X0.300000*%
%ADD31RoundRect,0.250000X-0.262500X-0.450000X0.262500X-0.450000X0.262500X0.450000X-0.262500X0.450000X0*%
%ADD32R,1.900000X0.400000*%
%ADD33RoundRect,0.150000X-0.512500X-0.150000X0.512500X-0.150000X0.512500X0.150000X-0.512500X0.150000X0*%
%ADD34RoundRect,0.230000X-0.375000X0.230000X-0.375000X-0.230000X0.375000X-0.230000X0.375000X0.230000X0*%
%ADD35RoundRect,0.150000X-0.150000X0.825000X-0.150000X-0.825000X0.150000X-0.825000X0.150000X0.825000X0*%
%ADD36R,0.400000X1.000000*%
%ADD37R,2.000000X1.300000*%
G04 APERTURE END LIST*
D10*
%TO.C,C6*%
X139450000Y-127800000D03*
X137550000Y-127800000D03*
%TD*%
D11*
%TO.C,R9*%
X156912500Y-120000000D03*
X155087500Y-120000000D03*
%TD*%
D12*
%TO.C,J1*%
X157650000Y-111455000D03*
X157650000Y-108455000D03*
X151150000Y-116555000D03*
X157650000Y-115455000D03*
%TD*%
D13*
%TO.C,SW2*%
X161920000Y-126550000D03*
X169880000Y-126550000D03*
X161920000Y-131050000D03*
X169880000Y-131050000D03*
%TD*%
D14*
%TO.C,D1*%
X134000000Y-144437500D03*
X134000000Y-142562500D03*
%TD*%
D15*
%TO.C,C7*%
X147450000Y-109200000D03*
X149350000Y-109200000D03*
%TD*%
D16*
%TO.C,U1*%
X163175000Y-120980000D03*
X161905000Y-120980000D03*
X164445000Y-120980000D03*
X165715000Y-120980000D03*
X166985000Y-120980000D03*
X168255000Y-120980000D03*
X169525000Y-120980000D03*
X170795000Y-120980000D03*
%TD*%
D15*
%TO.C,C9*%
X147450000Y-111100000D03*
X149350000Y-111100000D03*
%TD*%
%TO.C,C5*%
X141200000Y-120475000D03*
X143100000Y-120475000D03*
%TD*%
D11*
%TO.C,R13*%
X165912500Y-146100000D03*
X164087500Y-146100000D03*
%TD*%
D17*
%TO.C,C11*%
X168600000Y-142150000D03*
X168600000Y-140250000D03*
%TD*%
D18*
%TO.C,U4*%
X153805000Y-125775000D03*
X152535000Y-125775000D03*
X151265000Y-125775000D03*
X149995000Y-125775000D03*
X149995000Y-131025000D03*
X151265000Y-131025000D03*
X152535000Y-131025000D03*
X153805000Y-131025000D03*
%TD*%
D19*
%TO.C,D2*%
X137837500Y-108750000D03*
X135962500Y-108750000D03*
%TD*%
D20*
%TO.C,SW1*%
X134355000Y-130950000D03*
X132145000Y-130950000D03*
X134355000Y-138250000D03*
X132145000Y-138250000D03*
D21*
X135005000Y-132350000D03*
X135005000Y-135350000D03*
X135005000Y-136850000D03*
%TD*%
D22*
%TO.C,R6*%
X148700000Y-115112500D03*
X148700000Y-113287500D03*
%TD*%
D11*
%TO.C,R8*%
X153512500Y-120000000D03*
X151687500Y-120000000D03*
%TD*%
D22*
%TO.C,R7*%
X145175000Y-120537500D03*
X145175000Y-118712500D03*
%TD*%
D23*
%TO.C,R5*%
X146800000Y-113287500D03*
X146800000Y-115112500D03*
%TD*%
%TO.C,RG1*%
X155700000Y-126887500D03*
X155700000Y-128712500D03*
%TD*%
D24*
%TO.C,C2*%
X140000000Y-130350000D03*
X140000000Y-132250000D03*
%TD*%
D22*
%TO.C,R11*%
X156250000Y-123812500D03*
X156250000Y-121987500D03*
%TD*%
D25*
%TO.C,U5*%
X166450000Y-142600000D03*
X166450000Y-141800000D03*
X166450000Y-141000000D03*
X166450000Y-140200000D03*
X166450000Y-139400000D03*
X166450000Y-138600000D03*
X166450000Y-137800000D03*
X166450000Y-137000000D03*
D26*
X165000000Y-135550000D03*
X164200000Y-135550000D03*
X163400000Y-135550000D03*
X162600000Y-135550000D03*
X161800000Y-135550000D03*
X161000000Y-135550000D03*
X160200000Y-135550000D03*
X159400000Y-135550000D03*
D25*
X157950000Y-137000000D03*
X157950000Y-137800000D03*
X157950000Y-138600000D03*
X157950000Y-139400000D03*
X157950000Y-140200000D03*
X157950000Y-141000000D03*
X157950000Y-141800000D03*
X157950000Y-142600000D03*
D26*
X159400000Y-144050000D03*
X160200000Y-144050000D03*
X161000000Y-144050000D03*
X161800000Y-144050000D03*
X162600000Y-144050000D03*
X163400000Y-144050000D03*
X164200000Y-144050000D03*
X165000000Y-144050000D03*
%TD*%
D24*
%TO.C,C1*%
X160200000Y-121950000D03*
X160200000Y-123850000D03*
%TD*%
D17*
%TO.C,C3*%
X141650000Y-113450000D03*
X141650000Y-111550000D03*
%TD*%
D27*
%TO.C,BT1*%
X139050000Y-124525000D03*
D28*
X136510000Y-124525000D03*
%TD*%
D11*
%TO.C,R10*%
X152162500Y-123600000D03*
X150337500Y-123600000D03*
%TD*%
D29*
%TO.C,USB1*%
X139495000Y-112900000D03*
X139495000Y-113700000D03*
D30*
X139495000Y-114900000D03*
X139495000Y-115900000D03*
X139495000Y-116400000D03*
X139495000Y-117400000D03*
D29*
X139495000Y-118600000D03*
X139495000Y-119400000D03*
X139495000Y-119400000D03*
X139495000Y-118600000D03*
D30*
X139495000Y-117900000D03*
X139495000Y-116900000D03*
X139495000Y-115400000D03*
X139495000Y-114400000D03*
D29*
X139495000Y-113700000D03*
X139495000Y-112900000D03*
%TD*%
D22*
%TO.C,R12*%
X154250000Y-123800000D03*
X154250000Y-121975000D03*
%TD*%
D24*
%TO.C,C8*%
X150000000Y-119950000D03*
X150000000Y-121850000D03*
%TD*%
D31*
%TO.C,R3*%
X141487500Y-117050000D03*
X143312500Y-117050000D03*
%TD*%
D32*
%TO.C,X1*%
X169200000Y-138400000D03*
X169200000Y-137200000D03*
X169200000Y-136000000D03*
%TD*%
D33*
%TO.C,U2*%
X142487500Y-130337500D03*
X142487500Y-131287500D03*
X142487500Y-132237500D03*
X144762500Y-132237500D03*
X144762500Y-130337500D03*
%TD*%
D34*
%TO.C,U3*%
X144150000Y-124730000D03*
X142650000Y-124730000D03*
X144150000Y-125870000D03*
X142650000Y-125870000D03*
D35*
X145305000Y-122825000D03*
X144035000Y-122825000D03*
X142765000Y-122825000D03*
X141495000Y-122825000D03*
X141495000Y-127775000D03*
X142765000Y-127775000D03*
X144035000Y-127775000D03*
X145305000Y-127775000D03*
%TD*%
D23*
%TO.C,R1*%
X134000000Y-147587500D03*
X134000000Y-149412500D03*
%TD*%
D31*
%TO.C,R4*%
X139662500Y-108775000D03*
X141487500Y-108775000D03*
%TD*%
D24*
%TO.C,C4*%
X146825000Y-130300000D03*
X146825000Y-132200000D03*
%TD*%
D15*
%TO.C,C10*%
X151750000Y-133100000D03*
X153650000Y-133100000D03*
%TD*%
D31*
%TO.C,R2*%
X141487500Y-115150000D03*
X143312500Y-115150000D03*
%TD*%
D36*
%TO.C,J2*%
X161000000Y-149290000D03*
X162000000Y-149290000D03*
X163000000Y-149290000D03*
X164000000Y-149290000D03*
X165000000Y-149290000D03*
D37*
X158200000Y-151990000D03*
X167800000Y-151990000D03*
%TD*%
M02*
