M48
; DRILL file {KiCad (6.0.0)} date Sun Feb 19 23:28:08 2023
; FORMAT={-:-/ absolute / inch / decimal}
; #@! TF.CreationDate,2023-02-19T23:28:08+01:00
; #@! TF.GenerationSoftware,Kicad,Pcbnew,(6.0.0)
; #@! TF.FileFunction,Plated,1,2,PTH
FMAT,2
INCH
; #@! TA.AperFunction,Plated,PTH,ViaDrill
T1C0.0157
; #@! TA.AperFunction,Plated,PTH,ComponentDrill
T2C0.0236
%
G90
G05
T1
X5.5472Y-4.685
X5.6299Y-4.2835
X5.6457Y-4.9331
X5.7756Y-5.0039
X5.7756Y-5.0669
X5.7835Y-5.2638
X5.8031Y-4.6102
X5.8504Y-4.6063
X5.9094Y-5.2441
X6.1339Y-5.1417
X6.1654Y-5.5827
X6.2047Y-5.6969
X6.2185Y-5.3524
X6.2323Y-5.2618
X6.2362Y-4.7559
X6.2717Y-5.7874
X6.3071Y-4.9902
X6.3189Y-5.4213
X6.3307Y-5.7795
X6.3346Y-5.2559
X6.3583Y-5.4173
X6.3701Y-5.2874
X6.3937Y-5.7835
X6.4055Y-5.5669
X6.4094Y-5.2362
X6.4252Y-5.4331
X6.4252Y-5.0906
X6.4724Y-5.5866
X6.4744Y-4.8327
X6.4921Y-5.0315
X6.5236Y-4.8307
X6.5394Y-5.0394
X6.5433Y-5.8228
X6.5827Y-5.0394
X6.6882Y-5.2094
X6.689Y-5.0433
T2
G00X5.3031Y-4.4028
M15
G01X5.2795Y-4.4028
M16
G05
G00X5.3031Y-4.7429
M15
G01X5.2795Y-4.7429
M16
G05
G00X5.4776Y-4.4028
M15
G01X5.4343Y-4.4028
M16
G05
G00X5.4776Y-4.7429
M15
G01X5.4343Y-4.7429
M16
G05
T0
M30
