%TF.GenerationSoftware,KiCad,Pcbnew,(6.0.0)*%
%TF.CreationDate,2023-02-19T23:28:08+01:00*%
%TF.ProjectId,DETECTIVE BOYS BADGE,44455445-4354-4495-9645-20424f595320,rev?*%
%TF.SameCoordinates,Original*%
%TF.FileFunction,Copper,L2,Bot*%
%TF.FilePolarity,Positive*%
%FSLAX46Y46*%
G04 Gerber Fmt 4.6, Leading zero omitted, Abs format (unit mm)*
G04 Created by KiCad (PCBNEW (6.0.0)) date 2023-02-19 23:28:08*
%MOMM*%
%LPD*%
G01*
G04 APERTURE LIST*
%TA.AperFunction,ComponentPad*%
%ADD10O,1.600000X1.000000*%
%TD*%
%TA.AperFunction,ComponentPad*%
%ADD11O,2.100000X1.000000*%
%TD*%
%TA.AperFunction,ViaPad*%
%ADD12C,0.800000*%
%TD*%
%TA.AperFunction,Conductor*%
%ADD13C,0.508000*%
%TD*%
%TA.AperFunction,Conductor*%
%ADD14C,0.254000*%
%TD*%
G04 APERTURE END LIST*
D10*
%TO.P,USB1,S1,SHIELD*%
%TO.N,GND*%
X134400000Y-111830000D03*
D11*
X138580000Y-111830000D03*
X138580000Y-120470000D03*
D10*
X134400000Y-120470000D03*
%TD*%
D12*
%TO.N,VBUS*%
X146700000Y-127100000D03*
X140900000Y-119000000D03*
%TO.N,GND*%
X164400000Y-141900000D03*
X143400000Y-125300000D03*
X160200000Y-126750000D03*
X166200000Y-147900000D03*
X158400000Y-120800000D03*
X146900000Y-133700000D03*
X169900000Y-128100000D03*
X157600000Y-144700000D03*
X158300000Y-133650000D03*
X150100000Y-133200000D03*
%TO.N,MOSI*%
X162400000Y-146900000D03*
X161500000Y-137600000D03*
X166100000Y-128000000D03*
%TO.N,MISO*%
X167200000Y-128000000D03*
X163200000Y-138000000D03*
X160800000Y-146800000D03*
X160500000Y-137700000D03*
%TO.N,SCK*%
X157950000Y-135950000D03*
X159300000Y-147000000D03*
X164900000Y-127800000D03*
%TO.N,CE*%
X163200011Y-129300000D03*
X164450000Y-122750000D03*
%TO.N,CSN*%
X165700000Y-122700000D03*
X162800000Y-133000000D03*
%TO.N,Net-(R4-Pad2)*%
X146700000Y-128700000D03*
X143000000Y-108800000D03*
%TO.N,AUDIO_R*%
X160900000Y-133500000D03*
X147400000Y-117100000D03*
%TO.N,A0*%
X155800000Y-130600000D03*
X156600000Y-141800000D03*
%TO.N,A1*%
X169880000Y-132320000D03*
X162700000Y-141400000D03*
%TO.N,AUDIO_L*%
X161800000Y-134300000D03*
X148600000Y-117000000D03*
%TD*%
D13*
%TO.N,VBUS*%
X146700000Y-127100000D02*
X143800000Y-127100000D01*
X143800000Y-127100000D02*
X140900000Y-124200000D01*
X140900000Y-124200000D02*
X140900000Y-119000000D01*
%TO.N,MOSI*%
X162400000Y-146900000D02*
X161500000Y-146000000D01*
X161500000Y-146000000D02*
X161500000Y-137600000D01*
D14*
X161500000Y-137600000D02*
X161820980Y-137600000D01*
D13*
X162200000Y-137600000D02*
X165800000Y-134000000D01*
X161820980Y-137600000D02*
X162200000Y-137600000D01*
X165800000Y-128300000D02*
X166100000Y-128000000D01*
X165800000Y-134000000D02*
X165800000Y-128300000D01*
%TO.N,MISO*%
X160500000Y-146500000D02*
X160500000Y-137700000D01*
X167200000Y-134000000D02*
X167200000Y-128000000D01*
X160800000Y-146800000D02*
X160500000Y-146500000D01*
X163200000Y-138000000D02*
X167200000Y-134000000D01*
%TO.N,SCK*%
X164700000Y-128000000D02*
X164900000Y-127800000D01*
X159300000Y-147000000D02*
X159300000Y-137300000D01*
X164700000Y-133900000D02*
X164700000Y-128000000D01*
X160700000Y-135900000D02*
X162700000Y-135900000D01*
X159300000Y-137300000D02*
X160700000Y-135900000D01*
X159300000Y-137300000D02*
X157950000Y-135950000D01*
X162700000Y-135900000D02*
X164700000Y-133900000D01*
D14*
%TO.N,CE*%
X163200011Y-123999989D02*
X164450000Y-122750000D01*
X163200011Y-129300000D02*
X163200011Y-123999989D01*
%TO.N,CSN*%
X164100000Y-131700000D02*
X162800000Y-133000000D01*
X165700000Y-123500000D02*
X164100000Y-125100000D01*
X164100000Y-125100000D02*
X164100000Y-131700000D01*
X165700000Y-122700000D02*
X165700000Y-123500000D01*
D13*
%TO.N,Net-(R4-Pad2)*%
X147900000Y-127500000D02*
X147900000Y-126800000D01*
X143800000Y-109700000D02*
X143800000Y-109600000D01*
X147900000Y-122000000D02*
X143900000Y-118000000D01*
X146700000Y-128700000D02*
X147900000Y-127500000D01*
X143800000Y-117900000D02*
X143800000Y-109700000D01*
X147900000Y-126800000D02*
X147900000Y-122000000D01*
X143800000Y-109600000D02*
X143000000Y-108800000D01*
X143900000Y-118000000D02*
X143800000Y-117900000D01*
%TO.N,AUDIO_R*%
X147400000Y-117100000D02*
X160900000Y-130600000D01*
X160900000Y-130600000D02*
X160900000Y-133500000D01*
%TO.N,A0*%
X155800000Y-141100000D02*
X155800000Y-130600000D01*
X156600000Y-141800000D02*
X156500000Y-141800000D01*
X156500000Y-141800000D02*
X155800000Y-141100000D01*
%TO.N,A1*%
X169880000Y-132920000D02*
X162700000Y-140100000D01*
X162700000Y-140100000D02*
X162700000Y-141400000D01*
X169880000Y-132320000D02*
X169880000Y-132920000D01*
%TO.N,AUDIO_L*%
X161800000Y-134300000D02*
X161800000Y-134400000D01*
X148607048Y-117000000D02*
X161800000Y-130192952D01*
X148600000Y-117000000D02*
X148607048Y-117000000D01*
X161800000Y-130192952D02*
X161800000Y-134300000D01*
%TD*%
%TA.AperFunction,Conductor*%
%TO.N,GND*%
G36*
X153335659Y-103992812D02*
G01*
X154210828Y-103999692D01*
X154282093Y-104022465D01*
X159084755Y-107384328D01*
X159196256Y-107462379D01*
X159240593Y-107517830D01*
X159250000Y-107565602D01*
X159250000Y-117750000D01*
X160750000Y-119250000D01*
X170447810Y-119250000D01*
X170515931Y-119270002D01*
X170536905Y-119286905D01*
X171713095Y-120463095D01*
X171747121Y-120525407D01*
X171750000Y-120552190D01*
X171750000Y-124105261D01*
X171729998Y-124173382D01*
X171718987Y-124188046D01*
X171673707Y-124239992D01*
X171667821Y-124246294D01*
X171659343Y-124254769D01*
X171649023Y-124261663D01*
X171642127Y-124271980D01*
X171642125Y-124271982D01*
X171634444Y-124283473D01*
X171631756Y-124286989D01*
X171631867Y-124287068D01*
X171628279Y-124292106D01*
X171624214Y-124296771D01*
X171621138Y-124302136D01*
X171618255Y-124307164D01*
X171613704Y-124314506D01*
X171592873Y-124345673D01*
X171591117Y-124354496D01*
X171586640Y-124362304D01*
X171585057Y-124374612D01*
X171585057Y-124374613D01*
X171581857Y-124399496D01*
X171580462Y-124408019D01*
X171578125Y-124419760D01*
X171578124Y-124425946D01*
X171577516Y-124432114D01*
X171577379Y-124432101D01*
X171577096Y-124436523D01*
X171573752Y-124462526D01*
X171577001Y-124474506D01*
X171577820Y-124486455D01*
X171578115Y-124495085D01*
X171577733Y-127280675D01*
X171577200Y-131171818D01*
X171557189Y-131239936D01*
X171549594Y-131250508D01*
X171124002Y-131782498D01*
X171089643Y-131812302D01*
X170957530Y-131890251D01*
X170872293Y-131940542D01*
X170863518Y-131944340D01*
X170863650Y-131944594D01*
X170852644Y-131950328D01*
X170840732Y-131953804D01*
X170831057Y-131961574D01*
X170831053Y-131961576D01*
X170818752Y-131971455D01*
X170814917Y-131974395D01*
X170809766Y-131977434D01*
X170805150Y-131981560D01*
X170798594Y-131987419D01*
X170793529Y-131991711D01*
X170772694Y-132008444D01*
X170761946Y-132017076D01*
X170758614Y-132023154D01*
X170753444Y-132027775D01*
X170748062Y-132038954D01*
X170735878Y-132064260D01*
X170732836Y-132070174D01*
X170717892Y-132097432D01*
X170667605Y-132147549D01*
X170598205Y-132162523D01*
X170531727Y-132137599D01*
X170489541Y-132081397D01*
X170483066Y-132064260D01*
X170464280Y-132014546D01*
X170436417Y-131974005D01*
X170378855Y-131890251D01*
X170378854Y-131890249D01*
X170374553Y-131883992D01*
X170365332Y-131875776D01*
X170322533Y-131837644D01*
X170256275Y-131778611D01*
X170248889Y-131774700D01*
X170122988Y-131708039D01*
X170122989Y-131708039D01*
X170116274Y-131704484D01*
X169962633Y-131665892D01*
X169955034Y-131665852D01*
X169955033Y-131665852D01*
X169889181Y-131665507D01*
X169804221Y-131665062D01*
X169796841Y-131666834D01*
X169796839Y-131666834D01*
X169657563Y-131700271D01*
X169657560Y-131700272D01*
X169650184Y-131702043D01*
X169509414Y-131774700D01*
X169390039Y-131878838D01*
X169298950Y-132008444D01*
X169295585Y-132017076D01*
X169248595Y-132137599D01*
X169241406Y-132156037D01*
X169240414Y-132163570D01*
X169240414Y-132163571D01*
X169233024Y-132219709D01*
X169220729Y-132313096D01*
X169228341Y-132382043D01*
X169236363Y-132454700D01*
X169238113Y-132470553D01*
X169292553Y-132619319D01*
X169302648Y-132634342D01*
X169324040Y-132702035D01*
X169305437Y-132770552D01*
X169287161Y-132793711D01*
X167920125Y-134160747D01*
X167857813Y-134194773D01*
X167786998Y-134189708D01*
X167730162Y-134147161D01*
X167705351Y-134080641D01*
X167706530Y-134052265D01*
X167707751Y-134044427D01*
X167707751Y-134044421D01*
X167708500Y-134039614D01*
X167708500Y-134024077D01*
X167708847Y-134014739D01*
X167711874Y-133974010D01*
X167711874Y-133974009D01*
X167712539Y-133965059D01*
X167710666Y-133956284D01*
X167710103Y-133948027D01*
X167708500Y-133932838D01*
X167708500Y-128454577D01*
X167732178Y-128381051D01*
X167765311Y-128334941D01*
X167777755Y-128317624D01*
X167836842Y-128170641D01*
X167849703Y-128080271D01*
X167858581Y-128017891D01*
X167858581Y-128017888D01*
X167859162Y-128013807D01*
X167859307Y-128000000D01*
X167840276Y-127842733D01*
X167784280Y-127694546D01*
X167764524Y-127665801D01*
X167698855Y-127570251D01*
X167698854Y-127570249D01*
X167694553Y-127563992D01*
X167683076Y-127553766D01*
X167622729Y-127500000D01*
X167576275Y-127458611D01*
X167568889Y-127454700D01*
X167483151Y-127409304D01*
X167436274Y-127384484D01*
X167282633Y-127345892D01*
X167275034Y-127345852D01*
X167275033Y-127345852D01*
X167209181Y-127345507D01*
X167124221Y-127345062D01*
X167116841Y-127346834D01*
X167116839Y-127346834D01*
X166977563Y-127380271D01*
X166977560Y-127380272D01*
X166970184Y-127382043D01*
X166829414Y-127454700D01*
X166732472Y-127539269D01*
X166667991Y-127568976D01*
X166597684Y-127559107D01*
X166565824Y-127538396D01*
X166565587Y-127538184D01*
X166476275Y-127458611D01*
X166468889Y-127454700D01*
X166383151Y-127409304D01*
X166336274Y-127384484D01*
X166182633Y-127345892D01*
X166175034Y-127345852D01*
X166175033Y-127345852D01*
X166109181Y-127345507D01*
X166024221Y-127345062D01*
X166016841Y-127346834D01*
X166016839Y-127346834D01*
X165877563Y-127380271D01*
X165877560Y-127380272D01*
X165870184Y-127382043D01*
X165729414Y-127454700D01*
X165723697Y-127459687D01*
X165723690Y-127459692D01*
X165665610Y-127510359D01*
X165601128Y-127540067D01*
X165530821Y-127530197D01*
X165478941Y-127486777D01*
X165398855Y-127370251D01*
X165398854Y-127370249D01*
X165394553Y-127363992D01*
X165276275Y-127258611D01*
X165268889Y-127254700D01*
X165202634Y-127219620D01*
X165136274Y-127184484D01*
X164982633Y-127145892D01*
X164975034Y-127145852D01*
X164975033Y-127145852D01*
X164909181Y-127145507D01*
X164824221Y-127145062D01*
X164816841Y-127146834D01*
X164816839Y-127146834D01*
X164677563Y-127180271D01*
X164677560Y-127180272D01*
X164670184Y-127182043D01*
X164663441Y-127185523D01*
X164656314Y-127188174D01*
X164655665Y-127186429D01*
X164595583Y-127198038D01*
X164529659Y-127171683D01*
X164488450Y-127113871D01*
X164481500Y-127072603D01*
X164481500Y-125310212D01*
X164501502Y-125242091D01*
X164518405Y-125221117D01*
X165931476Y-123808046D01*
X165950499Y-123792682D01*
X165951558Y-123791718D01*
X165960304Y-123786071D01*
X165966752Y-123777892D01*
X165966754Y-123777890D01*
X165981234Y-123759523D01*
X165985209Y-123755050D01*
X165985137Y-123754989D01*
X165988490Y-123751032D01*
X165992171Y-123747351D01*
X166003455Y-123731560D01*
X166007019Y-123726814D01*
X166032487Y-123694508D01*
X166038934Y-123686330D01*
X166041984Y-123677645D01*
X166047335Y-123670157D01*
X166062110Y-123620750D01*
X166063926Y-123615163D01*
X166081016Y-123566498D01*
X166081500Y-123560909D01*
X166081500Y-123558198D01*
X166081615Y-123555529D01*
X166081634Y-123555468D01*
X166081808Y-123555475D01*
X166081855Y-123554728D01*
X166083725Y-123548475D01*
X166081597Y-123494311D01*
X166081500Y-123489365D01*
X166081500Y-123293022D01*
X166101502Y-123224901D01*
X166125669Y-123197211D01*
X166179536Y-123151204D01*
X166185314Y-123146269D01*
X166277755Y-123017624D01*
X166336842Y-122870641D01*
X166354994Y-122743096D01*
X166358581Y-122717891D01*
X166358581Y-122717888D01*
X166359162Y-122713807D01*
X166359307Y-122700000D01*
X166340276Y-122542733D01*
X166284280Y-122394546D01*
X166233217Y-122320248D01*
X166198855Y-122270251D01*
X166198854Y-122270249D01*
X166194553Y-122263992D01*
X166076275Y-122158611D01*
X166068889Y-122154700D01*
X165942988Y-122088039D01*
X165942989Y-122088039D01*
X165936274Y-122084484D01*
X165782633Y-122045892D01*
X165775034Y-122045852D01*
X165775033Y-122045852D01*
X165709181Y-122045507D01*
X165624221Y-122045062D01*
X165616841Y-122046834D01*
X165616839Y-122046834D01*
X165477563Y-122080271D01*
X165477560Y-122080272D01*
X165470184Y-122082043D01*
X165329414Y-122154700D01*
X165210039Y-122258838D01*
X165205672Y-122265052D01*
X165205669Y-122265055D01*
X165160891Y-122328768D01*
X165105357Y-122373000D01*
X165034725Y-122380186D01*
X164971420Y-122348045D01*
X164953967Y-122327690D01*
X164944553Y-122313992D01*
X164826275Y-122208611D01*
X164818889Y-122204700D01*
X164780565Y-122184409D01*
X164686274Y-122134484D01*
X164532633Y-122095892D01*
X164525034Y-122095852D01*
X164525033Y-122095852D01*
X164459181Y-122095507D01*
X164374221Y-122095062D01*
X164366841Y-122096834D01*
X164366839Y-122096834D01*
X164227563Y-122130271D01*
X164227560Y-122130272D01*
X164220184Y-122132043D01*
X164079414Y-122204700D01*
X163960039Y-122308838D01*
X163868950Y-122438444D01*
X163811406Y-122586037D01*
X163810414Y-122593570D01*
X163810414Y-122593571D01*
X163796403Y-122700000D01*
X163790729Y-122743096D01*
X163791563Y-122750647D01*
X163796682Y-122797019D01*
X163784276Y-122866923D01*
X163760538Y-122899940D01*
X162968531Y-123691947D01*
X162949522Y-123707300D01*
X162948459Y-123708267D01*
X162939707Y-123713918D01*
X162919527Y-123739516D01*
X162918782Y-123740461D01*
X162914805Y-123744936D01*
X162914876Y-123744997D01*
X162911523Y-123748954D01*
X162907840Y-123752637D01*
X162904814Y-123756872D01*
X162904812Y-123756874D01*
X162896558Y-123768425D01*
X162892995Y-123773171D01*
X162861077Y-123813659D01*
X162858026Y-123822346D01*
X162852677Y-123829832D01*
X162849694Y-123839808D01*
X162849693Y-123839809D01*
X162837913Y-123879200D01*
X162836083Y-123884832D01*
X162818995Y-123933491D01*
X162818511Y-123939080D01*
X162818511Y-123941791D01*
X162818396Y-123944458D01*
X162818377Y-123944521D01*
X162818203Y-123944514D01*
X162818156Y-123945260D01*
X162816286Y-123951513D01*
X162817774Y-123989373D01*
X162818414Y-124005667D01*
X162818511Y-124010614D01*
X162818511Y-128706933D01*
X162798509Y-128775054D01*
X162775341Y-128801881D01*
X162710050Y-128858838D01*
X162618961Y-128988444D01*
X162561417Y-129136037D01*
X162560425Y-129143570D01*
X162560425Y-129143571D01*
X162547175Y-129244220D01*
X162540740Y-129293096D01*
X162543151Y-129314934D01*
X162552711Y-129401521D01*
X162558124Y-129450553D01*
X162560734Y-129457684D01*
X162560734Y-129457686D01*
X162561506Y-129459794D01*
X162612564Y-129599319D01*
X162700919Y-129730805D01*
X162706538Y-129735918D01*
X162706539Y-129735919D01*
X162772012Y-129795494D01*
X162818087Y-129837419D01*
X162957304Y-129913008D01*
X163110533Y-129953207D01*
X163194488Y-129954526D01*
X163261330Y-129955576D01*
X163261333Y-129955576D01*
X163268927Y-129955695D01*
X163423343Y-129920329D01*
X163535887Y-129863726D01*
X163605730Y-129850988D01*
X163671374Y-129878032D01*
X163711976Y-129936273D01*
X163718500Y-129976291D01*
X163718500Y-131489787D01*
X163698498Y-131557908D01*
X163681595Y-131578882D01*
X162951597Y-132308880D01*
X162889285Y-132342906D01*
X162861842Y-132345783D01*
X162831060Y-132345622D01*
X162724221Y-132345062D01*
X162716841Y-132346834D01*
X162716839Y-132346834D01*
X162577563Y-132380271D01*
X162577560Y-132380272D01*
X162570184Y-132382043D01*
X162563439Y-132385524D01*
X162563440Y-132385524D01*
X162492290Y-132422247D01*
X162422583Y-132435716D01*
X162356659Y-132409361D01*
X162315449Y-132351548D01*
X162308500Y-132310281D01*
X162308500Y-130264025D01*
X162309855Y-130251895D01*
X162309373Y-130251856D01*
X162310093Y-130242909D01*
X162312074Y-130234153D01*
X162308742Y-130180444D01*
X162308500Y-130172642D01*
X162308500Y-130156439D01*
X162307016Y-130146074D01*
X162305987Y-130136024D01*
X162303611Y-130097734D01*
X162303611Y-130097733D01*
X162303055Y-130088775D01*
X162300007Y-130080334D01*
X162299404Y-130077420D01*
X162295182Y-130060486D01*
X162294352Y-130057647D01*
X162293080Y-130048765D01*
X162273477Y-130005652D01*
X162269671Y-129996301D01*
X162256644Y-129960214D01*
X162256643Y-129960212D01*
X162253596Y-129951772D01*
X162248304Y-129944528D01*
X162246925Y-129941934D01*
X162238078Y-129926795D01*
X162236505Y-129924335D01*
X162232792Y-129916170D01*
X162226938Y-129909376D01*
X162226936Y-129909373D01*
X162213939Y-129894290D01*
X162201881Y-129880295D01*
X162195597Y-129872380D01*
X162190450Y-129865334D01*
X162190444Y-129865327D01*
X162187575Y-129861400D01*
X162176600Y-129850425D01*
X162170242Y-129843577D01*
X162143576Y-129812629D01*
X162143575Y-129812628D01*
X162137713Y-129805825D01*
X162130178Y-129800941D01*
X162123934Y-129795494D01*
X162112069Y-129785894D01*
X149280867Y-116954692D01*
X149246841Y-116892380D01*
X149244874Y-116880732D01*
X149241189Y-116850276D01*
X149241189Y-116850274D01*
X149240276Y-116842733D01*
X149184280Y-116694546D01*
X149094553Y-116563992D01*
X149088514Y-116558611D01*
X149058260Y-116531656D01*
X148976275Y-116458611D01*
X148968889Y-116454700D01*
X148842988Y-116388039D01*
X148842989Y-116388039D01*
X148836274Y-116384484D01*
X148682633Y-116345892D01*
X148675034Y-116345852D01*
X148675033Y-116345852D01*
X148609181Y-116345507D01*
X148524221Y-116345062D01*
X148516841Y-116346834D01*
X148516839Y-116346834D01*
X148377563Y-116380271D01*
X148377560Y-116380272D01*
X148370184Y-116382043D01*
X148229414Y-116454700D01*
X148110039Y-116558838D01*
X148105672Y-116565052D01*
X148062934Y-116625861D01*
X148007399Y-116670093D01*
X147936767Y-116677278D01*
X147876028Y-116647487D01*
X147851755Y-116625861D01*
X147776275Y-116558611D01*
X147768889Y-116554700D01*
X147642988Y-116488039D01*
X147642989Y-116488039D01*
X147636274Y-116484484D01*
X147482633Y-116445892D01*
X147475034Y-116445852D01*
X147475033Y-116445852D01*
X147409181Y-116445507D01*
X147324221Y-116445062D01*
X147316841Y-116446834D01*
X147316839Y-116446834D01*
X147177563Y-116480271D01*
X147177560Y-116480272D01*
X147170184Y-116482043D01*
X147029414Y-116554700D01*
X146910039Y-116658838D01*
X146818950Y-116788444D01*
X146816190Y-116795524D01*
X146766947Y-116921826D01*
X146761406Y-116936037D01*
X146740729Y-117093096D01*
X146741563Y-117100646D01*
X146754309Y-117216095D01*
X146758113Y-117250553D01*
X146812553Y-117399319D01*
X146900908Y-117530805D01*
X147018076Y-117637419D01*
X147157293Y-117713008D01*
X147283985Y-117746245D01*
X147309462Y-117752929D01*
X147366583Y-117785710D01*
X160354595Y-130773722D01*
X160388621Y-130836034D01*
X160391500Y-130862817D01*
X160391500Y-133045367D01*
X160368587Y-133117818D01*
X160318950Y-133188444D01*
X160293490Y-133253745D01*
X160266178Y-133323798D01*
X160261406Y-133336037D01*
X160260414Y-133343570D01*
X160260414Y-133343571D01*
X160246894Y-133446269D01*
X160240729Y-133493096D01*
X160248667Y-133564993D01*
X160256637Y-133637182D01*
X160258113Y-133650553D01*
X160260723Y-133657684D01*
X160260723Y-133657686D01*
X160309180Y-133790101D01*
X160312553Y-133799319D01*
X160316789Y-133805622D01*
X160316789Y-133805623D01*
X160343358Y-133845161D01*
X160400908Y-133930805D01*
X160406527Y-133935918D01*
X160406528Y-133935919D01*
X160512460Y-134032309D01*
X160518076Y-134037419D01*
X160657293Y-134113008D01*
X160810522Y-134153207D01*
X160894477Y-134154526D01*
X160961319Y-134155576D01*
X160961322Y-134155576D01*
X160968916Y-134155695D01*
X160988010Y-134151322D01*
X161058877Y-134155613D01*
X161116174Y-134197536D01*
X161141710Y-134263782D01*
X161141366Y-134277964D01*
X161141800Y-134277969D01*
X161141721Y-134285564D01*
X161140729Y-134293096D01*
X161158113Y-134450553D01*
X161212553Y-134599319D01*
X161300908Y-134730805D01*
X161306527Y-134735918D01*
X161306528Y-134735919D01*
X161412460Y-134832309D01*
X161418076Y-134837419D01*
X161557293Y-134913008D01*
X161710522Y-134953207D01*
X161794477Y-134954526D01*
X161861319Y-134955576D01*
X161861322Y-134955576D01*
X161868916Y-134955695D01*
X162023332Y-134920329D01*
X162123423Y-134869989D01*
X162158072Y-134852563D01*
X162158075Y-134852561D01*
X162164855Y-134849151D01*
X162170626Y-134844222D01*
X162170629Y-134844220D01*
X162279536Y-134751204D01*
X162279536Y-134751203D01*
X162285314Y-134746269D01*
X162377755Y-134617624D01*
X162436842Y-134470641D01*
X162459162Y-134313807D01*
X162459307Y-134300000D01*
X162440276Y-134142733D01*
X162384280Y-133994546D01*
X162358665Y-133957276D01*
X162330660Y-133916528D01*
X162308500Y-133845161D01*
X162308500Y-133689711D01*
X162328502Y-133621590D01*
X162382158Y-133575097D01*
X162452432Y-133564993D01*
X162494619Y-133578979D01*
X162557293Y-133613008D01*
X162710522Y-133653207D01*
X162794477Y-133654526D01*
X162861319Y-133655576D01*
X162861322Y-133655576D01*
X162868916Y-133655695D01*
X163023332Y-133620329D01*
X163113267Y-133575097D01*
X163158072Y-133552563D01*
X163158075Y-133552561D01*
X163164855Y-133549151D01*
X163170626Y-133544222D01*
X163170629Y-133544220D01*
X163279536Y-133451204D01*
X163279536Y-133451203D01*
X163285314Y-133446269D01*
X163377755Y-133317624D01*
X163436842Y-133170641D01*
X163459162Y-133013807D01*
X163459307Y-133000000D01*
X163457263Y-132983111D01*
X163453743Y-132954019D01*
X163465416Y-132883988D01*
X163489735Y-132849787D01*
X163976405Y-132363117D01*
X164038717Y-132329091D01*
X164109532Y-132334156D01*
X164166368Y-132376703D01*
X164191179Y-132443223D01*
X164191500Y-132452212D01*
X164191500Y-133637182D01*
X164171498Y-133705303D01*
X164154595Y-133726277D01*
X162526278Y-135354595D01*
X162463966Y-135388620D01*
X162437183Y-135391500D01*
X160771072Y-135391500D01*
X160758942Y-135390145D01*
X160758903Y-135390627D01*
X160749956Y-135389907D01*
X160741200Y-135387926D01*
X160697663Y-135390627D01*
X160687492Y-135391258D01*
X160679690Y-135391500D01*
X160663487Y-135391500D01*
X160654571Y-135392777D01*
X160653122Y-135392984D01*
X160643072Y-135394013D01*
X160605215Y-135396362D01*
X160595823Y-135396945D01*
X160587377Y-135399994D01*
X160584486Y-135400593D01*
X160567520Y-135404822D01*
X160564695Y-135405648D01*
X160555813Y-135406920D01*
X160512702Y-135426522D01*
X160503353Y-135430327D01*
X160458819Y-135446404D01*
X160451571Y-135451699D01*
X160448973Y-135453080D01*
X160433855Y-135461915D01*
X160431386Y-135463494D01*
X160423218Y-135467208D01*
X160416422Y-135473064D01*
X160387348Y-135498115D01*
X160379431Y-135504401D01*
X160372385Y-135509548D01*
X160372380Y-135509553D01*
X160368448Y-135512425D01*
X160357473Y-135523400D01*
X160350626Y-135529758D01*
X160312873Y-135562287D01*
X160307989Y-135569822D01*
X160302542Y-135576066D01*
X160292942Y-135587931D01*
X159389096Y-136491777D01*
X159326784Y-136525803D01*
X159255969Y-136520738D01*
X159210906Y-136491777D01*
X158631837Y-135912708D01*
X158597811Y-135850396D01*
X158595845Y-135838751D01*
X158591189Y-135800274D01*
X158591188Y-135800271D01*
X158590276Y-135792733D01*
X158585071Y-135778957D01*
X158536964Y-135651649D01*
X158534280Y-135644546D01*
X158491603Y-135582450D01*
X158448855Y-135520251D01*
X158448854Y-135520249D01*
X158444553Y-135513992D01*
X158326275Y-135408611D01*
X158318889Y-135404700D01*
X158192988Y-135338039D01*
X158192989Y-135338039D01*
X158186274Y-135334484D01*
X158032633Y-135295892D01*
X158025034Y-135295852D01*
X158025033Y-135295852D01*
X157959181Y-135295507D01*
X157874221Y-135295062D01*
X157866841Y-135296834D01*
X157866839Y-135296834D01*
X157727563Y-135330271D01*
X157727560Y-135330272D01*
X157720184Y-135332043D01*
X157579414Y-135404700D01*
X157460039Y-135508838D01*
X157368950Y-135638444D01*
X157311406Y-135786037D01*
X157310414Y-135793570D01*
X157310414Y-135793571D01*
X157294730Y-135912708D01*
X157290729Y-135943096D01*
X157308113Y-136100553D01*
X157362553Y-136249319D01*
X157366789Y-136255622D01*
X157366789Y-136255623D01*
X157428443Y-136347373D01*
X157450908Y-136380805D01*
X157456527Y-136385918D01*
X157456528Y-136385919D01*
X157528034Y-136450984D01*
X157568076Y-136487419D01*
X157707293Y-136563008D01*
X157833985Y-136596245D01*
X157859462Y-136602929D01*
X157916583Y-136635710D01*
X158754595Y-137473722D01*
X158788621Y-137536034D01*
X158791500Y-137562817D01*
X158791500Y-146545367D01*
X158768587Y-146617818D01*
X158718950Y-146688444D01*
X158716190Y-146695524D01*
X158684509Y-146776782D01*
X158661406Y-146836037D01*
X158660414Y-146843570D01*
X158660414Y-146843571D01*
X158642757Y-146977695D01*
X158640729Y-146993096D01*
X158643016Y-147013807D01*
X158656983Y-147140317D01*
X158658113Y-147150553D01*
X158660723Y-147157684D01*
X158660723Y-147157686D01*
X158694946Y-147251204D01*
X158712553Y-147299319D01*
X158716789Y-147305622D01*
X158716789Y-147305623D01*
X158748332Y-147352563D01*
X158800908Y-147430805D01*
X158806527Y-147435918D01*
X158806528Y-147435919D01*
X158825658Y-147453326D01*
X158918076Y-147537419D01*
X159057293Y-147613008D01*
X159210522Y-147653207D01*
X159294477Y-147654526D01*
X159361319Y-147655576D01*
X159361322Y-147655576D01*
X159368916Y-147655695D01*
X159523332Y-147620329D01*
X159593742Y-147584917D01*
X159658072Y-147552563D01*
X159658075Y-147552561D01*
X159664855Y-147549151D01*
X159670626Y-147544222D01*
X159670629Y-147544220D01*
X159779536Y-147451204D01*
X159779536Y-147451203D01*
X159785314Y-147446269D01*
X159877755Y-147317624D01*
X159936842Y-147170641D01*
X159950672Y-147073460D01*
X159980072Y-147008838D01*
X160039743Y-146970369D01*
X160110740Y-146970267D01*
X160170521Y-147008565D01*
X160193741Y-147047913D01*
X160209294Y-147090412D01*
X160212553Y-147099319D01*
X160216789Y-147105622D01*
X160216789Y-147105623D01*
X160265220Y-147177695D01*
X160300908Y-147230805D01*
X160306527Y-147235918D01*
X160306528Y-147235919D01*
X160403878Y-147324500D01*
X160418076Y-147337419D01*
X160557293Y-147413008D01*
X160710522Y-147453207D01*
X160794477Y-147454526D01*
X160861319Y-147455576D01*
X160861322Y-147455576D01*
X160868916Y-147455695D01*
X161023332Y-147420329D01*
X161093742Y-147384917D01*
X161158072Y-147352563D01*
X161158075Y-147352561D01*
X161164855Y-147349151D01*
X161170626Y-147344222D01*
X161170629Y-147344220D01*
X161279536Y-147251204D01*
X161279536Y-147251203D01*
X161285314Y-147246269D01*
X161377755Y-147117624D01*
X161436842Y-146970641D01*
X161440516Y-146944825D01*
X161469915Y-146880201D01*
X161529586Y-146841731D01*
X161600583Y-146841629D01*
X161654354Y-146873481D01*
X161717726Y-146936853D01*
X161751752Y-146999165D01*
X161753869Y-147012117D01*
X161758113Y-147050553D01*
X161760723Y-147057684D01*
X161760723Y-147057686D01*
X161804640Y-147177695D01*
X161812553Y-147199319D01*
X161900908Y-147330805D01*
X161906527Y-147335918D01*
X161906528Y-147335919D01*
X161912158Y-147341042D01*
X162018076Y-147437419D01*
X162157293Y-147513008D01*
X162310522Y-147553207D01*
X162394477Y-147554526D01*
X162461319Y-147555576D01*
X162461322Y-147555576D01*
X162468916Y-147555695D01*
X162623332Y-147520329D01*
X162693742Y-147484917D01*
X162758072Y-147452563D01*
X162758075Y-147452561D01*
X162764855Y-147449151D01*
X162770626Y-147444222D01*
X162770629Y-147444220D01*
X162879536Y-147351204D01*
X162879536Y-147351203D01*
X162885314Y-147346269D01*
X162977755Y-147217624D01*
X163036842Y-147070641D01*
X163051127Y-146970267D01*
X163058581Y-146917891D01*
X163058581Y-146917888D01*
X163059162Y-146913807D01*
X163059307Y-146900000D01*
X163040276Y-146742733D01*
X162984280Y-146594546D01*
X162894553Y-146463992D01*
X162872217Y-146444091D01*
X162781946Y-146363664D01*
X162776275Y-146358611D01*
X162636274Y-146284484D01*
X162579860Y-146270314D01*
X162492886Y-146248467D01*
X162434487Y-146215359D01*
X162045405Y-145826278D01*
X162011380Y-145763965D01*
X162008500Y-145737182D01*
X162008500Y-141940733D01*
X162028502Y-141872612D01*
X162082158Y-141826119D01*
X162152432Y-141816015D01*
X162219298Y-141847539D01*
X162318076Y-141937419D01*
X162457293Y-142013008D01*
X162610522Y-142053207D01*
X162694477Y-142054526D01*
X162761319Y-142055576D01*
X162761322Y-142055576D01*
X162768916Y-142055695D01*
X162923332Y-142020329D01*
X163017488Y-141972974D01*
X163058072Y-141952563D01*
X163058075Y-141952561D01*
X163064855Y-141949151D01*
X163070626Y-141944222D01*
X163070629Y-141944220D01*
X163179536Y-141851204D01*
X163179536Y-141851203D01*
X163185314Y-141846269D01*
X163277755Y-141717624D01*
X163336842Y-141570641D01*
X163355075Y-141442527D01*
X163358581Y-141417891D01*
X163358581Y-141417888D01*
X163359162Y-141413807D01*
X163359307Y-141400000D01*
X163340276Y-141242733D01*
X163284280Y-141094546D01*
X163230660Y-141016528D01*
X163208500Y-140945161D01*
X163208500Y-140362817D01*
X163228502Y-140294696D01*
X163245405Y-140273722D01*
X170189304Y-133329823D01*
X170198844Y-133322200D01*
X170198530Y-133321832D01*
X170205366Y-133316014D01*
X170212958Y-133311224D01*
X170248593Y-133270875D01*
X170253939Y-133265188D01*
X170265382Y-133253745D01*
X170271659Y-133245370D01*
X170278033Y-133237541D01*
X170309378Y-133202049D01*
X170313192Y-133193926D01*
X170314826Y-133191438D01*
X170323814Y-133176477D01*
X170325230Y-133173891D01*
X170330616Y-133166705D01*
X170347244Y-133122350D01*
X170351164Y-133113048D01*
X170364231Y-133085216D01*
X170371281Y-133070200D01*
X170372662Y-133061334D01*
X170373518Y-133058533D01*
X170377962Y-133041596D01*
X170378595Y-133038716D01*
X170381744Y-133030316D01*
X170382668Y-133017891D01*
X170385252Y-132983111D01*
X170386406Y-132973063D01*
X170387750Y-132964429D01*
X170388500Y-132959614D01*
X170388500Y-132944077D01*
X170388847Y-132934739D01*
X170391874Y-132894010D01*
X170391874Y-132894009D01*
X170392539Y-132885059D01*
X170390666Y-132876284D01*
X170390103Y-132868027D01*
X170388500Y-132852838D01*
X170388500Y-132774577D01*
X170412178Y-132701051D01*
X170422701Y-132686406D01*
X170457755Y-132637624D01*
X170485878Y-132567666D01*
X170497363Y-132539097D01*
X170541330Y-132483353D01*
X170608455Y-132460228D01*
X170677426Y-132477065D01*
X170726346Y-132528518D01*
X170739786Y-132575071D01*
X170752905Y-132724491D01*
X170762391Y-132832540D01*
X170762844Y-132840822D01*
X170849511Y-136827536D01*
X170849541Y-136830504D01*
X170849124Y-137058611D01*
X170848846Y-137210604D01*
X170848798Y-137210846D01*
X170848800Y-137235989D01*
X170848755Y-137260398D01*
X170848801Y-137260633D01*
X170848871Y-138299785D01*
X170848832Y-138299981D01*
X170848872Y-138324982D01*
X170848874Y-138349622D01*
X170848912Y-138349815D01*
X170850693Y-139452623D01*
X170850656Y-139452810D01*
X170850658Y-139453375D01*
X170850730Y-139476444D01*
X170850733Y-139477503D01*
X170850773Y-139502465D01*
X170850810Y-139502650D01*
X170850811Y-139502665D01*
X170851393Y-139690177D01*
X170854140Y-140574443D01*
X170854095Y-140574677D01*
X170854218Y-140599393D01*
X170854295Y-140624237D01*
X170854342Y-140624472D01*
X170859043Y-141570416D01*
X170859013Y-141570573D01*
X170859149Y-141592376D01*
X170859165Y-141594926D01*
X170859131Y-141594926D01*
X170859166Y-141595086D01*
X170859291Y-141620283D01*
X170859324Y-141620446D01*
X170873463Y-143885984D01*
X170849995Y-143960006D01*
X170633729Y-144262778D01*
X170601318Y-144294229D01*
X170598274Y-144296268D01*
X170488551Y-144369759D01*
X170485861Y-144371460D01*
X170481075Y-144373710D01*
X170476089Y-144377390D01*
X170476088Y-144377391D01*
X170467941Y-144383404D01*
X170463231Y-144386717D01*
X170454799Y-144392365D01*
X170449657Y-144395809D01*
X170445923Y-144399551D01*
X170443361Y-144401548D01*
X170245573Y-144547543D01*
X170245256Y-144547737D01*
X170242709Y-144548425D01*
X170237300Y-144552594D01*
X170237299Y-144552594D01*
X170205791Y-144576875D01*
X170203707Y-144578447D01*
X170186760Y-144590956D01*
X170184977Y-144592915D01*
X170182874Y-144594535D01*
X170179036Y-144598930D01*
X170168982Y-144610442D01*
X170167294Y-144612335D01*
X170135903Y-144646812D01*
X170135008Y-144649296D01*
X170134793Y-144649590D01*
X169967474Y-144841180D01*
X169953550Y-144854830D01*
X169937434Y-144868349D01*
X169931701Y-144879358D01*
X169917728Y-144906191D01*
X169915237Y-144910742D01*
X169893978Y-144947742D01*
X169892384Y-144960049D01*
X169892383Y-144960051D01*
X169891276Y-144968598D01*
X169887281Y-144987685D01*
X169825890Y-145198193D01*
X169824456Y-145202187D01*
X169819390Y-145209561D01*
X169816812Y-145221701D01*
X169811836Y-145245135D01*
X169809548Y-145254230D01*
X169806509Y-145264649D01*
X169805968Y-145270820D01*
X169805355Y-145274089D01*
X169804986Y-145277394D01*
X169803699Y-145283454D01*
X169803558Y-145294330D01*
X169803089Y-145303664D01*
X169799914Y-145339901D01*
X169802602Y-145348430D01*
X169802806Y-145352666D01*
X169802350Y-145387944D01*
X169778892Y-145459551D01*
X169750000Y-145500000D01*
X169750000Y-146000000D01*
X169760827Y-146007218D01*
X169760828Y-146007219D01*
X171943892Y-147462595D01*
X171989477Y-147517024D01*
X172000000Y-147567433D01*
X172000000Y-152677629D01*
X171979998Y-152745750D01*
X171937488Y-152786465D01*
X169102654Y-154440118D01*
X169045046Y-154457145D01*
X168574446Y-154479129D01*
X168254311Y-154494083D01*
X168252858Y-154494143D01*
X168089648Y-154499794D01*
X168085863Y-154499925D01*
X168081503Y-154500000D01*
X140985702Y-154500000D01*
X140979796Y-154499862D01*
X140379919Y-154471712D01*
X140377891Y-154471600D01*
X139212641Y-154397838D01*
X139209643Y-154397612D01*
X138857108Y-154366645D01*
X138791774Y-154341352D01*
X133799639Y-150537820D01*
X133757575Y-150480626D01*
X133750000Y-150437596D01*
X133750000Y-141442044D01*
X133770002Y-141373923D01*
X133780148Y-141361139D01*
X133779940Y-141360973D01*
X133783797Y-141356129D01*
X133788109Y-141351687D01*
X133791473Y-141346487D01*
X133791584Y-141346348D01*
X133798731Y-141336427D01*
X133810669Y-141321487D01*
X133810671Y-141321482D01*
X133818417Y-141311789D01*
X133821636Y-141300655D01*
X133822374Y-141299385D01*
X133822850Y-141297994D01*
X133829145Y-141288264D01*
X133834839Y-141257248D01*
X133837725Y-141245008D01*
X133843036Y-141226639D01*
X133843036Y-141226635D01*
X133846482Y-141214717D01*
X133845195Y-141203198D01*
X133845390Y-141201743D01*
X133845298Y-141200278D01*
X133847391Y-141188877D01*
X133840783Y-141158046D01*
X133838765Y-141145633D01*
X133836642Y-141126625D01*
X133836641Y-141126623D01*
X133835264Y-141114294D01*
X133829666Y-141104143D01*
X133829290Y-141102725D01*
X133828645Y-141101409D01*
X133826215Y-141090073D01*
X133808313Y-141064120D01*
X133801871Y-141053705D01*
X133801775Y-141053565D01*
X133798786Y-141048145D01*
X133794793Y-141043407D01*
X133794485Y-141043041D01*
X133787116Y-141033389D01*
X133772283Y-141011886D01*
X133750000Y-140940341D01*
X133750000Y-140750000D01*
X133626583Y-140599156D01*
X131528481Y-138034810D01*
X131500825Y-137969421D01*
X131500000Y-137955022D01*
X131500000Y-136181568D01*
X132540029Y-136181568D01*
X132541801Y-136188948D01*
X132541801Y-136188950D01*
X132576174Y-136332123D01*
X132579835Y-136347373D01*
X132658042Y-136498896D01*
X132663034Y-136504618D01*
X132663035Y-136504620D01*
X132749038Y-136603207D01*
X132770135Y-136627391D01*
X132909643Y-136725438D01*
X133005512Y-136762816D01*
X133061431Y-136784618D01*
X133061434Y-136784619D01*
X133068511Y-136787378D01*
X133076044Y-136788370D01*
X133076045Y-136788370D01*
X133194477Y-136803962D01*
X133194478Y-136803962D01*
X133198564Y-136804500D01*
X133287756Y-136804500D01*
X133414281Y-136789189D01*
X133573789Y-136728916D01*
X133714316Y-136632334D01*
X133719369Y-136626663D01*
X133822695Y-136510693D01*
X133822697Y-136510690D01*
X133827748Y-136505021D01*
X133837068Y-136487419D01*
X133903984Y-136361037D01*
X133903985Y-136361035D01*
X133907538Y-136354324D01*
X133910218Y-136343655D01*
X133947227Y-136196317D01*
X133947227Y-136196313D01*
X133949078Y-136188946D01*
X133949157Y-136173974D01*
X133949931Y-136026026D01*
X133949971Y-136018432D01*
X133924589Y-135912708D01*
X133911937Y-135860006D01*
X133911936Y-135860002D01*
X133910165Y-135852627D01*
X133831958Y-135701104D01*
X133782620Y-135644546D01*
X133724861Y-135578336D01*
X133719865Y-135572609D01*
X133580357Y-135474562D01*
X133462499Y-135428611D01*
X133428569Y-135415382D01*
X133428566Y-135415381D01*
X133421489Y-135412622D01*
X133413956Y-135411630D01*
X133413955Y-135411630D01*
X133295523Y-135396038D01*
X133295522Y-135396038D01*
X133291436Y-135395500D01*
X133202244Y-135395500D01*
X133075719Y-135410811D01*
X132916211Y-135471084D01*
X132909953Y-135475385D01*
X132851039Y-135515876D01*
X132775684Y-135567666D01*
X132770632Y-135573336D01*
X132770631Y-135573337D01*
X132667305Y-135689307D01*
X132667303Y-135689310D01*
X132662252Y-135694979D01*
X132658697Y-135701692D01*
X132658697Y-135701693D01*
X132586129Y-135838751D01*
X132582462Y-135845676D01*
X132580612Y-135853041D01*
X132578863Y-135860006D01*
X132540922Y-136011054D01*
X132540882Y-136018653D01*
X132540882Y-136018655D01*
X132540511Y-136089571D01*
X132540029Y-136181568D01*
X131500000Y-136181568D01*
X131500000Y-133181568D01*
X132540029Y-133181568D01*
X132541801Y-133188948D01*
X132541801Y-133188950D01*
X132575622Y-133329823D01*
X132579835Y-133347373D01*
X132658042Y-133498896D01*
X132663034Y-133504618D01*
X132663035Y-133504620D01*
X132754429Y-133609387D01*
X132770135Y-133627391D01*
X132909643Y-133725438D01*
X133005512Y-133762816D01*
X133061431Y-133784618D01*
X133061434Y-133784619D01*
X133068511Y-133787378D01*
X133076044Y-133788370D01*
X133076045Y-133788370D01*
X133194477Y-133803962D01*
X133194478Y-133803962D01*
X133198564Y-133804500D01*
X133287756Y-133804500D01*
X133414281Y-133789189D01*
X133573789Y-133728916D01*
X133608146Y-133705303D01*
X133708057Y-133636636D01*
X133708058Y-133636635D01*
X133714316Y-133632334D01*
X133761853Y-133578980D01*
X133822695Y-133510693D01*
X133822697Y-133510690D01*
X133827748Y-133505021D01*
X133834564Y-133492148D01*
X133903984Y-133361037D01*
X133903985Y-133361035D01*
X133907538Y-133354324D01*
X133910239Y-133343571D01*
X133947227Y-133196317D01*
X133947227Y-133196313D01*
X133949078Y-133188946D01*
X133949157Y-133173974D01*
X133949621Y-133085216D01*
X133949971Y-133018432D01*
X133948199Y-133011050D01*
X133911937Y-132860006D01*
X133911936Y-132860002D01*
X133910165Y-132852627D01*
X133831958Y-132701104D01*
X133820544Y-132688019D01*
X133724861Y-132578336D01*
X133719865Y-132572609D01*
X133580357Y-132474562D01*
X133480722Y-132435716D01*
X133428569Y-132415382D01*
X133428566Y-132415381D01*
X133421489Y-132412622D01*
X133413956Y-132411630D01*
X133413955Y-132411630D01*
X133295523Y-132396038D01*
X133295522Y-132396038D01*
X133291436Y-132395500D01*
X133202244Y-132395500D01*
X133075719Y-132410811D01*
X132916211Y-132471084D01*
X132909953Y-132475385D01*
X132788529Y-132558838D01*
X132775684Y-132567666D01*
X132770632Y-132573336D01*
X132770631Y-132573337D01*
X132667305Y-132689307D01*
X132667303Y-132689310D01*
X132662252Y-132694979D01*
X132582462Y-132845676D01*
X132580612Y-132853041D01*
X132543659Y-133000158D01*
X132540922Y-133011054D01*
X132540882Y-133018653D01*
X132540882Y-133018655D01*
X132540821Y-133030316D01*
X132540029Y-133181568D01*
X131500000Y-133181568D01*
X131500000Y-131552190D01*
X131520002Y-131484069D01*
X131536905Y-131463095D01*
X132406904Y-130593096D01*
X155140729Y-130593096D01*
X155158113Y-130750553D01*
X155160723Y-130757684D01*
X155160723Y-130757686D01*
X155168045Y-130777695D01*
X155212553Y-130899319D01*
X155216790Y-130905625D01*
X155216792Y-130905628D01*
X155270081Y-130984929D01*
X155291500Y-131055205D01*
X155291500Y-141028928D01*
X155290145Y-141041058D01*
X155290627Y-141041097D01*
X155289907Y-141050044D01*
X155287926Y-141058800D01*
X155288482Y-141067760D01*
X155291258Y-141112508D01*
X155291500Y-141120310D01*
X155291500Y-141136513D01*
X155292136Y-141140953D01*
X155292984Y-141146878D01*
X155294013Y-141156928D01*
X155296945Y-141204177D01*
X155299994Y-141212623D01*
X155300593Y-141215514D01*
X155304822Y-141232480D01*
X155305648Y-141235305D01*
X155306920Y-141244187D01*
X155326522Y-141287298D01*
X155330327Y-141296647D01*
X155346404Y-141341181D01*
X155351699Y-141348429D01*
X155353080Y-141351027D01*
X155361915Y-141366145D01*
X155363494Y-141368614D01*
X155367208Y-141376782D01*
X155390776Y-141404134D01*
X155398115Y-141412652D01*
X155404401Y-141420569D01*
X155409548Y-141427615D01*
X155409553Y-141427620D01*
X155412425Y-141431552D01*
X155423400Y-141442527D01*
X155429758Y-141449374D01*
X155462287Y-141487127D01*
X155469822Y-141492011D01*
X155476058Y-141497451D01*
X155487929Y-141507056D01*
X155953846Y-141972974D01*
X155983076Y-142018769D01*
X156009941Y-142092183D01*
X156009943Y-142092187D01*
X156012553Y-142099319D01*
X156100908Y-142230805D01*
X156106527Y-142235918D01*
X156106528Y-142235919D01*
X156117903Y-142246269D01*
X156218076Y-142337419D01*
X156357293Y-142413008D01*
X156510522Y-142453207D01*
X156594477Y-142454526D01*
X156661319Y-142455576D01*
X156661322Y-142455576D01*
X156668916Y-142455695D01*
X156823332Y-142420329D01*
X156893742Y-142384917D01*
X156958072Y-142352563D01*
X156958075Y-142352561D01*
X156964855Y-142349151D01*
X156970626Y-142344222D01*
X156970629Y-142344220D01*
X157079536Y-142251204D01*
X157079536Y-142251203D01*
X157085314Y-142246269D01*
X157177755Y-142117624D01*
X157236842Y-141970641D01*
X157253840Y-141851204D01*
X157258581Y-141817891D01*
X157258581Y-141817888D01*
X157259162Y-141813807D01*
X157259307Y-141800000D01*
X157240276Y-141642733D01*
X157184280Y-141494546D01*
X157150801Y-141445833D01*
X157098855Y-141370251D01*
X157098854Y-141370249D01*
X157094553Y-141363992D01*
X157063615Y-141336427D01*
X157018968Y-141296649D01*
X156976275Y-141258611D01*
X156836274Y-141184484D01*
X156682633Y-141145892D01*
X156675035Y-141145852D01*
X156675033Y-141145852D01*
X156616203Y-141145544D01*
X156548188Y-141125186D01*
X156527768Y-141108641D01*
X156345405Y-140926278D01*
X156311379Y-140863966D01*
X156308500Y-140837183D01*
X156308500Y-131054577D01*
X156332178Y-130981051D01*
X156342701Y-130966406D01*
X156377755Y-130917624D01*
X156436842Y-130770641D01*
X156459162Y-130613807D01*
X156459307Y-130600000D01*
X156440276Y-130442733D01*
X156384280Y-130294546D01*
X156294553Y-130163992D01*
X156176275Y-130058611D01*
X156168889Y-130054700D01*
X156042988Y-129988039D01*
X156042989Y-129988039D01*
X156036274Y-129984484D01*
X155882633Y-129945892D01*
X155875034Y-129945852D01*
X155875033Y-129945852D01*
X155809181Y-129945507D01*
X155724221Y-129945062D01*
X155716841Y-129946834D01*
X155716839Y-129946834D01*
X155577563Y-129980271D01*
X155577560Y-129980272D01*
X155570184Y-129982043D01*
X155429414Y-130054700D01*
X155310039Y-130158838D01*
X155218950Y-130288444D01*
X155161406Y-130436037D01*
X155160414Y-130443570D01*
X155160414Y-130443571D01*
X155152374Y-130504646D01*
X155140729Y-130593096D01*
X132406904Y-130593096D01*
X134442502Y-128557498D01*
X134485678Y-128529258D01*
X134486448Y-128528957D01*
X135372095Y-128182360D01*
X135378227Y-128180142D01*
X135449773Y-128156336D01*
X135451002Y-128155934D01*
X135686431Y-128080271D01*
X135898029Y-128012267D01*
X135900300Y-128011562D01*
X136263098Y-127902724D01*
X136268076Y-127901342D01*
X136443256Y-127856582D01*
X136455047Y-127854185D01*
X136467329Y-127854742D01*
X136478994Y-127850519D01*
X136478999Y-127850518D01*
X136494038Y-127845073D01*
X136498115Y-127843706D01*
X136503776Y-127842548D01*
X136517956Y-127836585D01*
X136523888Y-127834266D01*
X136550672Y-127824569D01*
X136562342Y-127820344D01*
X136567263Y-127815850D01*
X136573410Y-127813265D01*
X136582136Y-127804444D01*
X136582139Y-127804442D01*
X136602173Y-127784190D01*
X136606787Y-127779757D01*
X136613549Y-127773582D01*
X136613550Y-127773581D01*
X136618123Y-127769405D01*
X136621552Y-127764745D01*
X136624506Y-127761614D01*
X136629588Y-127756477D01*
X136644475Y-127741429D01*
X136649162Y-127729940D01*
X136656001Y-127719584D01*
X136656180Y-127719702D01*
X136660915Y-127711255D01*
X136668587Y-127700828D01*
X136675231Y-127692551D01*
X136689798Y-127675896D01*
X136689799Y-127675894D01*
X136697966Y-127666556D01*
X136707317Y-127638884D01*
X136712577Y-127625792D01*
X136724958Y-127599361D01*
X136725521Y-127586961D01*
X136726024Y-127584921D01*
X136726059Y-127584800D01*
X136726070Y-127584677D01*
X136726342Y-127582586D01*
X136730316Y-127570827D01*
X136729487Y-127558441D01*
X136730188Y-127553061D01*
X136738732Y-127533675D01*
X136734772Y-127532468D01*
X136743829Y-127502743D01*
X136750000Y-127500000D01*
X136742392Y-127491849D01*
X136742392Y-127491848D01*
X136737951Y-127487089D01*
X136717135Y-127457000D01*
X136710623Y-127443840D01*
X136705079Y-127430852D01*
X136699367Y-127415076D01*
X136699366Y-127415075D01*
X136695141Y-127403404D01*
X136686773Y-127394241D01*
X136686771Y-127394237D01*
X136671862Y-127377911D01*
X136665060Y-127369804D01*
X136596574Y-127280803D01*
X136596461Y-127280625D01*
X136595940Y-127278799D01*
X136583933Y-127263664D01*
X136566279Y-127241410D01*
X136565134Y-127239945D01*
X136563847Y-127238273D01*
X136551596Y-127222352D01*
X136550170Y-127221105D01*
X136548992Y-127219620D01*
X136540080Y-127212055D01*
X136532058Y-127205246D01*
X136530648Y-127204031D01*
X136498574Y-127175980D01*
X136498572Y-127175979D01*
X136494734Y-127172622D01*
X136492937Y-127172015D01*
X136492757Y-127171888D01*
X136270521Y-126983257D01*
X136267008Y-126980161D01*
X136264409Y-126977784D01*
X136260274Y-126973178D01*
X136255434Y-126969554D01*
X136248625Y-126962812D01*
X133283887Y-123786307D01*
X133252030Y-123722859D01*
X133250000Y-123700335D01*
X133250000Y-120970927D01*
X133270002Y-120902806D01*
X133323658Y-120856313D01*
X133393932Y-120846209D01*
X133458512Y-120875703D01*
X133477482Y-120896245D01*
X133540468Y-120981833D01*
X133550381Y-120992464D01*
X133673225Y-121096828D01*
X133685313Y-121104890D01*
X133828871Y-121178195D01*
X133842496Y-121183262D01*
X134000716Y-121221977D01*
X134011775Y-121223660D01*
X134015321Y-121223880D01*
X134019199Y-121224000D01*
X134254885Y-121224000D01*
X134270124Y-121219525D01*
X134271329Y-121218135D01*
X134273000Y-121210452D01*
X134273000Y-121205885D01*
X134527000Y-121205885D01*
X134531475Y-121221124D01*
X134532865Y-121222329D01*
X134540548Y-121224000D01*
X134740363Y-121224000D01*
X134747667Y-121223575D01*
X134867366Y-121209620D01*
X134881519Y-121206275D01*
X135033030Y-121151279D01*
X135046029Y-121144769D01*
X135180826Y-121056392D01*
X135191978Y-121047068D01*
X135302828Y-120930053D01*
X135311540Y-120918408D01*
X135392494Y-120779035D01*
X135398292Y-120765700D01*
X135443715Y-120615722D01*
X137289963Y-120615722D01*
X137300513Y-120677119D01*
X137304619Y-120691070D01*
X137367729Y-120839387D01*
X137374929Y-120852012D01*
X137470467Y-120981833D01*
X137480381Y-120992464D01*
X137603225Y-121096828D01*
X137615313Y-121104890D01*
X137758871Y-121178195D01*
X137772496Y-121183262D01*
X137930716Y-121221977D01*
X137941775Y-121223660D01*
X137945321Y-121223880D01*
X137949199Y-121224000D01*
X138434885Y-121224000D01*
X138450124Y-121219525D01*
X138451329Y-121218135D01*
X138453000Y-121210452D01*
X138453000Y-121205885D01*
X138707000Y-121205885D01*
X138711475Y-121221124D01*
X138712865Y-121222329D01*
X138720548Y-121224000D01*
X139170363Y-121224000D01*
X139177667Y-121223575D01*
X139297366Y-121209620D01*
X139311519Y-121206275D01*
X139463030Y-121151279D01*
X139476029Y-121144769D01*
X139610826Y-121056392D01*
X139621978Y-121047068D01*
X139732828Y-120930053D01*
X139741540Y-120918408D01*
X139822494Y-120779035D01*
X139828292Y-120765700D01*
X139875014Y-120611433D01*
X139875292Y-120609887D01*
X139872982Y-120599730D01*
X139862073Y-120597000D01*
X138725115Y-120597000D01*
X138709876Y-120601475D01*
X138708671Y-120602865D01*
X138707000Y-120610548D01*
X138707000Y-121205885D01*
X138453000Y-121205885D01*
X138453000Y-120615115D01*
X138448525Y-120599876D01*
X138447135Y-120598671D01*
X138439452Y-120597000D01*
X137304861Y-120597000D01*
X137291899Y-120600806D01*
X137289963Y-120615722D01*
X135443715Y-120615722D01*
X135445014Y-120611433D01*
X135445292Y-120609887D01*
X135442982Y-120599730D01*
X135432073Y-120597000D01*
X134545115Y-120597000D01*
X134529876Y-120601475D01*
X134528671Y-120602865D01*
X134527000Y-120610548D01*
X134527000Y-121205885D01*
X134273000Y-121205885D01*
X134273000Y-120324885D01*
X134527000Y-120324885D01*
X134531475Y-120340124D01*
X134532865Y-120341329D01*
X134540548Y-120343000D01*
X135425139Y-120343000D01*
X135438101Y-120339194D01*
X135439280Y-120330113D01*
X137284708Y-120330113D01*
X137287018Y-120340270D01*
X137297927Y-120343000D01*
X138434885Y-120343000D01*
X138450124Y-120338525D01*
X138451329Y-120337135D01*
X138453000Y-120329452D01*
X138453000Y-120324885D01*
X138707000Y-120324885D01*
X138711475Y-120340124D01*
X138712865Y-120341329D01*
X138720548Y-120343000D01*
X139855139Y-120343000D01*
X139868101Y-120339194D01*
X139870037Y-120324278D01*
X139859487Y-120262881D01*
X139855381Y-120248930D01*
X139792271Y-120100613D01*
X139785071Y-120087988D01*
X139689533Y-119958167D01*
X139679619Y-119947536D01*
X139556775Y-119843172D01*
X139544687Y-119835110D01*
X139401129Y-119761805D01*
X139387504Y-119756738D01*
X139229284Y-119718023D01*
X139218225Y-119716340D01*
X139214679Y-119716120D01*
X139210801Y-119716000D01*
X138725115Y-119716000D01*
X138709876Y-119720475D01*
X138708671Y-119721865D01*
X138707000Y-119729548D01*
X138707000Y-120324885D01*
X138453000Y-120324885D01*
X138453000Y-119734115D01*
X138448525Y-119718876D01*
X138437319Y-119709166D01*
X138394397Y-119685729D01*
X138360372Y-119623417D01*
X138365436Y-119552601D01*
X138406788Y-119496670D01*
X138456758Y-119458327D01*
X138463304Y-119453304D01*
X138556192Y-119332250D01*
X138614584Y-119191280D01*
X138616373Y-119177695D01*
X138633422Y-119048188D01*
X138634500Y-119040000D01*
X138628325Y-118993096D01*
X140240729Y-118993096D01*
X140258113Y-119150553D01*
X140312553Y-119299319D01*
X140316790Y-119305625D01*
X140316792Y-119305628D01*
X140370081Y-119384929D01*
X140391500Y-119455205D01*
X140391500Y-124128928D01*
X140390145Y-124141058D01*
X140390627Y-124141097D01*
X140389907Y-124150044D01*
X140387926Y-124158800D01*
X140388482Y-124167760D01*
X140391258Y-124212508D01*
X140391500Y-124220310D01*
X140391500Y-124236513D01*
X140392136Y-124240953D01*
X140392984Y-124246878D01*
X140394013Y-124256928D01*
X140395883Y-124287068D01*
X140396945Y-124304177D01*
X140399994Y-124312623D01*
X140400593Y-124315514D01*
X140404822Y-124332480D01*
X140405648Y-124335305D01*
X140406920Y-124344187D01*
X140426522Y-124387298D01*
X140430327Y-124396647D01*
X140446404Y-124441181D01*
X140451699Y-124448429D01*
X140453080Y-124451027D01*
X140461915Y-124466145D01*
X140463494Y-124468614D01*
X140467208Y-124476782D01*
X140473064Y-124483578D01*
X140498115Y-124512652D01*
X140504401Y-124520569D01*
X140509548Y-124527615D01*
X140509553Y-124527620D01*
X140512425Y-124531552D01*
X140523400Y-124542527D01*
X140529758Y-124549374D01*
X140562287Y-124587127D01*
X140569822Y-124592011D01*
X140576066Y-124597458D01*
X140587931Y-124607058D01*
X143390177Y-127409304D01*
X143397800Y-127418844D01*
X143398168Y-127418530D01*
X143403986Y-127425366D01*
X143408776Y-127432958D01*
X143415504Y-127438900D01*
X143449125Y-127468593D01*
X143454812Y-127473939D01*
X143466255Y-127485382D01*
X143473780Y-127491022D01*
X143474630Y-127491659D01*
X143482459Y-127498033D01*
X143517951Y-127529378D01*
X143526074Y-127533192D01*
X143528562Y-127534826D01*
X143543523Y-127543814D01*
X143546109Y-127545230D01*
X143553295Y-127550616D01*
X143597650Y-127567244D01*
X143606948Y-127571162D01*
X143649800Y-127591281D01*
X143658666Y-127592662D01*
X143661467Y-127593518D01*
X143678404Y-127597962D01*
X143681284Y-127598595D01*
X143689684Y-127601744D01*
X143698629Y-127602409D01*
X143698630Y-127602409D01*
X143736889Y-127605252D01*
X143746937Y-127606406D01*
X143751588Y-127607130D01*
X143760386Y-127608500D01*
X143775923Y-127608500D01*
X143785261Y-127608847D01*
X143825990Y-127611874D01*
X143825991Y-127611874D01*
X143834941Y-127612539D01*
X143843716Y-127610666D01*
X143851973Y-127610103D01*
X143867162Y-127608500D01*
X146238747Y-127608500D01*
X146311737Y-127631795D01*
X146312460Y-127632309D01*
X146318076Y-127637419D01*
X146324746Y-127641040D01*
X146324748Y-127641042D01*
X146356576Y-127658323D01*
X146457293Y-127713008D01*
X146610522Y-127753207D01*
X146625237Y-127753438D01*
X146693035Y-127774506D01*
X146738680Y-127828885D01*
X146747680Y-127899309D01*
X146712354Y-127968517D01*
X146664599Y-128016272D01*
X146604918Y-128049696D01*
X146477564Y-128080271D01*
X146477562Y-128080272D01*
X146470184Y-128082043D01*
X146329414Y-128154700D01*
X146210039Y-128258838D01*
X146118950Y-128388444D01*
X146061406Y-128536037D01*
X146060414Y-128543570D01*
X146060414Y-128543571D01*
X146048762Y-128632082D01*
X146040729Y-128693096D01*
X146058113Y-128850553D01*
X146060723Y-128857684D01*
X146060723Y-128857686D01*
X146106299Y-128982228D01*
X146112553Y-128999319D01*
X146200908Y-129130805D01*
X146206527Y-129135918D01*
X146206528Y-129135919D01*
X146217903Y-129146269D01*
X146318076Y-129237419D01*
X146457293Y-129313008D01*
X146610522Y-129353207D01*
X146694477Y-129354526D01*
X146761319Y-129355576D01*
X146761322Y-129355576D01*
X146768916Y-129355695D01*
X146923332Y-129320329D01*
X146993742Y-129284917D01*
X147058072Y-129252563D01*
X147058075Y-129252561D01*
X147064855Y-129249151D01*
X147070626Y-129244222D01*
X147070629Y-129244220D01*
X147179536Y-129151204D01*
X147179536Y-129151203D01*
X147185314Y-129146269D01*
X147277755Y-129017624D01*
X147336842Y-128870641D01*
X147345580Y-128809240D01*
X147374980Y-128744618D01*
X147381228Y-128737899D01*
X148209304Y-127909823D01*
X148218844Y-127902200D01*
X148218530Y-127901832D01*
X148225366Y-127896014D01*
X148232958Y-127891224D01*
X148268593Y-127850875D01*
X148273939Y-127845188D01*
X148285382Y-127833745D01*
X148291659Y-127825370D01*
X148298033Y-127817541D01*
X148329378Y-127782049D01*
X148333192Y-127773926D01*
X148334826Y-127771438D01*
X148343814Y-127756477D01*
X148345230Y-127753891D01*
X148350616Y-127746705D01*
X148367244Y-127702350D01*
X148371164Y-127693048D01*
X148391281Y-127650200D01*
X148392662Y-127641334D01*
X148393518Y-127638533D01*
X148397962Y-127621596D01*
X148398595Y-127618716D01*
X148401744Y-127610316D01*
X148403647Y-127584715D01*
X148405252Y-127563111D01*
X148406406Y-127553063D01*
X148407750Y-127544429D01*
X148408500Y-127539614D01*
X148408500Y-127524077D01*
X148408847Y-127514739D01*
X148411874Y-127474010D01*
X148411874Y-127474009D01*
X148412539Y-127465059D01*
X148410666Y-127456284D01*
X148410103Y-127448027D01*
X148408500Y-127432838D01*
X148408500Y-122071073D01*
X148409855Y-122058944D01*
X148409373Y-122058905D01*
X148410093Y-122049954D01*
X148412074Y-122041200D01*
X148408742Y-121987491D01*
X148408500Y-121979689D01*
X148408500Y-121963487D01*
X148407016Y-121953122D01*
X148405987Y-121943072D01*
X148403611Y-121904781D01*
X148403611Y-121904780D01*
X148403055Y-121895822D01*
X148400007Y-121887381D01*
X148399404Y-121884467D01*
X148395185Y-121867548D01*
X148394353Y-121864702D01*
X148393080Y-121855813D01*
X148373474Y-121812691D01*
X148369666Y-121803335D01*
X148356643Y-121767263D01*
X148353595Y-121758819D01*
X148348300Y-121751571D01*
X148346914Y-121748964D01*
X148338099Y-121733877D01*
X148336506Y-121731386D01*
X148332792Y-121723218D01*
X148301882Y-121687345D01*
X148295604Y-121679438D01*
X148290447Y-121672378D01*
X148290446Y-121672376D01*
X148287575Y-121668447D01*
X148276600Y-121657472D01*
X148270242Y-121650624D01*
X148243576Y-121619676D01*
X148243571Y-121619672D01*
X148237713Y-121612873D01*
X148230181Y-121607991D01*
X148223930Y-121602538D01*
X148212074Y-121592946D01*
X144345405Y-117726278D01*
X144311379Y-117663966D01*
X144308500Y-117637183D01*
X144308500Y-113904323D01*
X153391525Y-113904323D01*
X153422041Y-114106097D01*
X153492506Y-114297615D01*
X153600041Y-114471051D01*
X153604427Y-114475689D01*
X153735844Y-114614659D01*
X153740254Y-114619323D01*
X153745484Y-114622985D01*
X153745485Y-114622986D01*
X153837180Y-114687191D01*
X153907418Y-114736372D01*
X154094703Y-114817418D01*
X154294460Y-114859149D01*
X154299300Y-114859403D01*
X154299303Y-114859403D01*
X154299359Y-114859406D01*
X154301158Y-114859500D01*
X154450997Y-114859500D01*
X154499216Y-114854602D01*
X154596676Y-114844703D01*
X154596678Y-114844703D01*
X154603024Y-114844058D01*
X154797755Y-114783033D01*
X154976238Y-114684098D01*
X155131182Y-114551295D01*
X155256257Y-114390049D01*
X155269994Y-114362132D01*
X155343540Y-114212668D01*
X155343542Y-114212663D01*
X155346355Y-114206946D01*
X155397794Y-114009467D01*
X155404506Y-113881406D01*
X155408141Y-113812058D01*
X155408141Y-113812054D01*
X155408475Y-113805677D01*
X155377959Y-113603903D01*
X155307494Y-113412385D01*
X155199959Y-113238949D01*
X155059746Y-113090677D01*
X154967238Y-113025902D01*
X154897815Y-112977292D01*
X154897814Y-112977291D01*
X154892582Y-112973628D01*
X154705297Y-112892582D01*
X154505540Y-112850851D01*
X154500700Y-112850597D01*
X154500697Y-112850597D01*
X154500641Y-112850594D01*
X154498842Y-112850500D01*
X154349003Y-112850500D01*
X154322008Y-112853242D01*
X154203324Y-112865297D01*
X154203322Y-112865297D01*
X154196976Y-112865942D01*
X154002245Y-112926967D01*
X153823762Y-113025902D01*
X153668818Y-113158705D01*
X153543743Y-113319951D01*
X153540928Y-113325672D01*
X153456460Y-113497332D01*
X153456458Y-113497337D01*
X153453645Y-113503054D01*
X153452037Y-113509227D01*
X153452036Y-113509230D01*
X153439325Y-113558028D01*
X153402206Y-113700533D01*
X153397766Y-113785252D01*
X153393851Y-113859953D01*
X153391525Y-113904323D01*
X144308500Y-113904323D01*
X144308500Y-109671072D01*
X144309855Y-109658942D01*
X144309373Y-109658903D01*
X144310093Y-109649956D01*
X144312074Y-109641200D01*
X144308742Y-109587492D01*
X144308500Y-109579690D01*
X144308500Y-109563487D01*
X144307016Y-109553122D01*
X144305987Y-109543072D01*
X144303611Y-109504784D01*
X144303055Y-109495823D01*
X144300006Y-109487377D01*
X144299407Y-109484486D01*
X144295178Y-109467520D01*
X144294352Y-109464695D01*
X144293080Y-109455813D01*
X144273478Y-109412702D01*
X144269672Y-109403351D01*
X144256645Y-109367265D01*
X144253596Y-109358819D01*
X144248301Y-109351571D01*
X144246920Y-109348973D01*
X144238085Y-109333855D01*
X144236506Y-109331386D01*
X144232792Y-109323218D01*
X144201884Y-109287347D01*
X144195599Y-109279431D01*
X144190452Y-109272385D01*
X144190447Y-109272380D01*
X144187575Y-109268448D01*
X144176600Y-109257473D01*
X144170242Y-109250625D01*
X144143576Y-109219677D01*
X144143575Y-109219676D01*
X144137713Y-109212873D01*
X144130178Y-109207989D01*
X144123934Y-109202542D01*
X144112069Y-109192942D01*
X143681837Y-108762710D01*
X143647811Y-108700398D01*
X143645845Y-108688752D01*
X143641188Y-108650273D01*
X143640276Y-108642733D01*
X143584280Y-108494546D01*
X143494553Y-108363992D01*
X143376275Y-108258611D01*
X143368889Y-108254700D01*
X143242988Y-108188039D01*
X143242989Y-108188039D01*
X143236274Y-108184484D01*
X143082633Y-108145892D01*
X143075034Y-108145852D01*
X143075033Y-108145852D01*
X143009181Y-108145507D01*
X142924221Y-108145062D01*
X142916841Y-108146834D01*
X142916839Y-108146834D01*
X142777563Y-108180271D01*
X142777560Y-108180272D01*
X142770184Y-108182043D01*
X142629414Y-108254700D01*
X142510039Y-108358838D01*
X142418950Y-108488444D01*
X142361406Y-108636037D01*
X142360414Y-108643570D01*
X142360414Y-108643571D01*
X142348780Y-108731945D01*
X142340729Y-108793096D01*
X142358113Y-108950553D01*
X142412553Y-109099319D01*
X142416789Y-109105622D01*
X142416789Y-109105623D01*
X142481786Y-109202348D01*
X142500908Y-109230805D01*
X142506527Y-109235918D01*
X142506528Y-109235919D01*
X142558839Y-109283518D01*
X142618076Y-109337419D01*
X142757293Y-109413008D01*
X142883985Y-109446245D01*
X142909462Y-109452929D01*
X142966583Y-109485710D01*
X143254595Y-109773722D01*
X143288621Y-109836034D01*
X143291500Y-109862817D01*
X143291500Y-117828928D01*
X143290145Y-117841058D01*
X143290627Y-117841097D01*
X143289907Y-117850044D01*
X143287926Y-117858800D01*
X143288482Y-117867760D01*
X143291258Y-117912508D01*
X143291500Y-117920310D01*
X143291500Y-117936513D01*
X143292136Y-117940953D01*
X143292984Y-117946878D01*
X143294013Y-117956928D01*
X143296945Y-118004177D01*
X143299994Y-118012623D01*
X143300593Y-118015514D01*
X143304822Y-118032480D01*
X143305648Y-118035305D01*
X143306920Y-118044187D01*
X143326522Y-118087298D01*
X143330327Y-118096647D01*
X143346404Y-118141181D01*
X143351699Y-118148429D01*
X143353080Y-118151027D01*
X143361915Y-118166145D01*
X143363494Y-118168614D01*
X143367208Y-118176782D01*
X143373064Y-118183578D01*
X143398115Y-118212652D01*
X143404401Y-118220569D01*
X143409548Y-118227615D01*
X143409553Y-118227620D01*
X143412425Y-118231552D01*
X143423400Y-118242527D01*
X143429758Y-118249374D01*
X143462287Y-118287127D01*
X143469822Y-118292011D01*
X143476066Y-118297458D01*
X143487931Y-118307058D01*
X147354595Y-122173722D01*
X147388621Y-122236034D01*
X147391500Y-122262817D01*
X147391500Y-126558447D01*
X147371498Y-126626568D01*
X147317842Y-126673061D01*
X147247568Y-126683165D01*
X147181681Y-126652524D01*
X147152549Y-126626568D01*
X147076275Y-126558611D01*
X147068889Y-126554700D01*
X146942988Y-126488039D01*
X146942989Y-126488039D01*
X146936274Y-126484484D01*
X146782633Y-126445892D01*
X146775034Y-126445852D01*
X146775033Y-126445852D01*
X146709181Y-126445507D01*
X146624221Y-126445062D01*
X146616841Y-126446834D01*
X146616839Y-126446834D01*
X146477563Y-126480271D01*
X146477560Y-126480272D01*
X146470184Y-126482043D01*
X146329414Y-126554700D01*
X146322823Y-126560450D01*
X146322063Y-126560800D01*
X146317409Y-126563963D01*
X146316882Y-126563187D01*
X146258343Y-126590157D01*
X146239995Y-126591500D01*
X144062818Y-126591500D01*
X143994697Y-126571498D01*
X143973723Y-126554595D01*
X141445405Y-124026278D01*
X141411380Y-123963966D01*
X141408500Y-123937183D01*
X141408500Y-119454577D01*
X141432178Y-119381051D01*
X141442701Y-119366406D01*
X141477755Y-119317624D01*
X141536842Y-119170641D01*
X141559162Y-119013807D01*
X141559307Y-119000000D01*
X141540276Y-118842733D01*
X141484280Y-118694546D01*
X141394553Y-118563992D01*
X141276275Y-118458611D01*
X141268889Y-118454700D01*
X141142988Y-118388039D01*
X141142989Y-118388039D01*
X141136274Y-118384484D01*
X140982633Y-118345892D01*
X140975034Y-118345852D01*
X140975033Y-118345852D01*
X140909181Y-118345507D01*
X140824221Y-118345062D01*
X140816841Y-118346834D01*
X140816839Y-118346834D01*
X140677563Y-118380271D01*
X140677560Y-118380272D01*
X140670184Y-118382043D01*
X140529414Y-118454700D01*
X140410039Y-118558838D01*
X140318950Y-118688444D01*
X140261406Y-118836037D01*
X140260414Y-118843570D01*
X140260414Y-118843571D01*
X140250355Y-118919982D01*
X140240729Y-118993096D01*
X138628325Y-118993096D01*
X138614584Y-118888720D01*
X138556192Y-118747750D01*
X138463304Y-118626696D01*
X138342250Y-118533808D01*
X138201280Y-118475416D01*
X138193092Y-118474338D01*
X138092067Y-118461038D01*
X138092066Y-118461038D01*
X138087980Y-118460500D01*
X138012020Y-118460500D01*
X138007934Y-118461038D01*
X138007933Y-118461038D01*
X137906908Y-118474338D01*
X137898720Y-118475416D01*
X137757750Y-118533808D01*
X137636696Y-118626696D01*
X137543808Y-118747750D01*
X137485416Y-118888720D01*
X137465500Y-119040000D01*
X137466578Y-119048188D01*
X137483628Y-119177695D01*
X137485416Y-119191280D01*
X137543808Y-119332250D01*
X137636696Y-119453304D01*
X137757750Y-119546192D01*
X137760828Y-119547467D01*
X137808248Y-119597197D01*
X137821686Y-119666910D01*
X137795301Y-119732822D01*
X137739248Y-119773375D01*
X137696967Y-119788722D01*
X137683971Y-119795231D01*
X137549174Y-119883608D01*
X137538022Y-119892932D01*
X137427172Y-120009947D01*
X137418460Y-120021592D01*
X137337506Y-120160965D01*
X137331708Y-120174300D01*
X137284986Y-120328567D01*
X137284708Y-120330113D01*
X135439280Y-120330113D01*
X135440037Y-120324278D01*
X135429487Y-120262881D01*
X135425381Y-120248930D01*
X135362271Y-120100613D01*
X135355071Y-120087988D01*
X135259533Y-119958167D01*
X135249619Y-119947536D01*
X135126775Y-119843172D01*
X135114687Y-119835110D01*
X134971129Y-119761805D01*
X134957504Y-119756738D01*
X134799284Y-119718023D01*
X134788225Y-119716340D01*
X134784679Y-119716120D01*
X134780801Y-119716000D01*
X134545115Y-119716000D01*
X134529876Y-119720475D01*
X134528671Y-119721865D01*
X134527000Y-119729548D01*
X134527000Y-120324885D01*
X134273000Y-120324885D01*
X134273000Y-119734115D01*
X134268525Y-119718876D01*
X134267135Y-119717671D01*
X134259452Y-119716000D01*
X134059637Y-119716000D01*
X134052333Y-119716425D01*
X133932634Y-119730380D01*
X133918481Y-119733725D01*
X133766970Y-119788721D01*
X133753971Y-119795231D01*
X133619174Y-119883608D01*
X133608022Y-119892932D01*
X133497172Y-120009947D01*
X133488463Y-120021589D01*
X133484954Y-120027630D01*
X133433443Y-120076488D01*
X133363694Y-120089742D01*
X133297852Y-120063182D01*
X133256822Y-120005242D01*
X133250000Y-119964344D01*
X133250000Y-112330927D01*
X133270002Y-112262806D01*
X133323658Y-112216313D01*
X133393932Y-112206209D01*
X133458512Y-112235703D01*
X133477482Y-112256245D01*
X133540468Y-112341833D01*
X133550381Y-112352464D01*
X133673225Y-112456828D01*
X133685313Y-112464890D01*
X133828871Y-112538195D01*
X133842496Y-112543262D01*
X134000716Y-112581977D01*
X134011775Y-112583660D01*
X134015321Y-112583880D01*
X134019199Y-112584000D01*
X134254885Y-112584000D01*
X134270124Y-112579525D01*
X134271329Y-112578135D01*
X134273000Y-112570452D01*
X134273000Y-112565885D01*
X134527000Y-112565885D01*
X134531475Y-112581124D01*
X134532865Y-112582329D01*
X134540548Y-112584000D01*
X134740363Y-112584000D01*
X134747667Y-112583575D01*
X134867366Y-112569620D01*
X134881519Y-112566275D01*
X135033030Y-112511279D01*
X135046029Y-112504769D01*
X135180826Y-112416392D01*
X135191978Y-112407068D01*
X135302828Y-112290053D01*
X135311540Y-112278408D01*
X135392494Y-112139035D01*
X135398292Y-112125700D01*
X135443715Y-111975722D01*
X137289963Y-111975722D01*
X137300513Y-112037119D01*
X137304619Y-112051070D01*
X137367729Y-112199387D01*
X137374929Y-112212012D01*
X137470467Y-112341833D01*
X137480381Y-112352464D01*
X137603225Y-112456828D01*
X137615314Y-112464891D01*
X137751135Y-112534245D01*
X137802708Y-112583039D01*
X137819714Y-112651968D01*
X137796754Y-112719150D01*
X137759630Y-112753029D01*
X137757750Y-112753808D01*
X137636696Y-112846696D01*
X137543808Y-112967750D01*
X137485416Y-113108720D01*
X137465500Y-113260000D01*
X137485416Y-113411280D01*
X137543808Y-113552250D01*
X137636696Y-113673304D01*
X137757750Y-113766192D01*
X137898720Y-113824584D01*
X138012020Y-113839500D01*
X138087980Y-113839500D01*
X138201280Y-113824584D01*
X138342250Y-113766192D01*
X138463304Y-113673304D01*
X138556192Y-113552250D01*
X138614584Y-113411280D01*
X138634500Y-113260000D01*
X138614584Y-113108720D01*
X138556192Y-112967750D01*
X138463304Y-112846696D01*
X138404600Y-112801651D01*
X138362734Y-112744314D01*
X138358512Y-112673443D01*
X138393276Y-112611540D01*
X138445807Y-112580793D01*
X138450124Y-112579525D01*
X138451329Y-112578135D01*
X138453000Y-112570452D01*
X138453000Y-112565885D01*
X138707000Y-112565885D01*
X138711475Y-112581124D01*
X138712865Y-112582329D01*
X138720548Y-112584000D01*
X139170363Y-112584000D01*
X139177667Y-112583575D01*
X139297366Y-112569620D01*
X139311519Y-112566275D01*
X139463030Y-112511279D01*
X139476029Y-112504769D01*
X139610826Y-112416392D01*
X139621978Y-112407068D01*
X139732828Y-112290053D01*
X139741540Y-112278408D01*
X139822494Y-112139035D01*
X139828292Y-112125700D01*
X139875014Y-111971433D01*
X139875292Y-111969887D01*
X139872982Y-111959730D01*
X139862073Y-111957000D01*
X138725115Y-111957000D01*
X138709876Y-111961475D01*
X138708671Y-111962865D01*
X138707000Y-111970548D01*
X138707000Y-112565885D01*
X138453000Y-112565885D01*
X138453000Y-111975115D01*
X138448525Y-111959876D01*
X138447135Y-111958671D01*
X138439452Y-111957000D01*
X137304861Y-111957000D01*
X137291899Y-111960806D01*
X137289963Y-111975722D01*
X135443715Y-111975722D01*
X135445014Y-111971433D01*
X135445292Y-111969887D01*
X135442982Y-111959730D01*
X135432073Y-111957000D01*
X134545115Y-111957000D01*
X134529876Y-111961475D01*
X134528671Y-111962865D01*
X134527000Y-111970548D01*
X134527000Y-112565885D01*
X134273000Y-112565885D01*
X134273000Y-111684885D01*
X134527000Y-111684885D01*
X134531475Y-111700124D01*
X134532865Y-111701329D01*
X134540548Y-111703000D01*
X135425139Y-111703000D01*
X135438101Y-111699194D01*
X135439280Y-111690113D01*
X137284708Y-111690113D01*
X137287018Y-111700270D01*
X137297927Y-111703000D01*
X138434885Y-111703000D01*
X138450124Y-111698525D01*
X138451329Y-111697135D01*
X138453000Y-111689452D01*
X138453000Y-111684885D01*
X138707000Y-111684885D01*
X138711475Y-111700124D01*
X138712865Y-111701329D01*
X138720548Y-111703000D01*
X139855139Y-111703000D01*
X139868101Y-111699194D01*
X139870037Y-111684278D01*
X139859487Y-111622881D01*
X139855381Y-111608930D01*
X139792271Y-111460613D01*
X139785071Y-111447988D01*
X139689533Y-111318167D01*
X139679619Y-111307536D01*
X139556775Y-111203172D01*
X139544687Y-111195110D01*
X139401129Y-111121805D01*
X139387504Y-111116738D01*
X139229284Y-111078023D01*
X139218225Y-111076340D01*
X139214679Y-111076120D01*
X139210801Y-111076000D01*
X138725115Y-111076000D01*
X138709876Y-111080475D01*
X138708671Y-111081865D01*
X138707000Y-111089548D01*
X138707000Y-111684885D01*
X138453000Y-111684885D01*
X138453000Y-111094115D01*
X138448525Y-111078876D01*
X138447135Y-111077671D01*
X138439452Y-111076000D01*
X137989637Y-111076000D01*
X137982333Y-111076425D01*
X137862634Y-111090380D01*
X137848481Y-111093725D01*
X137696970Y-111148721D01*
X137683971Y-111155231D01*
X137549174Y-111243608D01*
X137538022Y-111252932D01*
X137427172Y-111369947D01*
X137418460Y-111381592D01*
X137337506Y-111520965D01*
X137331708Y-111534300D01*
X137284986Y-111688567D01*
X137284708Y-111690113D01*
X135439280Y-111690113D01*
X135440037Y-111684278D01*
X135429487Y-111622881D01*
X135425381Y-111608930D01*
X135362271Y-111460613D01*
X135355071Y-111447988D01*
X135259533Y-111318167D01*
X135249619Y-111307536D01*
X135126775Y-111203172D01*
X135114687Y-111195110D01*
X134971129Y-111121805D01*
X134957504Y-111116738D01*
X134799284Y-111078023D01*
X134788225Y-111076340D01*
X134784679Y-111076120D01*
X134780801Y-111076000D01*
X134545115Y-111076000D01*
X134529876Y-111080475D01*
X134528671Y-111081865D01*
X134527000Y-111089548D01*
X134527000Y-111684885D01*
X134273000Y-111684885D01*
X134273000Y-111094115D01*
X134268525Y-111078876D01*
X134267135Y-111077671D01*
X134259452Y-111076000D01*
X134059637Y-111076000D01*
X134052333Y-111076425D01*
X133932634Y-111090380D01*
X133918481Y-111093725D01*
X133766970Y-111148721D01*
X133753971Y-111155231D01*
X133651406Y-111222475D01*
X133583471Y-111243098D01*
X133515170Y-111223718D01*
X133468190Y-111170489D01*
X133457445Y-111100310D01*
X133469623Y-111060754D01*
X135229599Y-107540802D01*
X135277954Y-107488818D01*
X135291794Y-107481715D01*
X136597106Y-106910641D01*
X136611547Y-106904323D01*
X153391525Y-106904323D01*
X153422041Y-107106097D01*
X153492506Y-107297615D01*
X153600041Y-107471051D01*
X153740254Y-107619323D01*
X153745484Y-107622985D01*
X153745485Y-107622986D01*
X153837180Y-107687191D01*
X153907418Y-107736372D01*
X154094703Y-107817418D01*
X154294460Y-107859149D01*
X154299300Y-107859403D01*
X154299303Y-107859403D01*
X154299359Y-107859406D01*
X154301158Y-107859500D01*
X154450997Y-107859500D01*
X154499216Y-107854602D01*
X154596676Y-107844703D01*
X154596678Y-107844703D01*
X154603024Y-107844058D01*
X154797755Y-107783033D01*
X154976238Y-107684098D01*
X155131182Y-107551295D01*
X155256257Y-107390049D01*
X155269994Y-107362132D01*
X155343540Y-107212668D01*
X155343542Y-107212663D01*
X155346355Y-107206946D01*
X155353928Y-107177875D01*
X155396183Y-107015651D01*
X155397794Y-107009467D01*
X155408475Y-106805677D01*
X155377959Y-106603903D01*
X155307494Y-106412385D01*
X155199959Y-106238949D01*
X155059746Y-106090677D01*
X154967238Y-106025902D01*
X154897815Y-105977292D01*
X154897814Y-105977291D01*
X154892582Y-105973628D01*
X154705297Y-105892582D01*
X154505540Y-105850851D01*
X154500700Y-105850597D01*
X154500697Y-105850597D01*
X154500641Y-105850594D01*
X154498842Y-105850500D01*
X154349003Y-105850500D01*
X154300784Y-105855398D01*
X154203324Y-105865297D01*
X154203322Y-105865297D01*
X154196976Y-105865942D01*
X154002245Y-105926967D01*
X153823762Y-106025902D01*
X153668818Y-106158705D01*
X153543743Y-106319951D01*
X153540928Y-106325672D01*
X153456460Y-106497332D01*
X153456458Y-106497337D01*
X153453645Y-106503054D01*
X153402206Y-106700533D01*
X153391525Y-106904323D01*
X136611547Y-106904323D01*
X143226328Y-104010357D01*
X143275839Y-103999797D01*
X146465812Y-103974777D01*
X148755360Y-103956819D01*
X148757339Y-103956819D01*
X153335659Y-103992812D01*
G37*
%TD.AperFunction*%
%TD*%
M02*
