%TF.GenerationSoftware,KiCad,Pcbnew,(6.0.0)*%
%TF.CreationDate,2022-05-29T15:10:23+02:00*%
%TF.ProjectId,DETECTIVE BOYS BADGE,44455445-4354-4495-9645-20424f595320,rev?*%
%TF.SameCoordinates,Original*%
%TF.FileFunction,Copper,L2,Bot*%
%TF.FilePolarity,Positive*%
%FSLAX46Y46*%
G04 Gerber Fmt 4.6, Leading zero omitted, Abs format (unit mm)*
G04 Created by KiCad (PCBNEW (6.0.0)) date 2022-05-29 15:10:23*
%MOMM*%
%LPD*%
G01*
G04 APERTURE LIST*
%TA.AperFunction,ComponentPad*%
%ADD10R,1.700000X1.700000*%
%TD*%
%TA.AperFunction,ComponentPad*%
%ADD11O,1.700000X1.700000*%
%TD*%
%TA.AperFunction,ComponentPad*%
%ADD12O,1.600000X1.000000*%
%TD*%
%TA.AperFunction,ComponentPad*%
%ADD13O,2.100000X1.000000*%
%TD*%
%TA.AperFunction,ViaPad*%
%ADD14C,0.800000*%
%TD*%
%TA.AperFunction,Conductor*%
%ADD15C,0.508000*%
%TD*%
G04 APERTURE END LIST*
D10*
%TO.P,BT1,1,+*%
%TO.N,BAT*%
X139050000Y-124525000D03*
D11*
%TO.P,BT1,2,-*%
%TO.N,GND*%
X136510000Y-124525000D03*
%TD*%
D12*
%TO.P,USB1,S1,SHIELD*%
%TO.N,GND*%
X134400000Y-111830000D03*
D13*
X138580000Y-111830000D03*
X138580000Y-120470000D03*
D12*
X134400000Y-120470000D03*
%TD*%
D14*
%TO.N,VBUS*%
X146700000Y-127100000D03*
X140900000Y-119000000D03*
X138600000Y-134200000D03*
%TO.N,GND*%
X143400000Y-125300000D03*
X158400000Y-120800000D03*
X158883121Y-130983121D03*
X146900000Y-133700000D03*
X169600000Y-132500000D03*
X161500000Y-145700000D03*
X170500000Y-142900000D03*
X150100000Y-133200000D03*
%TO.N,MOSI*%
X168200000Y-123400000D03*
X163400000Y-124100000D03*
%TO.N,MISO*%
X169600000Y-123600000D03*
X162200000Y-125000000D03*
%TO.N,SCK*%
X161400000Y-125700000D03*
X166700000Y-123200000D03*
%TO.N,CSN*%
X165300000Y-136000000D03*
X162100000Y-138900000D03*
%TO.N,Net-(R4-Pad2)*%
X146700000Y-128700000D03*
X143000000Y-108800000D03*
%TO.N,AUDIO_R*%
X159800000Y-138900000D03*
X147400000Y-117100000D03*
%TO.N,A0*%
X155800000Y-130600000D03*
X155800000Y-147500000D03*
%TO.N,A1*%
X167900000Y-137000000D03*
X162300000Y-136700000D03*
X157200000Y-150100000D03*
%TO.N,AUDIO_L*%
X160800000Y-138700000D03*
X148600000Y-117000000D03*
%TD*%
D15*
%TO.N,VBUS*%
X146700000Y-127100000D02*
X143800000Y-127100000D01*
X143800000Y-127100000D02*
X140900000Y-124200000D01*
X143800000Y-127100000D02*
X138600000Y-132300000D01*
X140900000Y-124200000D02*
X140900000Y-119000000D01*
X138600000Y-132300000D02*
X138600000Y-134200000D01*
%TO.N,MOSI*%
X163400000Y-124100000D02*
X167500000Y-124100000D01*
X167500000Y-124100000D02*
X168200000Y-123400000D01*
%TO.N,MISO*%
X169600000Y-123900000D02*
X169600000Y-123600000D01*
X168500000Y-125000000D02*
X168600000Y-124900000D01*
X162200000Y-125000000D02*
X168500000Y-125000000D01*
X168600000Y-124900000D02*
X169600000Y-123900000D01*
%TO.N,SCK*%
X162400000Y-123200000D02*
X166700000Y-123200000D01*
X161346489Y-124253511D02*
X162400000Y-123200000D01*
X161400000Y-125700000D02*
X161346489Y-125646489D01*
X161346489Y-125646489D02*
X161346489Y-124253511D01*
%TO.N,CSN*%
X165300000Y-136000000D02*
X165000000Y-136000000D01*
X165000000Y-136000000D02*
X162100000Y-138900000D01*
%TO.N,Net-(R4-Pad2)*%
X147900000Y-127500000D02*
X147900000Y-126800000D01*
X143800000Y-109700000D02*
X143800000Y-109600000D01*
X147900000Y-122000000D02*
X143900000Y-118000000D01*
X146700000Y-128700000D02*
X147900000Y-127500000D01*
X143800000Y-117900000D02*
X143800000Y-109700000D01*
X147900000Y-126800000D02*
X147900000Y-122000000D01*
X143800000Y-109600000D02*
X143000000Y-108800000D01*
X143900000Y-118000000D02*
X143800000Y-117900000D01*
%TO.N,AUDIO_R*%
X159800000Y-129500000D02*
X159800000Y-138900000D01*
X147400000Y-117100000D02*
X159800000Y-129500000D01*
%TO.N,A0*%
X155800000Y-130600000D02*
X155800000Y-147500000D01*
%TO.N,A1*%
X167900000Y-137000000D02*
X167900000Y-137900000D01*
X162300000Y-136700000D02*
X164000000Y-135000000D01*
X157200000Y-148600000D02*
X157200000Y-150100000D01*
X164000000Y-135000000D02*
X166500000Y-135000000D01*
X167900000Y-137900000D02*
X157200000Y-148600000D01*
X166500000Y-135000000D02*
X167900000Y-136400000D01*
X167900000Y-136400000D02*
X167900000Y-137000000D01*
%TO.N,AUDIO_L*%
X148600000Y-117000000D02*
X148607048Y-117000000D01*
X160800000Y-129192952D02*
X160800000Y-138700000D01*
X148607048Y-117000000D02*
X160800000Y-129192952D01*
%TD*%
%TA.AperFunction,Conductor*%
%TO.N,GND*%
G36*
X153335659Y-103992812D02*
G01*
X154210828Y-103999692D01*
X154282093Y-104022465D01*
X159084755Y-107384328D01*
X159196256Y-107462379D01*
X159240593Y-107517830D01*
X159250000Y-107565602D01*
X159250000Y-117750000D01*
X160750000Y-119250000D01*
X170447810Y-119250000D01*
X170515931Y-119270002D01*
X170536905Y-119286905D01*
X171713095Y-120463095D01*
X171747121Y-120525407D01*
X171750000Y-120552190D01*
X171750000Y-124105261D01*
X171729998Y-124173382D01*
X171718987Y-124188046D01*
X171673707Y-124239992D01*
X171667821Y-124246294D01*
X171659343Y-124254769D01*
X171649023Y-124261663D01*
X171642127Y-124271980D01*
X171642125Y-124271982D01*
X171634444Y-124283473D01*
X171631756Y-124286989D01*
X171631867Y-124287068D01*
X171628279Y-124292106D01*
X171624214Y-124296771D01*
X171621138Y-124302136D01*
X171618255Y-124307164D01*
X171613704Y-124314506D01*
X171592873Y-124345673D01*
X171591117Y-124354496D01*
X171586640Y-124362304D01*
X171585057Y-124374612D01*
X171585057Y-124374613D01*
X171581857Y-124399496D01*
X171580462Y-124408019D01*
X171578125Y-124419760D01*
X171578124Y-124425946D01*
X171577516Y-124432114D01*
X171577379Y-124432101D01*
X171577096Y-124436523D01*
X171573752Y-124462526D01*
X171577001Y-124474506D01*
X171577820Y-124486455D01*
X171578115Y-124495085D01*
X171577733Y-127280675D01*
X171577200Y-131171818D01*
X171557189Y-131239936D01*
X171549594Y-131250508D01*
X171124002Y-131782498D01*
X171089643Y-131812302D01*
X170872293Y-131940542D01*
X170863518Y-131944340D01*
X170863650Y-131944594D01*
X170852644Y-131950328D01*
X170840732Y-131953804D01*
X170831057Y-131961574D01*
X170831053Y-131961576D01*
X170818752Y-131971455D01*
X170814917Y-131974395D01*
X170809766Y-131977434D01*
X170805150Y-131981560D01*
X170798594Y-131987419D01*
X170793529Y-131991711D01*
X170771622Y-132009305D01*
X170761946Y-132017076D01*
X170758614Y-132023154D01*
X170753444Y-132027775D01*
X170748062Y-132038954D01*
X170735878Y-132064260D01*
X170732838Y-132070170D01*
X170713370Y-132105681D01*
X170712617Y-132112574D01*
X170709610Y-132118820D01*
X170708915Y-132131210D01*
X170708915Y-132131211D01*
X170707344Y-132159234D01*
X170706799Y-132165849D01*
X170705169Y-132180775D01*
X170705693Y-132186738D01*
X170705531Y-132191578D01*
X170703954Y-132219709D01*
X170708054Y-132231422D01*
X170709789Y-132243708D01*
X170709505Y-132243748D01*
X170711517Y-132253087D01*
X170750903Y-132701693D01*
X170762391Y-132832540D01*
X170762844Y-132840822D01*
X170849511Y-136827536D01*
X170849541Y-136830504D01*
X170848970Y-137143003D01*
X170848846Y-137210604D01*
X170848798Y-137210846D01*
X170848800Y-137235989D01*
X170848755Y-137260398D01*
X170848801Y-137260633D01*
X170848871Y-138299785D01*
X170848832Y-138299981D01*
X170848872Y-138324982D01*
X170848874Y-138349622D01*
X170848912Y-138349815D01*
X170850693Y-139452623D01*
X170850656Y-139452810D01*
X170850658Y-139453375D01*
X170850730Y-139476444D01*
X170850733Y-139477503D01*
X170850773Y-139502465D01*
X170850810Y-139502650D01*
X170850811Y-139502665D01*
X170851945Y-139867729D01*
X170854140Y-140574443D01*
X170854095Y-140574677D01*
X170854218Y-140599393D01*
X170854295Y-140624237D01*
X170854342Y-140624472D01*
X170859043Y-141570416D01*
X170859013Y-141570573D01*
X170859016Y-141571033D01*
X170859165Y-141594926D01*
X170859131Y-141594926D01*
X170859166Y-141595086D01*
X170859291Y-141620283D01*
X170859324Y-141620446D01*
X170873463Y-143885984D01*
X170849995Y-143960006D01*
X170633729Y-144262778D01*
X170601318Y-144294229D01*
X170598274Y-144296268D01*
X170488551Y-144369759D01*
X170485861Y-144371460D01*
X170481075Y-144373710D01*
X170476089Y-144377390D01*
X170476088Y-144377391D01*
X170467941Y-144383404D01*
X170463231Y-144386717D01*
X170454799Y-144392365D01*
X170449657Y-144395809D01*
X170445923Y-144399551D01*
X170443361Y-144401548D01*
X170245573Y-144547543D01*
X170245256Y-144547737D01*
X170242709Y-144548425D01*
X170237300Y-144552594D01*
X170237299Y-144552594D01*
X170205791Y-144576875D01*
X170203707Y-144578447D01*
X170186760Y-144590956D01*
X170184977Y-144592915D01*
X170182874Y-144594535D01*
X170179036Y-144598930D01*
X170168982Y-144610442D01*
X170167294Y-144612335D01*
X170135903Y-144646812D01*
X170135008Y-144649296D01*
X170134793Y-144649590D01*
X169967474Y-144841180D01*
X169953550Y-144854830D01*
X169937434Y-144868349D01*
X169931701Y-144879358D01*
X169917728Y-144906191D01*
X169915237Y-144910742D01*
X169893978Y-144947742D01*
X169892384Y-144960049D01*
X169892383Y-144960051D01*
X169891276Y-144968598D01*
X169887281Y-144987685D01*
X169825890Y-145198193D01*
X169824456Y-145202187D01*
X169819390Y-145209561D01*
X169816812Y-145221701D01*
X169811836Y-145245135D01*
X169809548Y-145254230D01*
X169806509Y-145264649D01*
X169805968Y-145270820D01*
X169805355Y-145274089D01*
X169804986Y-145277394D01*
X169803699Y-145283454D01*
X169803558Y-145294330D01*
X169803089Y-145303664D01*
X169799914Y-145339901D01*
X169802602Y-145348430D01*
X169802806Y-145352666D01*
X169802350Y-145387944D01*
X169778892Y-145459551D01*
X169750000Y-145500000D01*
X169750000Y-146000000D01*
X169760827Y-146007218D01*
X169760828Y-146007219D01*
X171943892Y-147462595D01*
X171989477Y-147517024D01*
X172000000Y-147567433D01*
X172000000Y-152677629D01*
X171979998Y-152745750D01*
X171937488Y-152786465D01*
X169102654Y-154440118D01*
X169045046Y-154457145D01*
X168574446Y-154479129D01*
X168254311Y-154494083D01*
X168252858Y-154494143D01*
X168089648Y-154499794D01*
X168085863Y-154499925D01*
X168081503Y-154500000D01*
X140985702Y-154500000D01*
X140979796Y-154499862D01*
X140508915Y-154477766D01*
X140437465Y-154451362D01*
X140423009Y-154440118D01*
X135680216Y-150751279D01*
X133798643Y-149287833D01*
X133757152Y-149230223D01*
X133750000Y-149188375D01*
X133750000Y-147493096D01*
X155140729Y-147493096D01*
X155158113Y-147650553D01*
X155160723Y-147657684D01*
X155160723Y-147657686D01*
X155186149Y-147727165D01*
X155212553Y-147799319D01*
X155300908Y-147930805D01*
X155306527Y-147935918D01*
X155306528Y-147935919D01*
X155317903Y-147946269D01*
X155418076Y-148037419D01*
X155557293Y-148113008D01*
X155710522Y-148153207D01*
X155794477Y-148154526D01*
X155861319Y-148155576D01*
X155861322Y-148155576D01*
X155868916Y-148155695D01*
X156023332Y-148120329D01*
X156093742Y-148084917D01*
X156158072Y-148052563D01*
X156158075Y-148052561D01*
X156164855Y-148049151D01*
X156170626Y-148044222D01*
X156170629Y-148044220D01*
X156279536Y-147951204D01*
X156279536Y-147951203D01*
X156285314Y-147946269D01*
X156377755Y-147817624D01*
X156436842Y-147670641D01*
X156459162Y-147513807D01*
X156459307Y-147500000D01*
X156440276Y-147342733D01*
X156384280Y-147194546D01*
X156330660Y-147116528D01*
X156308500Y-147045161D01*
X156308500Y-131054577D01*
X156332178Y-130981051D01*
X156342701Y-130966406D01*
X156377755Y-130917624D01*
X156436842Y-130770641D01*
X156459162Y-130613807D01*
X156459307Y-130600000D01*
X156440276Y-130442733D01*
X156384280Y-130294546D01*
X156294553Y-130163992D01*
X156176275Y-130058611D01*
X156168889Y-130054700D01*
X156042988Y-129988039D01*
X156042989Y-129988039D01*
X156036274Y-129984484D01*
X155882633Y-129945892D01*
X155875034Y-129945852D01*
X155875033Y-129945852D01*
X155809181Y-129945507D01*
X155724221Y-129945062D01*
X155716841Y-129946834D01*
X155716839Y-129946834D01*
X155577563Y-129980271D01*
X155577560Y-129980272D01*
X155570184Y-129982043D01*
X155429414Y-130054700D01*
X155310039Y-130158838D01*
X155218950Y-130288444D01*
X155161406Y-130436037D01*
X155160414Y-130443570D01*
X155160414Y-130443571D01*
X155152374Y-130504646D01*
X155140729Y-130593096D01*
X155158113Y-130750553D01*
X155212553Y-130899319D01*
X155216790Y-130905625D01*
X155216792Y-130905628D01*
X155270081Y-130984929D01*
X155291500Y-131055205D01*
X155291500Y-147045367D01*
X155268587Y-147117818D01*
X155218950Y-147188444D01*
X155161406Y-147336037D01*
X155140729Y-147493096D01*
X133750000Y-147493096D01*
X133750000Y-141442044D01*
X133770002Y-141373923D01*
X133780148Y-141361139D01*
X133779940Y-141360973D01*
X133783797Y-141356129D01*
X133788109Y-141351687D01*
X133791473Y-141346487D01*
X133791584Y-141346348D01*
X133798731Y-141336427D01*
X133810669Y-141321487D01*
X133810671Y-141321482D01*
X133818417Y-141311789D01*
X133821636Y-141300655D01*
X133822374Y-141299385D01*
X133822850Y-141297994D01*
X133829145Y-141288264D01*
X133834839Y-141257248D01*
X133837725Y-141245008D01*
X133843036Y-141226639D01*
X133843036Y-141226635D01*
X133846482Y-141214717D01*
X133845195Y-141203198D01*
X133845390Y-141201743D01*
X133845298Y-141200278D01*
X133847391Y-141188877D01*
X133840783Y-141158046D01*
X133838765Y-141145633D01*
X133836642Y-141126625D01*
X133836641Y-141126623D01*
X133835264Y-141114294D01*
X133829666Y-141104143D01*
X133829290Y-141102725D01*
X133828645Y-141101409D01*
X133826215Y-141090073D01*
X133808313Y-141064120D01*
X133801871Y-141053705D01*
X133801775Y-141053565D01*
X133798786Y-141048145D01*
X133794793Y-141043407D01*
X133794485Y-141043041D01*
X133787116Y-141033389D01*
X133772283Y-141011886D01*
X133750000Y-140940341D01*
X133750000Y-140750000D01*
X133626583Y-140599156D01*
X131528481Y-138034810D01*
X131500825Y-137969421D01*
X131500000Y-137955022D01*
X131500000Y-136181568D01*
X132540029Y-136181568D01*
X132541801Y-136188948D01*
X132541801Y-136188950D01*
X132576174Y-136332123D01*
X132579835Y-136347373D01*
X132658042Y-136498896D01*
X132663034Y-136504618D01*
X132663035Y-136504620D01*
X132746362Y-136600139D01*
X132770135Y-136627391D01*
X132909643Y-136725438D01*
X133005512Y-136762816D01*
X133061431Y-136784618D01*
X133061434Y-136784619D01*
X133068511Y-136787378D01*
X133076044Y-136788370D01*
X133076045Y-136788370D01*
X133194477Y-136803962D01*
X133194478Y-136803962D01*
X133198564Y-136804500D01*
X133287756Y-136804500D01*
X133414281Y-136789189D01*
X133573789Y-136728916D01*
X133614922Y-136700646D01*
X133708057Y-136636636D01*
X133708058Y-136636635D01*
X133714316Y-136632334D01*
X133719369Y-136626663D01*
X133822695Y-136510693D01*
X133822697Y-136510690D01*
X133827748Y-136505021D01*
X133852166Y-136458903D01*
X133903984Y-136361037D01*
X133903985Y-136361035D01*
X133907538Y-136354324D01*
X133910364Y-136343072D01*
X133947227Y-136196317D01*
X133947227Y-136196313D01*
X133949078Y-136188946D01*
X133949157Y-136173974D01*
X133949647Y-136080271D01*
X133949971Y-136018432D01*
X133948199Y-136011050D01*
X133911937Y-135860006D01*
X133911936Y-135860002D01*
X133910165Y-135852627D01*
X133861728Y-135758782D01*
X133835441Y-135707852D01*
X133835441Y-135707851D01*
X133831958Y-135701104D01*
X133764031Y-135623237D01*
X133724861Y-135578336D01*
X133719865Y-135572609D01*
X133580357Y-135474562D01*
X133484488Y-135437184D01*
X133428569Y-135415382D01*
X133428566Y-135415381D01*
X133421489Y-135412622D01*
X133413956Y-135411630D01*
X133413955Y-135411630D01*
X133295523Y-135396038D01*
X133295522Y-135396038D01*
X133291436Y-135395500D01*
X133202244Y-135395500D01*
X133075719Y-135410811D01*
X132916211Y-135471084D01*
X132909953Y-135475385D01*
X132788833Y-135558629D01*
X132775684Y-135567666D01*
X132770632Y-135573336D01*
X132770631Y-135573337D01*
X132667305Y-135689307D01*
X132667303Y-135689310D01*
X132662252Y-135694979D01*
X132658697Y-135701692D01*
X132658697Y-135701693D01*
X132587781Y-135835631D01*
X132582462Y-135845676D01*
X132580612Y-135853041D01*
X132543109Y-136002348D01*
X132540922Y-136011054D01*
X132540882Y-136018653D01*
X132540882Y-136018655D01*
X132540550Y-136082043D01*
X132540029Y-136181568D01*
X131500000Y-136181568D01*
X131500000Y-134193096D01*
X137940729Y-134193096D01*
X137958113Y-134350553D01*
X137960723Y-134357684D01*
X137960723Y-134357686D01*
X138009692Y-134491500D01*
X138012553Y-134499319D01*
X138016789Y-134505622D01*
X138016789Y-134505623D01*
X138092166Y-134617795D01*
X138100908Y-134630805D01*
X138106527Y-134635918D01*
X138106528Y-134635919D01*
X138166728Y-134690696D01*
X138218076Y-134737419D01*
X138357293Y-134813008D01*
X138510522Y-134853207D01*
X138594477Y-134854526D01*
X138661319Y-134855576D01*
X138661322Y-134855576D01*
X138668916Y-134855695D01*
X138823332Y-134820329D01*
X138898313Y-134782618D01*
X138958072Y-134752563D01*
X138958075Y-134752561D01*
X138964855Y-134749151D01*
X138970626Y-134744222D01*
X138970629Y-134744220D01*
X139079536Y-134651204D01*
X139079536Y-134651203D01*
X139085314Y-134646269D01*
X139177755Y-134517624D01*
X139236842Y-134370641D01*
X139259162Y-134213807D01*
X139259307Y-134200000D01*
X139240276Y-134042733D01*
X139184280Y-133894546D01*
X139130660Y-133816528D01*
X139108500Y-133745161D01*
X139108500Y-132562817D01*
X139128502Y-132494696D01*
X139145405Y-132473722D01*
X143973723Y-127645405D01*
X144036035Y-127611379D01*
X144062818Y-127608500D01*
X146238747Y-127608500D01*
X146311737Y-127631795D01*
X146312460Y-127632309D01*
X146318076Y-127637419D01*
X146324746Y-127641040D01*
X146324748Y-127641042D01*
X146350093Y-127654803D01*
X146457293Y-127713008D01*
X146610522Y-127753207D01*
X146625237Y-127753438D01*
X146693035Y-127774506D01*
X146738680Y-127828885D01*
X146747680Y-127899309D01*
X146712354Y-127968517D01*
X146664599Y-128016272D01*
X146604918Y-128049696D01*
X146477564Y-128080271D01*
X146477562Y-128080272D01*
X146470184Y-128082043D01*
X146329414Y-128154700D01*
X146210039Y-128258838D01*
X146118950Y-128388444D01*
X146061406Y-128536037D01*
X146060414Y-128543570D01*
X146060414Y-128543571D01*
X146048762Y-128632082D01*
X146040729Y-128693096D01*
X146058113Y-128850553D01*
X146060723Y-128857684D01*
X146060723Y-128857686D01*
X146091550Y-128941924D01*
X146112553Y-128999319D01*
X146116789Y-129005622D01*
X146116789Y-129005623D01*
X146178687Y-129097736D01*
X146200908Y-129130805D01*
X146206527Y-129135918D01*
X146206528Y-129135919D01*
X146251174Y-129176543D01*
X146318076Y-129237419D01*
X146457293Y-129313008D01*
X146610522Y-129353207D01*
X146694477Y-129354526D01*
X146761319Y-129355576D01*
X146761322Y-129355576D01*
X146768916Y-129355695D01*
X146923332Y-129320329D01*
X146993742Y-129284917D01*
X147058072Y-129252563D01*
X147058075Y-129252561D01*
X147064855Y-129249151D01*
X147070626Y-129244222D01*
X147070629Y-129244220D01*
X147179536Y-129151204D01*
X147179536Y-129151203D01*
X147185314Y-129146269D01*
X147277755Y-129017624D01*
X147336842Y-128870641D01*
X147345580Y-128809240D01*
X147374980Y-128744618D01*
X147381228Y-128737899D01*
X148209304Y-127909823D01*
X148218844Y-127902200D01*
X148218530Y-127901832D01*
X148225366Y-127896014D01*
X148232958Y-127891224D01*
X148268593Y-127850875D01*
X148273939Y-127845188D01*
X148285382Y-127833745D01*
X148291659Y-127825370D01*
X148298033Y-127817541D01*
X148329378Y-127782049D01*
X148333192Y-127773926D01*
X148334826Y-127771438D01*
X148343814Y-127756477D01*
X148345230Y-127753891D01*
X148350616Y-127746705D01*
X148367244Y-127702350D01*
X148371164Y-127693048D01*
X148391281Y-127650200D01*
X148392662Y-127641334D01*
X148393518Y-127638533D01*
X148397962Y-127621596D01*
X148398595Y-127618716D01*
X148401744Y-127610316D01*
X148403647Y-127584715D01*
X148405252Y-127563111D01*
X148406406Y-127553063D01*
X148407750Y-127544429D01*
X148408500Y-127539614D01*
X148408500Y-127524077D01*
X148408847Y-127514739D01*
X148411874Y-127474010D01*
X148411874Y-127474009D01*
X148412539Y-127465059D01*
X148410666Y-127456284D01*
X148410103Y-127448027D01*
X148408500Y-127432838D01*
X148408500Y-122071073D01*
X148409855Y-122058944D01*
X148409373Y-122058905D01*
X148410093Y-122049954D01*
X148412074Y-122041200D01*
X148408742Y-121987491D01*
X148408500Y-121979689D01*
X148408500Y-121963487D01*
X148407016Y-121953122D01*
X148405987Y-121943072D01*
X148403611Y-121904781D01*
X148403611Y-121904780D01*
X148403055Y-121895822D01*
X148400007Y-121887381D01*
X148399404Y-121884467D01*
X148395185Y-121867548D01*
X148394353Y-121864702D01*
X148393080Y-121855813D01*
X148373474Y-121812691D01*
X148369666Y-121803335D01*
X148356643Y-121767263D01*
X148353595Y-121758819D01*
X148348300Y-121751571D01*
X148346914Y-121748964D01*
X148338099Y-121733877D01*
X148336506Y-121731386D01*
X148332792Y-121723218D01*
X148301882Y-121687345D01*
X148295604Y-121679438D01*
X148290447Y-121672378D01*
X148290446Y-121672376D01*
X148287575Y-121668447D01*
X148276600Y-121657472D01*
X148270242Y-121650624D01*
X148243576Y-121619676D01*
X148243571Y-121619672D01*
X148237713Y-121612873D01*
X148230181Y-121607991D01*
X148223930Y-121602538D01*
X148212074Y-121592946D01*
X144345405Y-117726278D01*
X144311379Y-117663966D01*
X144308500Y-117637183D01*
X144308500Y-117093096D01*
X146740729Y-117093096D01*
X146741563Y-117100646D01*
X146754309Y-117216095D01*
X146758113Y-117250553D01*
X146812553Y-117399319D01*
X146900908Y-117530805D01*
X147018076Y-117637419D01*
X147157293Y-117713008D01*
X147283985Y-117746245D01*
X147309462Y-117752929D01*
X147366583Y-117785710D01*
X159254595Y-129673722D01*
X159288621Y-129736034D01*
X159291500Y-129762817D01*
X159291500Y-138445367D01*
X159268587Y-138517818D01*
X159218950Y-138588444D01*
X159161406Y-138736037D01*
X159160414Y-138743570D01*
X159160414Y-138743571D01*
X159158107Y-138761099D01*
X159140729Y-138893096D01*
X159158113Y-139050553D01*
X159160723Y-139057684D01*
X159160723Y-139057686D01*
X159194945Y-139151201D01*
X159212553Y-139199319D01*
X159216789Y-139205622D01*
X159216789Y-139205623D01*
X159274315Y-139291230D01*
X159300908Y-139330805D01*
X159306527Y-139335918D01*
X159306528Y-139335919D01*
X159325658Y-139353326D01*
X159418076Y-139437419D01*
X159557293Y-139513008D01*
X159710522Y-139553207D01*
X159794477Y-139554526D01*
X159861319Y-139555576D01*
X159861322Y-139555576D01*
X159868916Y-139555695D01*
X160023332Y-139520329D01*
X160108859Y-139477314D01*
X160158072Y-139452563D01*
X160158075Y-139452561D01*
X160164855Y-139449151D01*
X160170626Y-139444222D01*
X160170629Y-139444220D01*
X160279536Y-139351204D01*
X160279536Y-139351203D01*
X160285314Y-139346269D01*
X160314018Y-139306323D01*
X160370012Y-139262677D01*
X160440715Y-139256231D01*
X160476461Y-139269120D01*
X160550620Y-139309385D01*
X160557293Y-139313008D01*
X160710522Y-139353207D01*
X160794477Y-139354526D01*
X160861319Y-139355576D01*
X160861322Y-139355576D01*
X160868916Y-139355695D01*
X161023332Y-139320329D01*
X161125151Y-139269120D01*
X161158072Y-139252563D01*
X161158075Y-139252561D01*
X161164855Y-139249151D01*
X161170626Y-139244222D01*
X161170629Y-139244220D01*
X161279540Y-139151201D01*
X161279542Y-139151199D01*
X161285314Y-139146269D01*
X161289747Y-139140099D01*
X161293625Y-139135882D01*
X161354456Y-139099275D01*
X161425422Y-139101368D01*
X161483991Y-139141495D01*
X161504701Y-139177863D01*
X161512553Y-139199319D01*
X161516789Y-139205622D01*
X161516789Y-139205623D01*
X161574315Y-139291230D01*
X161600908Y-139330805D01*
X161606527Y-139335918D01*
X161606528Y-139335919D01*
X161625658Y-139353326D01*
X161718076Y-139437419D01*
X161857293Y-139513008D01*
X162010522Y-139553207D01*
X162094477Y-139554526D01*
X162161319Y-139555576D01*
X162161322Y-139555576D01*
X162168916Y-139555695D01*
X162323332Y-139520329D01*
X162408859Y-139477314D01*
X162458072Y-139452563D01*
X162458075Y-139452561D01*
X162464855Y-139449151D01*
X162470626Y-139444222D01*
X162470629Y-139444220D01*
X162579536Y-139351204D01*
X162579536Y-139351203D01*
X162585314Y-139346269D01*
X162677755Y-139217624D01*
X162736842Y-139070641D01*
X162745580Y-139009240D01*
X162774980Y-138944618D01*
X162781228Y-138937899D01*
X165044842Y-136674285D01*
X165107154Y-136640259D01*
X165165909Y-136641504D01*
X165203168Y-136651278D01*
X165203170Y-136651278D01*
X165210522Y-136653207D01*
X165294477Y-136654526D01*
X165361319Y-136655576D01*
X165361322Y-136655576D01*
X165368916Y-136655695D01*
X165523332Y-136620329D01*
X165594998Y-136584285D01*
X165658072Y-136552563D01*
X165658075Y-136552561D01*
X165664855Y-136549151D01*
X165670626Y-136544222D01*
X165670629Y-136544220D01*
X165779536Y-136451204D01*
X165779536Y-136451203D01*
X165785314Y-136446269D01*
X165877755Y-136317624D01*
X165936842Y-136170641D01*
X165949823Y-136079431D01*
X165958581Y-136017891D01*
X165958581Y-136017888D01*
X165959162Y-136013807D01*
X165959307Y-136000000D01*
X165940276Y-135842733D01*
X165884280Y-135694546D01*
X165882069Y-135691330D01*
X165868543Y-135623237D01*
X165894555Y-135557177D01*
X165952151Y-135515666D01*
X165994039Y-135508500D01*
X166237183Y-135508500D01*
X166305304Y-135528502D01*
X166326278Y-135545405D01*
X167306119Y-136525246D01*
X167340145Y-136587558D01*
X167335080Y-136658373D01*
X167326232Y-136675171D01*
X167326908Y-136675534D01*
X167323320Y-136682227D01*
X167318950Y-136688444D01*
X167316190Y-136695524D01*
X167269763Y-136814603D01*
X167261406Y-136836037D01*
X167260414Y-136843570D01*
X167260414Y-136843571D01*
X167255922Y-136877695D01*
X167240729Y-136993096D01*
X167244119Y-137023798D01*
X167257228Y-137142535D01*
X167258113Y-137150553D01*
X167312553Y-137299319D01*
X167316790Y-137305625D01*
X167316792Y-137305628D01*
X167370081Y-137384929D01*
X167391500Y-137455205D01*
X167391500Y-137637182D01*
X167371498Y-137705303D01*
X167354595Y-137726277D01*
X156890696Y-148190177D01*
X156881156Y-148197800D01*
X156881470Y-148198168D01*
X156874634Y-148203986D01*
X156867042Y-148208776D01*
X156861100Y-148215504D01*
X156831407Y-148249125D01*
X156826061Y-148254812D01*
X156814618Y-148266255D01*
X156808978Y-148273780D01*
X156808341Y-148274630D01*
X156801967Y-148282459D01*
X156770622Y-148317951D01*
X156766808Y-148326074D01*
X156765174Y-148328562D01*
X156756186Y-148343523D01*
X156754771Y-148346108D01*
X156749384Y-148353295D01*
X156746233Y-148361701D01*
X156732759Y-148397642D01*
X156728833Y-148406958D01*
X156708719Y-148449800D01*
X156707338Y-148458669D01*
X156706472Y-148461502D01*
X156702042Y-148478389D01*
X156701408Y-148481274D01*
X156698255Y-148489684D01*
X156697590Y-148498639D01*
X156694746Y-148536906D01*
X156693592Y-148546952D01*
X156691500Y-148560386D01*
X156691500Y-148575906D01*
X156691154Y-148585243D01*
X156687461Y-148634941D01*
X156689335Y-148643720D01*
X156689898Y-148651978D01*
X156691500Y-148667161D01*
X156691500Y-149645367D01*
X156668587Y-149717818D01*
X156618950Y-149788444D01*
X156616190Y-149795524D01*
X156576905Y-149896285D01*
X156561406Y-149936037D01*
X156560414Y-149943570D01*
X156560414Y-149943571D01*
X156549329Y-150027775D01*
X156540729Y-150093096D01*
X156558113Y-150250553D01*
X156612553Y-150399319D01*
X156700908Y-150530805D01*
X156706527Y-150535918D01*
X156706528Y-150535919D01*
X156717903Y-150546269D01*
X156818076Y-150637419D01*
X156957293Y-150713008D01*
X157110522Y-150753207D01*
X157194477Y-150754526D01*
X157261319Y-150755576D01*
X157261322Y-150755576D01*
X157268916Y-150755695D01*
X157423332Y-150720329D01*
X157493742Y-150684917D01*
X157558072Y-150652563D01*
X157558075Y-150652561D01*
X157564855Y-150649151D01*
X157570626Y-150644222D01*
X157570629Y-150644220D01*
X157679536Y-150551204D01*
X157679536Y-150551203D01*
X157685314Y-150546269D01*
X157777755Y-150417624D01*
X157836842Y-150270641D01*
X157859162Y-150113807D01*
X157859307Y-150100000D01*
X157858796Y-150095773D01*
X157841188Y-149950273D01*
X157840276Y-149942733D01*
X157784280Y-149794546D01*
X157730660Y-149716528D01*
X157708500Y-149645161D01*
X157708500Y-148862817D01*
X157728502Y-148794696D01*
X157745405Y-148773722D01*
X168209304Y-138309823D01*
X168218844Y-138302200D01*
X168218530Y-138301832D01*
X168225366Y-138296014D01*
X168232958Y-138291224D01*
X168268593Y-138250875D01*
X168273939Y-138245188D01*
X168285382Y-138233745D01*
X168291659Y-138225370D01*
X168298033Y-138217541D01*
X168329378Y-138182049D01*
X168333192Y-138173926D01*
X168334826Y-138171438D01*
X168343814Y-138156477D01*
X168345229Y-138153892D01*
X168350616Y-138146705D01*
X168367241Y-138102357D01*
X168371168Y-138093040D01*
X168387466Y-138058326D01*
X168391281Y-138050200D01*
X168392662Y-138041331D01*
X168393528Y-138038498D01*
X168397958Y-138021611D01*
X168398592Y-138018726D01*
X168401745Y-138010316D01*
X168405254Y-137963094D01*
X168406408Y-137953048D01*
X168407751Y-137944425D01*
X168407751Y-137944422D01*
X168408500Y-137939614D01*
X168408500Y-137924094D01*
X168408846Y-137914757D01*
X168411874Y-137874007D01*
X168412539Y-137865059D01*
X168410665Y-137856281D01*
X168410102Y-137848021D01*
X168408500Y-137832838D01*
X168408500Y-137454577D01*
X168432178Y-137381051D01*
X168450398Y-137355695D01*
X168477755Y-137317624D01*
X168536842Y-137170641D01*
X168559162Y-137013807D01*
X168559307Y-137000000D01*
X168540276Y-136842733D01*
X168484280Y-136694546D01*
X168438126Y-136627391D01*
X168430660Y-136616528D01*
X168408500Y-136545161D01*
X168408500Y-136471072D01*
X168409855Y-136458942D01*
X168409373Y-136458903D01*
X168410093Y-136449956D01*
X168412074Y-136441200D01*
X168408742Y-136387492D01*
X168408500Y-136379690D01*
X168408500Y-136363487D01*
X168407016Y-136353122D01*
X168405987Y-136343072D01*
X168403611Y-136304784D01*
X168403055Y-136295823D01*
X168400006Y-136287377D01*
X168399407Y-136284486D01*
X168395178Y-136267520D01*
X168394352Y-136264695D01*
X168393080Y-136255813D01*
X168373478Y-136212702D01*
X168369672Y-136203351D01*
X168356645Y-136167265D01*
X168353596Y-136158819D01*
X168348301Y-136151571D01*
X168346920Y-136148973D01*
X168338085Y-136133855D01*
X168336506Y-136131386D01*
X168332792Y-136123218D01*
X168301884Y-136087347D01*
X168295599Y-136079431D01*
X168290452Y-136072385D01*
X168290447Y-136072380D01*
X168287575Y-136068448D01*
X168276600Y-136057473D01*
X168270242Y-136050625D01*
X168243576Y-136019677D01*
X168243575Y-136019676D01*
X168237713Y-136012873D01*
X168230178Y-136007989D01*
X168223934Y-136002542D01*
X168212069Y-135992942D01*
X166909823Y-134690696D01*
X166902200Y-134681156D01*
X166901832Y-134681470D01*
X166896014Y-134674634D01*
X166891224Y-134667042D01*
X166850875Y-134631407D01*
X166845188Y-134626061D01*
X166833745Y-134614618D01*
X166825370Y-134608341D01*
X166817541Y-134601967D01*
X166782049Y-134570622D01*
X166773926Y-134566808D01*
X166771438Y-134565174D01*
X166756477Y-134556186D01*
X166753892Y-134554771D01*
X166746705Y-134549384D01*
X166702357Y-134532759D01*
X166693040Y-134528832D01*
X166658326Y-134512534D01*
X166650200Y-134508719D01*
X166641331Y-134507338D01*
X166638498Y-134506472D01*
X166621611Y-134502042D01*
X166618726Y-134501408D01*
X166610316Y-134498255D01*
X166581158Y-134496088D01*
X166563094Y-134494746D01*
X166553048Y-134493592D01*
X166544425Y-134492249D01*
X166544422Y-134492249D01*
X166539614Y-134491500D01*
X166524094Y-134491500D01*
X166514757Y-134491154D01*
X166497854Y-134489898D01*
X166465059Y-134487461D01*
X166456280Y-134489335D01*
X166448022Y-134489898D01*
X166432839Y-134491500D01*
X164071073Y-134491500D01*
X164058944Y-134490145D01*
X164058905Y-134490627D01*
X164049954Y-134489907D01*
X164041200Y-134487926D01*
X163989168Y-134491154D01*
X163987492Y-134491258D01*
X163979690Y-134491500D01*
X163963487Y-134491500D01*
X163954571Y-134492777D01*
X163953122Y-134492984D01*
X163943072Y-134494013D01*
X163905215Y-134496362D01*
X163895823Y-134496945D01*
X163887377Y-134499994D01*
X163884486Y-134500593D01*
X163867520Y-134504822D01*
X163864695Y-134505648D01*
X163855813Y-134506920D01*
X163812702Y-134526522D01*
X163803351Y-134530328D01*
X163767261Y-134543356D01*
X163767258Y-134543357D01*
X163758819Y-134546404D01*
X163751572Y-134551698D01*
X163748972Y-134553081D01*
X163733884Y-134561898D01*
X163731392Y-134563492D01*
X163723218Y-134567208D01*
X163687349Y-134598114D01*
X163679445Y-134604390D01*
X163668447Y-134612425D01*
X163657472Y-134623400D01*
X163650624Y-134629758D01*
X163619676Y-134656424D01*
X163619672Y-134656429D01*
X163612873Y-134662287D01*
X163607991Y-134669819D01*
X163602538Y-134676070D01*
X163592946Y-134687926D01*
X162264600Y-136016272D01*
X162204919Y-136049696D01*
X162077563Y-136080271D01*
X162077560Y-136080272D01*
X162070184Y-136082043D01*
X161929414Y-136154700D01*
X161810039Y-136258838D01*
X161718950Y-136388444D01*
X161701875Y-136432240D01*
X161673499Y-136505021D01*
X161661406Y-136536037D01*
X161660414Y-136543570D01*
X161660414Y-136543571D01*
X161643089Y-136675171D01*
X161640729Y-136693096D01*
X161646417Y-136744618D01*
X161657250Y-136842733D01*
X161658113Y-136850553D01*
X161660723Y-136857684D01*
X161660723Y-136857686D01*
X161707520Y-136985565D01*
X161712553Y-136999319D01*
X161716789Y-137005622D01*
X161716789Y-137005623D01*
X161722289Y-137013807D01*
X161800908Y-137130805D01*
X161806527Y-137135918D01*
X161806528Y-137135919D01*
X161888872Y-137210846D01*
X161918076Y-137237419D01*
X162057293Y-137313008D01*
X162210522Y-137353207D01*
X162294477Y-137354526D01*
X162361319Y-137355576D01*
X162361322Y-137355576D01*
X162368916Y-137355695D01*
X162523332Y-137320329D01*
X162593742Y-137284917D01*
X162658072Y-137252563D01*
X162658075Y-137252561D01*
X162664855Y-137249151D01*
X162670626Y-137244222D01*
X162670629Y-137244220D01*
X162740473Y-137184567D01*
X162784303Y-137164928D01*
X162789174Y-137142535D01*
X162797440Y-137129394D01*
X162804969Y-137118916D01*
X162877755Y-137017624D01*
X162936842Y-136870641D01*
X162945580Y-136809240D01*
X162974980Y-136744618D01*
X162981228Y-136737899D01*
X164173722Y-135545405D01*
X164236034Y-135511379D01*
X164262817Y-135508500D01*
X164468182Y-135508500D01*
X164536303Y-135528502D01*
X164582796Y-135582158D01*
X164592900Y-135652432D01*
X164563406Y-135717012D01*
X164557277Y-135723595D01*
X162988857Y-137292015D01*
X162936438Y-137320639D01*
X162927813Y-137349254D01*
X162911399Y-137369473D01*
X162064600Y-138216272D01*
X162004919Y-138249696D01*
X161877563Y-138280271D01*
X161877560Y-138280272D01*
X161870184Y-138282043D01*
X161729414Y-138354700D01*
X161610039Y-138458838D01*
X161606417Y-138463992D01*
X161546444Y-138500942D01*
X161475460Y-138499593D01*
X161416474Y-138460081D01*
X161395384Y-138423932D01*
X161386963Y-138401647D01*
X161384280Y-138394546D01*
X161330660Y-138316528D01*
X161308500Y-138245161D01*
X161308500Y-129264025D01*
X161309855Y-129251896D01*
X161309373Y-129251857D01*
X161310093Y-129242906D01*
X161312074Y-129234152D01*
X161308742Y-129180444D01*
X161308500Y-129172642D01*
X161308500Y-129156439D01*
X161307016Y-129146074D01*
X161305987Y-129136024D01*
X161303611Y-129097736D01*
X161303055Y-129088775D01*
X161300006Y-129080329D01*
X161299407Y-129077438D01*
X161295178Y-129060472D01*
X161294352Y-129057647D01*
X161293080Y-129048765D01*
X161273478Y-129005654D01*
X161269672Y-128996303D01*
X161256644Y-128960213D01*
X161256643Y-128960210D01*
X161253596Y-128951771D01*
X161248302Y-128944524D01*
X161246919Y-128941924D01*
X161238102Y-128926836D01*
X161236508Y-128924344D01*
X161232792Y-128916170D01*
X161201886Y-128880301D01*
X161195610Y-128872397D01*
X161187575Y-128861399D01*
X161176600Y-128850424D01*
X161170242Y-128843576D01*
X161143576Y-128812628D01*
X161143571Y-128812624D01*
X161137713Y-128805825D01*
X161130181Y-128800943D01*
X161123930Y-128795490D01*
X161112074Y-128785898D01*
X158019272Y-125693096D01*
X160740729Y-125693096D01*
X160758113Y-125850553D01*
X160812553Y-125999319D01*
X160900908Y-126130805D01*
X160906527Y-126135918D01*
X160906528Y-126135919D01*
X160917903Y-126146269D01*
X161018076Y-126237419D01*
X161157293Y-126313008D01*
X161310522Y-126353207D01*
X161394477Y-126354526D01*
X161461319Y-126355576D01*
X161461322Y-126355576D01*
X161468916Y-126355695D01*
X161623332Y-126320329D01*
X161693742Y-126284917D01*
X161758072Y-126252563D01*
X161758075Y-126252561D01*
X161764855Y-126249151D01*
X161770626Y-126244222D01*
X161770629Y-126244220D01*
X161879536Y-126151204D01*
X161879536Y-126151203D01*
X161885314Y-126146269D01*
X161977755Y-126017624D01*
X162036842Y-125870641D01*
X162052231Y-125762512D01*
X162081630Y-125697890D01*
X162141301Y-125659421D01*
X162178952Y-125654282D01*
X162261318Y-125655576D01*
X162261321Y-125655576D01*
X162268916Y-125655695D01*
X162423332Y-125620329D01*
X162509115Y-125577185D01*
X162558072Y-125552563D01*
X162558075Y-125552561D01*
X162564855Y-125549151D01*
X162577103Y-125538690D01*
X162641892Y-125509658D01*
X162658935Y-125508500D01*
X168428928Y-125508500D01*
X168441058Y-125509855D01*
X168441097Y-125509373D01*
X168450044Y-125510093D01*
X168458800Y-125512074D01*
X168512508Y-125508742D01*
X168520310Y-125508500D01*
X168536513Y-125508500D01*
X168545429Y-125507223D01*
X168546878Y-125507016D01*
X168556928Y-125505987D01*
X168595216Y-125503611D01*
X168604177Y-125503055D01*
X168612623Y-125500006D01*
X168615514Y-125499407D01*
X168632480Y-125495178D01*
X168635305Y-125494352D01*
X168644187Y-125493080D01*
X168687298Y-125473478D01*
X168696649Y-125469672D01*
X168732735Y-125456645D01*
X168741181Y-125453596D01*
X168748429Y-125448301D01*
X168751027Y-125446920D01*
X168766145Y-125438085D01*
X168768614Y-125436506D01*
X168776782Y-125432792D01*
X168812653Y-125401884D01*
X168820569Y-125395599D01*
X168827615Y-125390452D01*
X168827620Y-125390447D01*
X168831552Y-125387575D01*
X168842527Y-125376600D01*
X168849375Y-125370242D01*
X168880323Y-125343576D01*
X168880324Y-125343575D01*
X168887127Y-125337713D01*
X168892011Y-125330178D01*
X168897458Y-125323934D01*
X168907058Y-125312069D01*
X168985382Y-125233745D01*
X169909308Y-124309820D01*
X169918845Y-124302200D01*
X169918531Y-124301831D01*
X169925364Y-124296016D01*
X169932958Y-124291224D01*
X169968585Y-124250883D01*
X169973931Y-124245197D01*
X169985383Y-124233745D01*
X169988627Y-124229417D01*
X169991660Y-124225370D01*
X169998045Y-124217527D01*
X170023436Y-124188777D01*
X170029378Y-124182049D01*
X170033194Y-124173922D01*
X170034807Y-124171466D01*
X170043823Y-124156463D01*
X170045234Y-124153885D01*
X170050616Y-124146704D01*
X170067239Y-124102363D01*
X170071164Y-124093048D01*
X170087465Y-124058328D01*
X170091281Y-124050200D01*
X170091738Y-124047268D01*
X170107582Y-124015279D01*
X170173321Y-123923795D01*
X170173322Y-123923793D01*
X170177755Y-123917624D01*
X170180588Y-123910576D01*
X170180590Y-123910573D01*
X170229685Y-123788444D01*
X170236842Y-123770641D01*
X170248056Y-123691845D01*
X170258581Y-123617891D01*
X170258581Y-123617888D01*
X170259162Y-123613807D01*
X170259307Y-123600000D01*
X170258279Y-123591500D01*
X170249902Y-123522279D01*
X170240276Y-123442733D01*
X170184280Y-123294546D01*
X170094553Y-123163992D01*
X169976275Y-123058611D01*
X169968889Y-123054700D01*
X169842988Y-122988039D01*
X169842989Y-122988039D01*
X169836274Y-122984484D01*
X169682633Y-122945892D01*
X169675034Y-122945852D01*
X169675033Y-122945852D01*
X169609181Y-122945507D01*
X169524221Y-122945062D01*
X169516841Y-122946834D01*
X169516839Y-122946834D01*
X169377563Y-122980271D01*
X169377560Y-122980272D01*
X169370184Y-122982043D01*
X169229414Y-123054700D01*
X169110039Y-123158838D01*
X169050820Y-123243098D01*
X168995285Y-123287329D01*
X168924653Y-123294515D01*
X168861349Y-123262374D01*
X168829867Y-123215186D01*
X168786963Y-123101647D01*
X168784280Y-123094546D01*
X168765379Y-123067045D01*
X168698855Y-122970251D01*
X168698854Y-122970249D01*
X168694553Y-122963992D01*
X168576275Y-122858611D01*
X168568889Y-122854700D01*
X168468253Y-122801416D01*
X168436274Y-122784484D01*
X168282633Y-122745892D01*
X168275034Y-122745852D01*
X168275033Y-122745852D01*
X168209181Y-122745507D01*
X168124221Y-122745062D01*
X168116841Y-122746834D01*
X168116839Y-122746834D01*
X167977563Y-122780271D01*
X167977560Y-122780272D01*
X167970184Y-122782043D01*
X167829414Y-122854700D01*
X167710039Y-122958838D01*
X167618950Y-123088444D01*
X167616191Y-123095520D01*
X167616189Y-123095524D01*
X167592721Y-123155717D01*
X167549340Y-123211919D01*
X167482461Y-123235745D01*
X167413317Y-123219631D01*
X167363861Y-123168694D01*
X167350242Y-123125089D01*
X167340276Y-123042733D01*
X167284280Y-122894546D01*
X167271579Y-122876066D01*
X167198855Y-122770251D01*
X167198854Y-122770249D01*
X167194553Y-122763992D01*
X167171392Y-122743356D01*
X167118676Y-122696389D01*
X167076275Y-122658611D01*
X167068889Y-122654700D01*
X166942988Y-122588039D01*
X166942989Y-122588039D01*
X166936274Y-122584484D01*
X166782633Y-122545892D01*
X166775034Y-122545852D01*
X166775033Y-122545852D01*
X166709181Y-122545507D01*
X166624221Y-122545062D01*
X166616841Y-122546834D01*
X166616839Y-122546834D01*
X166477563Y-122580271D01*
X166477560Y-122580272D01*
X166470184Y-122582043D01*
X166329414Y-122654700D01*
X166322823Y-122660450D01*
X166322063Y-122660800D01*
X166317409Y-122663963D01*
X166316882Y-122663187D01*
X166258343Y-122690157D01*
X166239995Y-122691500D01*
X162471073Y-122691500D01*
X162458943Y-122690145D01*
X162458904Y-122690627D01*
X162449957Y-122689907D01*
X162441201Y-122687926D01*
X162387492Y-122691258D01*
X162379690Y-122691500D01*
X162363487Y-122691500D01*
X162354571Y-122692777D01*
X162353122Y-122692984D01*
X162343072Y-122694013D01*
X162304782Y-122696389D01*
X162304781Y-122696389D01*
X162295823Y-122696945D01*
X162287382Y-122699993D01*
X162284468Y-122700596D01*
X162267534Y-122704818D01*
X162264695Y-122705648D01*
X162255813Y-122706920D01*
X162212700Y-122726523D01*
X162203349Y-122730329D01*
X162167262Y-122743356D01*
X162167260Y-122743357D01*
X162158820Y-122746404D01*
X162151576Y-122751696D01*
X162148982Y-122753075D01*
X162133843Y-122761922D01*
X162131383Y-122763495D01*
X162123218Y-122767208D01*
X162116424Y-122773062D01*
X162116421Y-122773064D01*
X162108057Y-122780271D01*
X162087343Y-122798119D01*
X162079428Y-122804403D01*
X162072382Y-122809550D01*
X162072375Y-122809556D01*
X162068448Y-122812425D01*
X162057473Y-122823400D01*
X162050626Y-122829758D01*
X162012873Y-122862287D01*
X162007989Y-122869822D01*
X162002542Y-122876066D01*
X161992942Y-122887931D01*
X161037185Y-123843688D01*
X161027645Y-123851311D01*
X161027959Y-123851679D01*
X161021123Y-123857497D01*
X161013531Y-123862287D01*
X161007589Y-123869015D01*
X160977896Y-123902636D01*
X160972550Y-123908323D01*
X160961107Y-123919766D01*
X160956243Y-123926256D01*
X160954830Y-123928141D01*
X160948456Y-123935970D01*
X160917111Y-123971462D01*
X160913297Y-123979585D01*
X160911663Y-123982073D01*
X160902675Y-123997034D01*
X160901260Y-123999619D01*
X160895873Y-124006806D01*
X160890168Y-124022024D01*
X160879248Y-124051153D01*
X160875322Y-124060469D01*
X160855208Y-124103311D01*
X160853827Y-124112180D01*
X160852961Y-124115013D01*
X160848531Y-124131900D01*
X160847897Y-124134785D01*
X160844744Y-124143195D01*
X160844079Y-124152150D01*
X160841235Y-124190417D01*
X160840081Y-124200463D01*
X160839956Y-124201269D01*
X160837989Y-124213897D01*
X160837989Y-124229417D01*
X160837643Y-124238754D01*
X160833950Y-124288452D01*
X160835824Y-124297231D01*
X160836387Y-124305489D01*
X160837989Y-124320672D01*
X160837989Y-125323219D01*
X160823081Y-125382566D01*
X160818950Y-125388444D01*
X160800782Y-125435042D01*
X160770749Y-125512074D01*
X160761406Y-125536037D01*
X160760414Y-125543570D01*
X160760414Y-125543571D01*
X160745653Y-125655695D01*
X160740729Y-125693096D01*
X158019272Y-125693096D01*
X155202242Y-122876066D01*
X149280867Y-116954692D01*
X149246841Y-116892380D01*
X149244874Y-116880732D01*
X149241189Y-116850276D01*
X149241189Y-116850274D01*
X149240276Y-116842733D01*
X149184280Y-116694546D01*
X149094553Y-116563992D01*
X149088514Y-116558611D01*
X149058260Y-116531656D01*
X148976275Y-116458611D01*
X148968889Y-116454700D01*
X148842988Y-116388039D01*
X148842989Y-116388039D01*
X148836274Y-116384484D01*
X148682633Y-116345892D01*
X148675034Y-116345852D01*
X148675033Y-116345852D01*
X148609181Y-116345507D01*
X148524221Y-116345062D01*
X148516841Y-116346834D01*
X148516839Y-116346834D01*
X148377563Y-116380271D01*
X148377560Y-116380272D01*
X148370184Y-116382043D01*
X148229414Y-116454700D01*
X148110039Y-116558838D01*
X148105672Y-116565052D01*
X148062934Y-116625861D01*
X148007399Y-116670093D01*
X147936767Y-116677278D01*
X147876028Y-116647487D01*
X147851755Y-116625861D01*
X147776275Y-116558611D01*
X147768889Y-116554700D01*
X147642988Y-116488039D01*
X147642989Y-116488039D01*
X147636274Y-116484484D01*
X147482633Y-116445892D01*
X147475034Y-116445852D01*
X147475033Y-116445852D01*
X147409181Y-116445507D01*
X147324221Y-116445062D01*
X147316841Y-116446834D01*
X147316839Y-116446834D01*
X147177563Y-116480271D01*
X147177560Y-116480272D01*
X147170184Y-116482043D01*
X147029414Y-116554700D01*
X146910039Y-116658838D01*
X146818950Y-116788444D01*
X146816190Y-116795524D01*
X146766947Y-116921826D01*
X146761406Y-116936037D01*
X146740729Y-117093096D01*
X144308500Y-117093096D01*
X144308500Y-113904323D01*
X153391525Y-113904323D01*
X153422041Y-114106097D01*
X153492506Y-114297615D01*
X153600041Y-114471051D01*
X153604427Y-114475689D01*
X153735844Y-114614659D01*
X153740254Y-114619323D01*
X153745484Y-114622985D01*
X153745485Y-114622986D01*
X153837180Y-114687191D01*
X153907418Y-114736372D01*
X154094703Y-114817418D01*
X154294460Y-114859149D01*
X154299300Y-114859403D01*
X154299303Y-114859403D01*
X154299359Y-114859406D01*
X154301158Y-114859500D01*
X154450997Y-114859500D01*
X154499216Y-114854602D01*
X154596676Y-114844703D01*
X154596678Y-114844703D01*
X154603024Y-114844058D01*
X154797755Y-114783033D01*
X154976238Y-114684098D01*
X155131182Y-114551295D01*
X155256257Y-114390049D01*
X155269994Y-114362132D01*
X155343540Y-114212668D01*
X155343542Y-114212663D01*
X155346355Y-114206946D01*
X155397794Y-114009467D01*
X155404506Y-113881406D01*
X155408141Y-113812058D01*
X155408141Y-113812054D01*
X155408475Y-113805677D01*
X155377959Y-113603903D01*
X155307494Y-113412385D01*
X155199959Y-113238949D01*
X155059746Y-113090677D01*
X154967238Y-113025902D01*
X154897815Y-112977292D01*
X154897814Y-112977291D01*
X154892582Y-112973628D01*
X154705297Y-112892582D01*
X154505540Y-112850851D01*
X154500700Y-112850597D01*
X154500697Y-112850597D01*
X154500641Y-112850594D01*
X154498842Y-112850500D01*
X154349003Y-112850500D01*
X154322008Y-112853242D01*
X154203324Y-112865297D01*
X154203322Y-112865297D01*
X154196976Y-112865942D01*
X154002245Y-112926967D01*
X153823762Y-113025902D01*
X153668818Y-113158705D01*
X153543743Y-113319951D01*
X153540928Y-113325672D01*
X153456460Y-113497332D01*
X153456458Y-113497337D01*
X153453645Y-113503054D01*
X153452037Y-113509227D01*
X153452036Y-113509230D01*
X153439325Y-113558028D01*
X153402206Y-113700533D01*
X153397766Y-113785252D01*
X153393851Y-113859953D01*
X153391525Y-113904323D01*
X144308500Y-113904323D01*
X144308500Y-109671072D01*
X144309855Y-109658942D01*
X144309373Y-109658903D01*
X144310093Y-109649956D01*
X144312074Y-109641200D01*
X144308742Y-109587492D01*
X144308500Y-109579690D01*
X144308500Y-109563487D01*
X144307016Y-109553122D01*
X144305987Y-109543072D01*
X144303611Y-109504784D01*
X144303055Y-109495823D01*
X144300006Y-109487377D01*
X144299407Y-109484486D01*
X144295178Y-109467520D01*
X144294352Y-109464695D01*
X144293080Y-109455813D01*
X144273478Y-109412702D01*
X144269672Y-109403351D01*
X144256645Y-109367265D01*
X144253596Y-109358819D01*
X144248301Y-109351571D01*
X144246920Y-109348973D01*
X144238085Y-109333855D01*
X144236506Y-109331386D01*
X144232792Y-109323218D01*
X144201884Y-109287347D01*
X144195599Y-109279431D01*
X144190452Y-109272385D01*
X144190447Y-109272380D01*
X144187575Y-109268448D01*
X144176600Y-109257473D01*
X144170242Y-109250625D01*
X144143576Y-109219677D01*
X144143575Y-109219676D01*
X144137713Y-109212873D01*
X144130178Y-109207989D01*
X144123934Y-109202542D01*
X144112069Y-109192942D01*
X143681837Y-108762710D01*
X143647811Y-108700398D01*
X143645845Y-108688752D01*
X143641188Y-108650273D01*
X143640276Y-108642733D01*
X143584280Y-108494546D01*
X143494553Y-108363992D01*
X143376275Y-108258611D01*
X143368889Y-108254700D01*
X143242988Y-108188039D01*
X143242989Y-108188039D01*
X143236274Y-108184484D01*
X143082633Y-108145892D01*
X143075034Y-108145852D01*
X143075033Y-108145852D01*
X143009181Y-108145507D01*
X142924221Y-108145062D01*
X142916841Y-108146834D01*
X142916839Y-108146834D01*
X142777563Y-108180271D01*
X142777560Y-108180272D01*
X142770184Y-108182043D01*
X142629414Y-108254700D01*
X142510039Y-108358838D01*
X142418950Y-108488444D01*
X142361406Y-108636037D01*
X142360414Y-108643570D01*
X142360414Y-108643571D01*
X142348780Y-108731945D01*
X142340729Y-108793096D01*
X142358113Y-108950553D01*
X142412553Y-109099319D01*
X142416789Y-109105622D01*
X142416789Y-109105623D01*
X142481786Y-109202348D01*
X142500908Y-109230805D01*
X142506527Y-109235918D01*
X142506528Y-109235919D01*
X142558839Y-109283518D01*
X142618076Y-109337419D01*
X142757293Y-109413008D01*
X142883985Y-109446245D01*
X142909462Y-109452929D01*
X142966583Y-109485710D01*
X143254595Y-109773722D01*
X143288621Y-109836034D01*
X143291500Y-109862817D01*
X143291500Y-117828928D01*
X143290145Y-117841058D01*
X143290627Y-117841097D01*
X143289907Y-117850044D01*
X143287926Y-117858800D01*
X143288482Y-117867760D01*
X143291258Y-117912508D01*
X143291500Y-117920310D01*
X143291500Y-117936513D01*
X143292136Y-117940953D01*
X143292984Y-117946878D01*
X143294013Y-117956928D01*
X143296945Y-118004177D01*
X143299994Y-118012623D01*
X143300593Y-118015514D01*
X143304822Y-118032480D01*
X143305648Y-118035305D01*
X143306920Y-118044187D01*
X143326522Y-118087298D01*
X143330327Y-118096647D01*
X143346404Y-118141181D01*
X143351699Y-118148429D01*
X143353080Y-118151027D01*
X143361915Y-118166145D01*
X143363494Y-118168614D01*
X143367208Y-118176782D01*
X143373064Y-118183578D01*
X143398115Y-118212652D01*
X143404401Y-118220569D01*
X143409548Y-118227615D01*
X143409553Y-118227620D01*
X143412425Y-118231552D01*
X143423400Y-118242527D01*
X143429758Y-118249374D01*
X143462287Y-118287127D01*
X143469822Y-118292011D01*
X143476066Y-118297458D01*
X143487931Y-118307058D01*
X147354595Y-122173722D01*
X147388621Y-122236034D01*
X147391500Y-122262817D01*
X147391500Y-126558447D01*
X147371498Y-126626568D01*
X147317842Y-126673061D01*
X147247568Y-126683165D01*
X147181681Y-126652524D01*
X147152549Y-126626568D01*
X147076275Y-126558611D01*
X147068889Y-126554700D01*
X146942988Y-126488039D01*
X146942989Y-126488039D01*
X146936274Y-126484484D01*
X146782633Y-126445892D01*
X146775034Y-126445852D01*
X146775033Y-126445852D01*
X146709181Y-126445507D01*
X146624221Y-126445062D01*
X146616841Y-126446834D01*
X146616839Y-126446834D01*
X146477563Y-126480271D01*
X146477560Y-126480272D01*
X146470184Y-126482043D01*
X146329414Y-126554700D01*
X146322823Y-126560450D01*
X146322063Y-126560800D01*
X146317409Y-126563963D01*
X146316882Y-126563187D01*
X146258343Y-126590157D01*
X146239995Y-126591500D01*
X144062818Y-126591500D01*
X143994697Y-126571498D01*
X143973723Y-126554595D01*
X141445405Y-124026278D01*
X141411380Y-123963966D01*
X141408500Y-123937183D01*
X141408500Y-119454577D01*
X141432178Y-119381051D01*
X141442701Y-119366406D01*
X141477755Y-119317624D01*
X141536842Y-119170641D01*
X141559162Y-119013807D01*
X141559307Y-119000000D01*
X141540276Y-118842733D01*
X141484280Y-118694546D01*
X141394553Y-118563992D01*
X141276275Y-118458611D01*
X141268889Y-118454700D01*
X141142988Y-118388039D01*
X141142989Y-118388039D01*
X141136274Y-118384484D01*
X140982633Y-118345892D01*
X140975034Y-118345852D01*
X140975033Y-118345852D01*
X140909181Y-118345507D01*
X140824221Y-118345062D01*
X140816841Y-118346834D01*
X140816839Y-118346834D01*
X140677563Y-118380271D01*
X140677560Y-118380272D01*
X140670184Y-118382043D01*
X140529414Y-118454700D01*
X140410039Y-118558838D01*
X140318950Y-118688444D01*
X140261406Y-118836037D01*
X140260414Y-118843570D01*
X140260414Y-118843571D01*
X140250355Y-118919982D01*
X140240729Y-118993096D01*
X140258113Y-119150553D01*
X140312553Y-119299319D01*
X140316790Y-119305625D01*
X140316792Y-119305628D01*
X140370081Y-119384929D01*
X140391500Y-119455205D01*
X140391500Y-123562116D01*
X140371498Y-123630237D01*
X140317842Y-123676730D01*
X140247568Y-123686834D01*
X140182988Y-123657340D01*
X140144604Y-123597614D01*
X140142291Y-123588202D01*
X140142156Y-123587876D01*
X140139734Y-123575699D01*
X140104040Y-123522279D01*
X140090377Y-123501832D01*
X140083484Y-123491516D01*
X139999301Y-123435266D01*
X139925067Y-123420500D01*
X139050142Y-123420500D01*
X138174934Y-123420501D01*
X138139182Y-123427612D01*
X138112874Y-123432844D01*
X138112872Y-123432845D01*
X138100699Y-123435266D01*
X138090379Y-123442161D01*
X138090378Y-123442162D01*
X138057594Y-123464068D01*
X138016516Y-123491516D01*
X137960266Y-123575699D01*
X137945500Y-123649933D01*
X137945501Y-125400066D01*
X137960266Y-125474301D01*
X137967161Y-125484620D01*
X137967162Y-125484622D01*
X137983891Y-125509658D01*
X138016516Y-125558484D01*
X138100699Y-125614734D01*
X138174933Y-125629500D01*
X139049858Y-125629500D01*
X139925066Y-125629499D01*
X139962649Y-125622024D01*
X139987126Y-125617156D01*
X139987128Y-125617155D01*
X139999301Y-125614734D01*
X140009621Y-125607839D01*
X140009622Y-125607838D01*
X140073168Y-125565377D01*
X140083484Y-125558484D01*
X140121459Y-125501651D01*
X140132839Y-125484620D01*
X140139734Y-125474301D01*
X140154500Y-125400067D01*
X140154499Y-124352689D01*
X140174501Y-124284569D01*
X140228157Y-124238076D01*
X140298431Y-124227972D01*
X140363011Y-124257465D01*
X140399000Y-124309871D01*
X140399585Y-124311490D01*
X140404818Y-124332463D01*
X140405647Y-124335299D01*
X140406920Y-124344187D01*
X140426522Y-124387298D01*
X140430327Y-124396647D01*
X140446404Y-124441181D01*
X140451699Y-124448429D01*
X140453080Y-124451027D01*
X140461915Y-124466145D01*
X140463494Y-124468614D01*
X140467208Y-124476782D01*
X140479890Y-124491500D01*
X140498115Y-124512652D01*
X140504401Y-124520569D01*
X140509548Y-124527615D01*
X140509553Y-124527620D01*
X140512425Y-124531552D01*
X140523400Y-124542527D01*
X140529758Y-124549374D01*
X140562287Y-124587127D01*
X140569822Y-124592011D01*
X140576066Y-124597458D01*
X140587931Y-124607058D01*
X142991778Y-127010905D01*
X143025804Y-127073217D01*
X143020739Y-127144032D01*
X142991778Y-127189095D01*
X138290696Y-131890177D01*
X138281156Y-131897800D01*
X138281470Y-131898168D01*
X138274634Y-131903986D01*
X138267042Y-131908776D01*
X138261100Y-131915504D01*
X138231407Y-131949125D01*
X138226061Y-131954812D01*
X138214618Y-131966255D01*
X138210721Y-131971455D01*
X138208341Y-131974630D01*
X138201967Y-131982459D01*
X138170622Y-132017951D01*
X138166808Y-132026074D01*
X138165174Y-132028562D01*
X138156186Y-132043523D01*
X138154771Y-132046108D01*
X138149384Y-132053295D01*
X138144150Y-132067257D01*
X138132759Y-132097642D01*
X138128833Y-132106958D01*
X138108719Y-132149800D01*
X138107338Y-132158669D01*
X138106472Y-132161502D01*
X138102042Y-132178389D01*
X138101408Y-132181274D01*
X138098255Y-132189684D01*
X138097590Y-132198639D01*
X138094746Y-132236906D01*
X138093592Y-132246952D01*
X138091500Y-132260386D01*
X138091500Y-132275906D01*
X138091154Y-132285243D01*
X138087461Y-132334941D01*
X138089335Y-132343720D01*
X138089898Y-132351978D01*
X138091500Y-132367161D01*
X138091500Y-133745367D01*
X138068587Y-133817818D01*
X138018950Y-133888444D01*
X137961406Y-134036037D01*
X137960414Y-134043570D01*
X137960414Y-134043571D01*
X137953517Y-134095964D01*
X137940729Y-134193096D01*
X131500000Y-134193096D01*
X131500000Y-133181568D01*
X132540029Y-133181568D01*
X132579835Y-133347373D01*
X132658042Y-133498896D01*
X132663034Y-133504618D01*
X132663035Y-133504620D01*
X132668333Y-133510693D01*
X132770135Y-133627391D01*
X132909643Y-133725438D01*
X133005512Y-133762816D01*
X133061431Y-133784618D01*
X133061434Y-133784619D01*
X133068511Y-133787378D01*
X133076044Y-133788370D01*
X133076045Y-133788370D01*
X133194477Y-133803962D01*
X133194478Y-133803962D01*
X133198564Y-133804500D01*
X133287756Y-133804500D01*
X133414281Y-133789189D01*
X133573789Y-133728916D01*
X133714316Y-133632334D01*
X133723823Y-133621664D01*
X133822695Y-133510693D01*
X133822697Y-133510690D01*
X133827748Y-133505021D01*
X133907538Y-133354324D01*
X133909388Y-133346959D01*
X133947227Y-133196317D01*
X133947227Y-133196313D01*
X133949078Y-133188946D01*
X133949157Y-133173974D01*
X133949604Y-133088575D01*
X133949971Y-133018432D01*
X133910165Y-132852627D01*
X133831958Y-132701104D01*
X133820544Y-132688019D01*
X133724861Y-132578336D01*
X133719865Y-132572609D01*
X133580357Y-132474562D01*
X133484488Y-132437184D01*
X133428569Y-132415382D01*
X133428566Y-132415381D01*
X133421489Y-132412622D01*
X133413956Y-132411630D01*
X133413955Y-132411630D01*
X133295523Y-132396038D01*
X133295522Y-132396038D01*
X133291436Y-132395500D01*
X133202244Y-132395500D01*
X133075719Y-132410811D01*
X132916211Y-132471084D01*
X132909953Y-132475385D01*
X132834219Y-132527436D01*
X132775684Y-132567666D01*
X132770632Y-132573336D01*
X132770631Y-132573337D01*
X132667305Y-132689307D01*
X132667303Y-132689310D01*
X132662252Y-132694979D01*
X132582462Y-132845676D01*
X132580612Y-132853041D01*
X132543659Y-133000158D01*
X132540922Y-133011054D01*
X132540882Y-133018653D01*
X132540882Y-133018655D01*
X132540775Y-133039109D01*
X132540029Y-133181568D01*
X131500000Y-133181568D01*
X131500000Y-131552190D01*
X131520002Y-131484069D01*
X131536905Y-131463095D01*
X134442502Y-128557498D01*
X134485678Y-128529258D01*
X134486448Y-128528957D01*
X135372095Y-128182360D01*
X135378227Y-128180142D01*
X135449773Y-128156336D01*
X135451002Y-128155934D01*
X135686431Y-128080271D01*
X135898029Y-128012267D01*
X135900300Y-128011562D01*
X136263098Y-127902724D01*
X136268076Y-127901342D01*
X136443256Y-127856582D01*
X136455047Y-127854185D01*
X136467329Y-127854742D01*
X136478994Y-127850519D01*
X136478999Y-127850518D01*
X136494038Y-127845073D01*
X136498115Y-127843706D01*
X136503776Y-127842548D01*
X136517956Y-127836585D01*
X136523888Y-127834266D01*
X136550672Y-127824569D01*
X136562342Y-127820344D01*
X136567263Y-127815850D01*
X136573410Y-127813265D01*
X136582136Y-127804444D01*
X136582139Y-127804442D01*
X136602173Y-127784190D01*
X136606787Y-127779757D01*
X136613549Y-127773582D01*
X136613550Y-127773581D01*
X136618123Y-127769405D01*
X136621552Y-127764745D01*
X136624506Y-127761614D01*
X136629588Y-127756477D01*
X136644475Y-127741429D01*
X136649162Y-127729940D01*
X136656001Y-127719584D01*
X136656180Y-127719702D01*
X136660915Y-127711255D01*
X136668587Y-127700828D01*
X136675231Y-127692551D01*
X136689798Y-127675896D01*
X136689799Y-127675894D01*
X136697966Y-127666556D01*
X136707317Y-127638884D01*
X136712577Y-127625792D01*
X136724958Y-127599361D01*
X136725521Y-127586961D01*
X136726024Y-127584921D01*
X136726059Y-127584800D01*
X136726070Y-127584677D01*
X136726342Y-127582586D01*
X136730316Y-127570827D01*
X136729487Y-127558441D01*
X136730188Y-127553061D01*
X136738732Y-127533675D01*
X136734772Y-127532468D01*
X136743829Y-127502743D01*
X136750000Y-127500000D01*
X136742392Y-127491849D01*
X136742392Y-127491848D01*
X136737951Y-127487089D01*
X136717135Y-127457000D01*
X136710623Y-127443840D01*
X136705079Y-127430852D01*
X136699367Y-127415076D01*
X136699366Y-127415075D01*
X136695141Y-127403404D01*
X136686773Y-127394241D01*
X136686771Y-127394237D01*
X136671862Y-127377911D01*
X136665060Y-127369804D01*
X136596574Y-127280803D01*
X136596461Y-127280625D01*
X136595940Y-127278799D01*
X136566279Y-127241410D01*
X136565134Y-127239945D01*
X136563847Y-127238273D01*
X136551596Y-127222352D01*
X136550170Y-127221105D01*
X136548992Y-127219620D01*
X136540080Y-127212055D01*
X136532058Y-127205246D01*
X136530648Y-127204031D01*
X136498574Y-127175980D01*
X136498572Y-127175979D01*
X136494734Y-127172622D01*
X136492937Y-127172015D01*
X136492757Y-127171888D01*
X136270521Y-126983257D01*
X136267008Y-126980161D01*
X136264409Y-126977784D01*
X136260274Y-126973178D01*
X136255434Y-126969554D01*
X136248625Y-126962812D01*
X134106429Y-124667602D01*
X135412899Y-124667602D01*
X135414542Y-124692676D01*
X135416343Y-124704046D01*
X135463443Y-124889502D01*
X135467284Y-124900348D01*
X135547394Y-125074120D01*
X135553145Y-125084081D01*
X135663579Y-125240343D01*
X135671057Y-125249098D01*
X135808114Y-125382612D01*
X135817058Y-125389855D01*
X135976156Y-125496161D01*
X135986266Y-125501651D01*
X136162077Y-125577185D01*
X136173020Y-125580740D01*
X136359647Y-125622970D01*
X136366383Y-125623857D01*
X136380302Y-125620357D01*
X136380658Y-125619978D01*
X136383000Y-125610144D01*
X136383000Y-125604095D01*
X136637000Y-125604095D01*
X136640966Y-125617601D01*
X136654966Y-125619605D01*
X136763106Y-125603926D01*
X136774302Y-125601238D01*
X136955497Y-125539730D01*
X136965994Y-125535056D01*
X137132958Y-125441552D01*
X137142430Y-125435042D01*
X137289553Y-125312682D01*
X137297682Y-125304553D01*
X137420042Y-125157430D01*
X137426552Y-125147958D01*
X137520056Y-124980994D01*
X137524730Y-124970497D01*
X137586238Y-124789302D01*
X137588926Y-124778106D01*
X137604610Y-124669929D01*
X137602624Y-124655993D01*
X137589056Y-124652000D01*
X136655115Y-124652000D01*
X136639876Y-124656475D01*
X136638671Y-124657865D01*
X136637000Y-124665548D01*
X136637000Y-125604095D01*
X136383000Y-125604095D01*
X136383000Y-124670115D01*
X136378525Y-124654876D01*
X136377135Y-124653671D01*
X136369452Y-124652000D01*
X135429991Y-124652000D01*
X135414951Y-124656416D01*
X135412899Y-124667602D01*
X134106429Y-124667602D01*
X133838012Y-124380012D01*
X135415375Y-124380012D01*
X135417817Y-124394431D01*
X135430559Y-124398000D01*
X136364885Y-124398000D01*
X136380124Y-124393525D01*
X136381329Y-124392135D01*
X136383000Y-124384452D01*
X136383000Y-124379885D01*
X136637000Y-124379885D01*
X136641475Y-124395124D01*
X136642865Y-124396329D01*
X136650548Y-124398000D01*
X137588945Y-124398000D01*
X137603490Y-124393729D01*
X137605553Y-124381595D01*
X137600693Y-124328707D01*
X137598595Y-124317386D01*
X137546658Y-124133231D01*
X137542533Y-124122484D01*
X137457903Y-123950871D01*
X137451893Y-123941063D01*
X137337400Y-123787739D01*
X137329710Y-123779199D01*
X137189192Y-123649304D01*
X137180067Y-123642303D01*
X137018236Y-123540195D01*
X137007989Y-123534974D01*
X136830260Y-123464068D01*
X136819232Y-123460801D01*
X136654769Y-123428088D01*
X136641894Y-123429240D01*
X136637000Y-123444396D01*
X136637000Y-124379885D01*
X136383000Y-124379885D01*
X136383000Y-123444678D01*
X136379194Y-123431716D01*
X136364278Y-123429780D01*
X136228737Y-123453070D01*
X136217617Y-123456050D01*
X136038095Y-123522279D01*
X136027717Y-123527229D01*
X135863273Y-123625063D01*
X135853961Y-123631829D01*
X135710097Y-123757994D01*
X135702180Y-123766337D01*
X135583718Y-123916605D01*
X135577450Y-123926256D01*
X135488360Y-124095589D01*
X135483951Y-124106232D01*
X135427210Y-124288967D01*
X135424820Y-124300211D01*
X135415375Y-124380012D01*
X133838012Y-124380012D01*
X133283887Y-123786307D01*
X133252030Y-123722859D01*
X133250000Y-123700335D01*
X133250000Y-120970927D01*
X133270002Y-120902806D01*
X133323658Y-120856313D01*
X133393932Y-120846209D01*
X133458512Y-120875703D01*
X133477482Y-120896245D01*
X133540468Y-120981833D01*
X133550381Y-120992464D01*
X133673225Y-121096828D01*
X133685313Y-121104890D01*
X133828871Y-121178195D01*
X133842496Y-121183262D01*
X134000716Y-121221977D01*
X134011775Y-121223660D01*
X134015321Y-121223880D01*
X134019199Y-121224000D01*
X134254885Y-121224000D01*
X134270124Y-121219525D01*
X134271329Y-121218135D01*
X134273000Y-121210452D01*
X134273000Y-121205885D01*
X134527000Y-121205885D01*
X134531475Y-121221124D01*
X134532865Y-121222329D01*
X134540548Y-121224000D01*
X134740363Y-121224000D01*
X134747667Y-121223575D01*
X134867366Y-121209620D01*
X134881519Y-121206275D01*
X135033030Y-121151279D01*
X135046029Y-121144769D01*
X135180826Y-121056392D01*
X135191978Y-121047068D01*
X135302828Y-120930053D01*
X135311540Y-120918408D01*
X135392494Y-120779035D01*
X135398292Y-120765700D01*
X135443715Y-120615722D01*
X137289963Y-120615722D01*
X137300513Y-120677119D01*
X137304619Y-120691070D01*
X137367729Y-120839387D01*
X137374929Y-120852012D01*
X137470467Y-120981833D01*
X137480381Y-120992464D01*
X137603225Y-121096828D01*
X137615313Y-121104890D01*
X137758871Y-121178195D01*
X137772496Y-121183262D01*
X137930716Y-121221977D01*
X137941775Y-121223660D01*
X137945321Y-121223880D01*
X137949199Y-121224000D01*
X138434885Y-121224000D01*
X138450124Y-121219525D01*
X138451329Y-121218135D01*
X138453000Y-121210452D01*
X138453000Y-121205885D01*
X138707000Y-121205885D01*
X138711475Y-121221124D01*
X138712865Y-121222329D01*
X138720548Y-121224000D01*
X139170363Y-121224000D01*
X139177667Y-121223575D01*
X139297366Y-121209620D01*
X139311519Y-121206275D01*
X139463030Y-121151279D01*
X139476029Y-121144769D01*
X139610826Y-121056392D01*
X139621978Y-121047068D01*
X139732828Y-120930053D01*
X139741540Y-120918408D01*
X139822494Y-120779035D01*
X139828292Y-120765700D01*
X139875014Y-120611433D01*
X139875292Y-120609887D01*
X139872982Y-120599730D01*
X139862073Y-120597000D01*
X138725115Y-120597000D01*
X138709876Y-120601475D01*
X138708671Y-120602865D01*
X138707000Y-120610548D01*
X138707000Y-121205885D01*
X138453000Y-121205885D01*
X138453000Y-120615115D01*
X138448525Y-120599876D01*
X138447135Y-120598671D01*
X138439452Y-120597000D01*
X137304861Y-120597000D01*
X137291899Y-120600806D01*
X137289963Y-120615722D01*
X135443715Y-120615722D01*
X135445014Y-120611433D01*
X135445292Y-120609887D01*
X135442982Y-120599730D01*
X135432073Y-120597000D01*
X134545115Y-120597000D01*
X134529876Y-120601475D01*
X134528671Y-120602865D01*
X134527000Y-120610548D01*
X134527000Y-121205885D01*
X134273000Y-121205885D01*
X134273000Y-120324885D01*
X134527000Y-120324885D01*
X134531475Y-120340124D01*
X134532865Y-120341329D01*
X134540548Y-120343000D01*
X135425139Y-120343000D01*
X135438101Y-120339194D01*
X135439280Y-120330113D01*
X137284708Y-120330113D01*
X137287018Y-120340270D01*
X137297927Y-120343000D01*
X138434885Y-120343000D01*
X138450124Y-120338525D01*
X138451329Y-120337135D01*
X138453000Y-120329452D01*
X138453000Y-120324885D01*
X138707000Y-120324885D01*
X138711475Y-120340124D01*
X138712865Y-120341329D01*
X138720548Y-120343000D01*
X139855139Y-120343000D01*
X139868101Y-120339194D01*
X139870037Y-120324278D01*
X139859487Y-120262881D01*
X139855381Y-120248930D01*
X139792271Y-120100613D01*
X139785071Y-120087988D01*
X139689533Y-119958167D01*
X139679619Y-119947536D01*
X139556775Y-119843172D01*
X139544687Y-119835110D01*
X139401129Y-119761805D01*
X139387504Y-119756738D01*
X139229284Y-119718023D01*
X139218225Y-119716340D01*
X139214679Y-119716120D01*
X139210801Y-119716000D01*
X138725115Y-119716000D01*
X138709876Y-119720475D01*
X138708671Y-119721865D01*
X138707000Y-119729548D01*
X138707000Y-120324885D01*
X138453000Y-120324885D01*
X138453000Y-119734115D01*
X138448525Y-119718876D01*
X138437319Y-119709166D01*
X138394397Y-119685729D01*
X138360372Y-119623417D01*
X138365436Y-119552601D01*
X138406788Y-119496670D01*
X138456758Y-119458327D01*
X138463304Y-119453304D01*
X138556192Y-119332250D01*
X138614584Y-119191280D01*
X138616373Y-119177695D01*
X138633422Y-119048188D01*
X138634500Y-119040000D01*
X138614584Y-118888720D01*
X138556192Y-118747750D01*
X138463304Y-118626696D01*
X138342250Y-118533808D01*
X138201280Y-118475416D01*
X138193092Y-118474338D01*
X138092067Y-118461038D01*
X138092066Y-118461038D01*
X138087980Y-118460500D01*
X138012020Y-118460500D01*
X138007934Y-118461038D01*
X138007933Y-118461038D01*
X137906908Y-118474338D01*
X137898720Y-118475416D01*
X137757750Y-118533808D01*
X137636696Y-118626696D01*
X137543808Y-118747750D01*
X137485416Y-118888720D01*
X137465500Y-119040000D01*
X137466578Y-119048188D01*
X137483628Y-119177695D01*
X137485416Y-119191280D01*
X137543808Y-119332250D01*
X137636696Y-119453304D01*
X137757750Y-119546192D01*
X137760828Y-119547467D01*
X137808248Y-119597197D01*
X137821686Y-119666910D01*
X137795301Y-119732822D01*
X137739248Y-119773375D01*
X137696967Y-119788722D01*
X137683971Y-119795231D01*
X137549174Y-119883608D01*
X137538022Y-119892932D01*
X137427172Y-120009947D01*
X137418460Y-120021592D01*
X137337506Y-120160965D01*
X137331708Y-120174300D01*
X137284986Y-120328567D01*
X137284708Y-120330113D01*
X135439280Y-120330113D01*
X135440037Y-120324278D01*
X135429487Y-120262881D01*
X135425381Y-120248930D01*
X135362271Y-120100613D01*
X135355071Y-120087988D01*
X135259533Y-119958167D01*
X135249619Y-119947536D01*
X135126775Y-119843172D01*
X135114687Y-119835110D01*
X134971129Y-119761805D01*
X134957504Y-119756738D01*
X134799284Y-119718023D01*
X134788225Y-119716340D01*
X134784679Y-119716120D01*
X134780801Y-119716000D01*
X134545115Y-119716000D01*
X134529876Y-119720475D01*
X134528671Y-119721865D01*
X134527000Y-119729548D01*
X134527000Y-120324885D01*
X134273000Y-120324885D01*
X134273000Y-119734115D01*
X134268525Y-119718876D01*
X134267135Y-119717671D01*
X134259452Y-119716000D01*
X134059637Y-119716000D01*
X134052333Y-119716425D01*
X133932634Y-119730380D01*
X133918481Y-119733725D01*
X133766970Y-119788721D01*
X133753971Y-119795231D01*
X133619174Y-119883608D01*
X133608022Y-119892932D01*
X133497172Y-120009947D01*
X133488463Y-120021589D01*
X133484954Y-120027630D01*
X133433443Y-120076488D01*
X133363694Y-120089742D01*
X133297852Y-120063182D01*
X133256822Y-120005242D01*
X133250000Y-119964344D01*
X133250000Y-112330927D01*
X133270002Y-112262806D01*
X133323658Y-112216313D01*
X133393932Y-112206209D01*
X133458512Y-112235703D01*
X133477482Y-112256245D01*
X133540468Y-112341833D01*
X133550381Y-112352464D01*
X133673225Y-112456828D01*
X133685313Y-112464890D01*
X133828871Y-112538195D01*
X133842496Y-112543262D01*
X134000716Y-112581977D01*
X134011775Y-112583660D01*
X134015321Y-112583880D01*
X134019199Y-112584000D01*
X134254885Y-112584000D01*
X134270124Y-112579525D01*
X134271329Y-112578135D01*
X134273000Y-112570452D01*
X134273000Y-112565885D01*
X134527000Y-112565885D01*
X134531475Y-112581124D01*
X134532865Y-112582329D01*
X134540548Y-112584000D01*
X134740363Y-112584000D01*
X134747667Y-112583575D01*
X134867366Y-112569620D01*
X134881519Y-112566275D01*
X135033030Y-112511279D01*
X135046029Y-112504769D01*
X135180826Y-112416392D01*
X135191978Y-112407068D01*
X135302828Y-112290053D01*
X135311540Y-112278408D01*
X135392494Y-112139035D01*
X135398292Y-112125700D01*
X135443715Y-111975722D01*
X137289963Y-111975722D01*
X137300513Y-112037119D01*
X137304619Y-112051070D01*
X137367729Y-112199387D01*
X137374929Y-112212012D01*
X137470467Y-112341833D01*
X137480381Y-112352464D01*
X137603225Y-112456828D01*
X137615314Y-112464891D01*
X137751135Y-112534245D01*
X137802708Y-112583039D01*
X137819714Y-112651968D01*
X137796754Y-112719150D01*
X137759630Y-112753029D01*
X137757750Y-112753808D01*
X137636696Y-112846696D01*
X137543808Y-112967750D01*
X137485416Y-113108720D01*
X137465500Y-113260000D01*
X137485416Y-113411280D01*
X137543808Y-113552250D01*
X137636696Y-113673304D01*
X137757750Y-113766192D01*
X137898720Y-113824584D01*
X138012020Y-113839500D01*
X138087980Y-113839500D01*
X138201280Y-113824584D01*
X138342250Y-113766192D01*
X138463304Y-113673304D01*
X138556192Y-113552250D01*
X138614584Y-113411280D01*
X138634500Y-113260000D01*
X138614584Y-113108720D01*
X138556192Y-112967750D01*
X138463304Y-112846696D01*
X138404600Y-112801651D01*
X138362734Y-112744314D01*
X138358512Y-112673443D01*
X138393276Y-112611540D01*
X138445807Y-112580793D01*
X138450124Y-112579525D01*
X138451329Y-112578135D01*
X138453000Y-112570452D01*
X138453000Y-112565885D01*
X138707000Y-112565885D01*
X138711475Y-112581124D01*
X138712865Y-112582329D01*
X138720548Y-112584000D01*
X139170363Y-112584000D01*
X139177667Y-112583575D01*
X139297366Y-112569620D01*
X139311519Y-112566275D01*
X139463030Y-112511279D01*
X139476029Y-112504769D01*
X139610826Y-112416392D01*
X139621978Y-112407068D01*
X139732828Y-112290053D01*
X139741540Y-112278408D01*
X139822494Y-112139035D01*
X139828292Y-112125700D01*
X139875014Y-111971433D01*
X139875292Y-111969887D01*
X139872982Y-111959730D01*
X139862073Y-111957000D01*
X138725115Y-111957000D01*
X138709876Y-111961475D01*
X138708671Y-111962865D01*
X138707000Y-111970548D01*
X138707000Y-112565885D01*
X138453000Y-112565885D01*
X138453000Y-111975115D01*
X138448525Y-111959876D01*
X138447135Y-111958671D01*
X138439452Y-111957000D01*
X137304861Y-111957000D01*
X137291899Y-111960806D01*
X137289963Y-111975722D01*
X135443715Y-111975722D01*
X135445014Y-111971433D01*
X135445292Y-111969887D01*
X135442982Y-111959730D01*
X135432073Y-111957000D01*
X134545115Y-111957000D01*
X134529876Y-111961475D01*
X134528671Y-111962865D01*
X134527000Y-111970548D01*
X134527000Y-112565885D01*
X134273000Y-112565885D01*
X134273000Y-111684885D01*
X134527000Y-111684885D01*
X134531475Y-111700124D01*
X134532865Y-111701329D01*
X134540548Y-111703000D01*
X135425139Y-111703000D01*
X135438101Y-111699194D01*
X135439280Y-111690113D01*
X137284708Y-111690113D01*
X137287018Y-111700270D01*
X137297927Y-111703000D01*
X138434885Y-111703000D01*
X138450124Y-111698525D01*
X138451329Y-111697135D01*
X138453000Y-111689452D01*
X138453000Y-111684885D01*
X138707000Y-111684885D01*
X138711475Y-111700124D01*
X138712865Y-111701329D01*
X138720548Y-111703000D01*
X139855139Y-111703000D01*
X139868101Y-111699194D01*
X139870037Y-111684278D01*
X139859487Y-111622881D01*
X139855381Y-111608930D01*
X139792271Y-111460613D01*
X139785071Y-111447988D01*
X139689533Y-111318167D01*
X139679619Y-111307536D01*
X139556775Y-111203172D01*
X139544687Y-111195110D01*
X139401129Y-111121805D01*
X139387504Y-111116738D01*
X139229284Y-111078023D01*
X139218225Y-111076340D01*
X139214679Y-111076120D01*
X139210801Y-111076000D01*
X138725115Y-111076000D01*
X138709876Y-111080475D01*
X138708671Y-111081865D01*
X138707000Y-111089548D01*
X138707000Y-111684885D01*
X138453000Y-111684885D01*
X138453000Y-111094115D01*
X138448525Y-111078876D01*
X138447135Y-111077671D01*
X138439452Y-111076000D01*
X137989637Y-111076000D01*
X137982333Y-111076425D01*
X137862634Y-111090380D01*
X137848481Y-111093725D01*
X137696970Y-111148721D01*
X137683971Y-111155231D01*
X137549174Y-111243608D01*
X137538022Y-111252932D01*
X137427172Y-111369947D01*
X137418460Y-111381592D01*
X137337506Y-111520965D01*
X137331708Y-111534300D01*
X137284986Y-111688567D01*
X137284708Y-111690113D01*
X135439280Y-111690113D01*
X135440037Y-111684278D01*
X135429487Y-111622881D01*
X135425381Y-111608930D01*
X135362271Y-111460613D01*
X135355071Y-111447988D01*
X135259533Y-111318167D01*
X135249619Y-111307536D01*
X135126775Y-111203172D01*
X135114687Y-111195110D01*
X134971129Y-111121805D01*
X134957504Y-111116738D01*
X134799284Y-111078023D01*
X134788225Y-111076340D01*
X134784679Y-111076120D01*
X134780801Y-111076000D01*
X134545115Y-111076000D01*
X134529876Y-111080475D01*
X134528671Y-111081865D01*
X134527000Y-111089548D01*
X134527000Y-111684885D01*
X134273000Y-111684885D01*
X134273000Y-111094115D01*
X134268525Y-111078876D01*
X134267135Y-111077671D01*
X134259452Y-111076000D01*
X134059637Y-111076000D01*
X134052333Y-111076425D01*
X133932634Y-111090380D01*
X133918481Y-111093725D01*
X133766970Y-111148721D01*
X133753971Y-111155231D01*
X133651406Y-111222475D01*
X133583471Y-111243098D01*
X133515170Y-111223718D01*
X133468190Y-111170489D01*
X133457445Y-111100310D01*
X133469623Y-111060754D01*
X135229599Y-107540802D01*
X135277954Y-107488818D01*
X135291794Y-107481715D01*
X136597106Y-106910641D01*
X136611547Y-106904323D01*
X153391525Y-106904323D01*
X153422041Y-107106097D01*
X153492506Y-107297615D01*
X153600041Y-107471051D01*
X153740254Y-107619323D01*
X153745484Y-107622985D01*
X153745485Y-107622986D01*
X153837180Y-107687191D01*
X153907418Y-107736372D01*
X154094703Y-107817418D01*
X154294460Y-107859149D01*
X154299300Y-107859403D01*
X154299303Y-107859403D01*
X154299359Y-107859406D01*
X154301158Y-107859500D01*
X154450997Y-107859500D01*
X154499216Y-107854602D01*
X154596676Y-107844703D01*
X154596678Y-107844703D01*
X154603024Y-107844058D01*
X154797755Y-107783033D01*
X154976238Y-107684098D01*
X155131182Y-107551295D01*
X155256257Y-107390049D01*
X155269994Y-107362132D01*
X155343540Y-107212668D01*
X155343542Y-107212663D01*
X155346355Y-107206946D01*
X155353928Y-107177875D01*
X155396183Y-107015651D01*
X155397794Y-107009467D01*
X155408475Y-106805677D01*
X155377959Y-106603903D01*
X155307494Y-106412385D01*
X155199959Y-106238949D01*
X155059746Y-106090677D01*
X154967238Y-106025902D01*
X154897815Y-105977292D01*
X154897814Y-105977291D01*
X154892582Y-105973628D01*
X154705297Y-105892582D01*
X154505540Y-105850851D01*
X154500700Y-105850597D01*
X154500697Y-105850597D01*
X154500641Y-105850594D01*
X154498842Y-105850500D01*
X154349003Y-105850500D01*
X154300784Y-105855398D01*
X154203324Y-105865297D01*
X154203322Y-105865297D01*
X154196976Y-105865942D01*
X154002245Y-105926967D01*
X153823762Y-106025902D01*
X153668818Y-106158705D01*
X153543743Y-106319951D01*
X153540928Y-106325672D01*
X153456460Y-106497332D01*
X153456458Y-106497337D01*
X153453645Y-106503054D01*
X153402206Y-106700533D01*
X153391525Y-106904323D01*
X136611547Y-106904323D01*
X143226328Y-104010357D01*
X143275839Y-103999797D01*
X146465812Y-103974777D01*
X148755360Y-103956819D01*
X148757339Y-103956819D01*
X153335659Y-103992812D01*
G37*
%TD.AperFunction*%
%TD*%
M02*
