M48
; DRILL file {KiCad (6.0.0)} date Sun May 29 15:10:34 2022
; FORMAT={-:-/ absolute / metric / decimal}
; #@! TF.CreationDate,2022-05-29T15:10:34+02:00
; #@! TF.GenerationSoftware,Kicad,Pcbnew,(6.0.0)
; #@! TF.FileFunction,Plated,1,2,PTH
FMAT,2
METRIC
; #@! TA.AperFunction,Plated,PTH,ViaDrill
T1C0.400
; #@! TA.AperFunction,Plated,PTH,ComponentDrill
T2C0.600
; #@! TA.AperFunction,Plated,PTH,ComponentDrill
T3C1.000
%
G90
G05
T1
X138.6Y-134.2
X140.9Y-119.0
X143.0Y-108.8
X143.4Y-125.3
X146.7Y-127.1
X146.7Y-128.7
X146.9Y-133.7
X147.4Y-117.1
X148.6Y-117.0
X150.1Y-133.2
X155.8Y-130.6
X155.8Y-147.5
X157.2Y-150.1
X158.4Y-120.8
X158.883Y-130.983
X159.8Y-138.9
X160.8Y-138.7
X161.4Y-125.7
X161.5Y-145.7
X162.1Y-138.9
X162.2Y-125.0
X162.3Y-136.7
X163.4Y-124.1
X165.3Y-136.0
X166.7Y-123.2
X167.9Y-137.0
X168.2Y-123.4
X169.6Y-123.6
X169.6Y-132.5
X170.5Y-142.9
T3
X136.51Y-124.525
X139.05Y-124.525
T2
G00X134.7Y-111.83
M15
G01X134.1Y-111.83
M16
G05
G00X134.7Y-120.47
M15
G01X134.1Y-120.47
M16
G05
G00X139.13Y-111.83
M15
G01X138.03Y-111.83
M16
G05
G00X139.13Y-120.47
M15
G01X138.03Y-120.47
M16
G05
T0
M30
