%TF.GenerationSoftware,KiCad,Pcbnew,(6.0.0)*%
%TF.CreationDate,2022-05-29T15:10:24+02:00*%
%TF.ProjectId,DETECTIVE BOYS BADGE,44455445-4354-4495-9645-20424f595320,rev?*%
%TF.SameCoordinates,Original*%
%TF.FileFunction,Legend,Top*%
%TF.FilePolarity,Positive*%
%FSLAX46Y46*%
G04 Gerber Fmt 4.6, Leading zero omitted, Abs format (unit mm)*
G04 Created by KiCad (PCBNEW (6.0.0)) date 2022-05-29 15:10:24*
%MOMM*%
%LPD*%
G01*
G04 APERTURE LIST*
%ADD10C,0.100000*%
%ADD11C,0.150000*%
%ADD12C,0.300000*%
%ADD13C,0.250000*%
%ADD14C,0.120000*%
G04 APERTURE END LIST*
D10*
X155600000Y-153900000D02*
X136600000Y-153900000D01*
X136600000Y-153900000D02*
X136600000Y-134900000D01*
X136600000Y-134900000D02*
X155600000Y-134900000D01*
X155600000Y-134900000D02*
X155600000Y-153900000D01*
D11*
X171400000Y-130300000D02*
X157300000Y-130300000D01*
X157300000Y-130300000D02*
X157300000Y-126300000D01*
X157300000Y-126300000D02*
X171400000Y-126300000D01*
X171400000Y-126300000D02*
X171400000Y-130300000D01*
D10*
X135000000Y-121400000D02*
X140500000Y-121400000D01*
X140500000Y-121400000D02*
X140500000Y-126000000D01*
X140500000Y-126000000D02*
X135000000Y-126000000D01*
X135000000Y-126000000D02*
X135000000Y-121400000D01*
D11*
X141942857Y-143142380D02*
X141466666Y-143142380D01*
X141466666Y-142142380D01*
X142276190Y-143142380D02*
X142276190Y-142475714D01*
X142276190Y-142142380D02*
X142228571Y-142190000D01*
X142276190Y-142237619D01*
X142323809Y-142190000D01*
X142276190Y-142142380D01*
X142276190Y-142237619D01*
X142752380Y-142475714D02*
X142752380Y-143475714D01*
X142752380Y-142523333D02*
X142847619Y-142475714D01*
X143038095Y-142475714D01*
X143133333Y-142523333D01*
X143180952Y-142570952D01*
X143228571Y-142666190D01*
X143228571Y-142951904D01*
X143180952Y-143047142D01*
X143133333Y-143094761D01*
X143038095Y-143142380D01*
X142847619Y-143142380D01*
X142752380Y-143094761D01*
X143800000Y-143142380D02*
X143704761Y-143094761D01*
X143657142Y-143047142D01*
X143609523Y-142951904D01*
X143609523Y-142666190D01*
X143657142Y-142570952D01*
X143704761Y-142523333D01*
X143800000Y-142475714D01*
X143942857Y-142475714D01*
X144038095Y-142523333D01*
X144085714Y-142570952D01*
X144133333Y-142666190D01*
X144133333Y-142951904D01*
X144085714Y-143047142D01*
X144038095Y-143094761D01*
X143942857Y-143142380D01*
X143800000Y-143142380D01*
X145657142Y-142618571D02*
X145800000Y-142666190D01*
X145847619Y-142713809D01*
X145895238Y-142809047D01*
X145895238Y-142951904D01*
X145847619Y-143047142D01*
X145800000Y-143094761D01*
X145704761Y-143142380D01*
X145323809Y-143142380D01*
X145323809Y-142142380D01*
X145657142Y-142142380D01*
X145752380Y-142190000D01*
X145800000Y-142237619D01*
X145847619Y-142332857D01*
X145847619Y-142428095D01*
X145800000Y-142523333D01*
X145752380Y-142570952D01*
X145657142Y-142618571D01*
X145323809Y-142618571D01*
X146752380Y-143142380D02*
X146752380Y-142618571D01*
X146704761Y-142523333D01*
X146609523Y-142475714D01*
X146419047Y-142475714D01*
X146323809Y-142523333D01*
X146752380Y-143094761D02*
X146657142Y-143142380D01*
X146419047Y-143142380D01*
X146323809Y-143094761D01*
X146276190Y-142999523D01*
X146276190Y-142904285D01*
X146323809Y-142809047D01*
X146419047Y-142761428D01*
X146657142Y-142761428D01*
X146752380Y-142713809D01*
X147085714Y-142475714D02*
X147466666Y-142475714D01*
X147228571Y-142142380D02*
X147228571Y-142999523D01*
X147276190Y-143094761D01*
X147371428Y-143142380D01*
X147466666Y-143142380D01*
X147657142Y-142475714D02*
X148038095Y-142475714D01*
X147800000Y-142142380D02*
X147800000Y-142999523D01*
X147847619Y-143094761D01*
X147942857Y-143142380D01*
X148038095Y-143142380D01*
X148752380Y-143094761D02*
X148657142Y-143142380D01*
X148466666Y-143142380D01*
X148371428Y-143094761D01*
X148323809Y-142999523D01*
X148323809Y-142618571D01*
X148371428Y-142523333D01*
X148466666Y-142475714D01*
X148657142Y-142475714D01*
X148752380Y-142523333D01*
X148800000Y-142618571D01*
X148800000Y-142713809D01*
X148323809Y-142809047D01*
X149228571Y-143142380D02*
X149228571Y-142475714D01*
X149228571Y-142666190D02*
X149276190Y-142570952D01*
X149323809Y-142523333D01*
X149419047Y-142475714D01*
X149514285Y-142475714D01*
X149752380Y-142475714D02*
X149990476Y-143142380D01*
X150228571Y-142475714D02*
X149990476Y-143142380D01*
X149895238Y-143380476D01*
X149847619Y-143428095D01*
X149752380Y-143475714D01*
X144323809Y-143752380D02*
X144942857Y-143752380D01*
X144609523Y-144133333D01*
X144752380Y-144133333D01*
X144847619Y-144180952D01*
X144895238Y-144228571D01*
X144942857Y-144323809D01*
X144942857Y-144561904D01*
X144895238Y-144657142D01*
X144847619Y-144704761D01*
X144752380Y-144752380D01*
X144466666Y-144752380D01*
X144371428Y-144704761D01*
X144323809Y-144657142D01*
X145371428Y-144657142D02*
X145419047Y-144704761D01*
X145371428Y-144752380D01*
X145323809Y-144704761D01*
X145371428Y-144657142D01*
X145371428Y-144752380D01*
X145752380Y-143752380D02*
X146419047Y-143752380D01*
X145990476Y-144752380D01*
X146657142Y-143752380D02*
X146990476Y-144752380D01*
X147323809Y-143752380D01*
X143585714Y-146362380D02*
X143014285Y-146362380D01*
X143300000Y-146362380D02*
X143300000Y-145362380D01*
X143204761Y-145505238D01*
X143109523Y-145600476D01*
X143014285Y-145648095D01*
X144204761Y-145362380D02*
X144300000Y-145362380D01*
X144395238Y-145410000D01*
X144442857Y-145457619D01*
X144490476Y-145552857D01*
X144538095Y-145743333D01*
X144538095Y-145981428D01*
X144490476Y-146171904D01*
X144442857Y-146267142D01*
X144395238Y-146314761D01*
X144300000Y-146362380D01*
X144204761Y-146362380D01*
X144109523Y-146314761D01*
X144061904Y-146267142D01*
X144014285Y-146171904D01*
X143966666Y-145981428D01*
X143966666Y-145743333D01*
X144014285Y-145552857D01*
X144061904Y-145457619D01*
X144109523Y-145410000D01*
X144204761Y-145362380D01*
X145157142Y-145362380D02*
X145252380Y-145362380D01*
X145347619Y-145410000D01*
X145395238Y-145457619D01*
X145442857Y-145552857D01*
X145490476Y-145743333D01*
X145490476Y-145981428D01*
X145442857Y-146171904D01*
X145395238Y-146267142D01*
X145347619Y-146314761D01*
X145252380Y-146362380D01*
X145157142Y-146362380D01*
X145061904Y-146314761D01*
X145014285Y-146267142D01*
X144966666Y-146171904D01*
X144919047Y-145981428D01*
X144919047Y-145743333D01*
X144966666Y-145552857D01*
X145014285Y-145457619D01*
X145061904Y-145410000D01*
X145157142Y-145362380D01*
X145919047Y-146362380D02*
X145919047Y-145695714D01*
X145919047Y-145790952D02*
X145966666Y-145743333D01*
X146061904Y-145695714D01*
X146204761Y-145695714D01*
X146300000Y-145743333D01*
X146347619Y-145838571D01*
X146347619Y-146362380D01*
X146347619Y-145838571D02*
X146395238Y-145743333D01*
X146490476Y-145695714D01*
X146633333Y-145695714D01*
X146728571Y-145743333D01*
X146776190Y-145838571D01*
X146776190Y-146362380D01*
X147204761Y-146076666D02*
X147680952Y-146076666D01*
X147109523Y-146362380D02*
X147442857Y-145362380D01*
X147776190Y-146362380D01*
X148109523Y-146362380D02*
X148109523Y-145362380D01*
X148538095Y-146362380D02*
X148538095Y-145838571D01*
X148490476Y-145743333D01*
X148395238Y-145695714D01*
X148252380Y-145695714D01*
X148157142Y-145743333D01*
X148109523Y-145790952D01*
D12*
X167014285Y-124832142D02*
X167311904Y-125665476D01*
X167609523Y-124832142D01*
X168740476Y-125665476D02*
X168026190Y-125665476D01*
X168383333Y-125665476D02*
X168383333Y-124415476D01*
X168264285Y-124594047D01*
X168145238Y-124713095D01*
X168026190Y-124772619D01*
X169276190Y-125546428D02*
X169335714Y-125605952D01*
X169276190Y-125665476D01*
X169216666Y-125605952D01*
X169276190Y-125546428D01*
X169276190Y-125665476D01*
X170109523Y-124415476D02*
X170228571Y-124415476D01*
X170347619Y-124475000D01*
X170407142Y-124534523D01*
X170466666Y-124653571D01*
X170526190Y-124891666D01*
X170526190Y-125189285D01*
X170466666Y-125427380D01*
X170407142Y-125546428D01*
X170347619Y-125605952D01*
X170228571Y-125665476D01*
X170109523Y-125665476D01*
X169990476Y-125605952D01*
X169930952Y-125546428D01*
X169871428Y-125427380D01*
X169811904Y-125189285D01*
X169811904Y-124891666D01*
X169871428Y-124653571D01*
X169930952Y-124534523D01*
X169990476Y-124475000D01*
X170109523Y-124415476D01*
D13*
X135290476Y-122371428D02*
X136052380Y-122371428D01*
X136861904Y-122228571D02*
X137004761Y-122276190D01*
X137052380Y-122323809D01*
X137100000Y-122419047D01*
X137100000Y-122561904D01*
X137052380Y-122657142D01*
X137004761Y-122704761D01*
X136909523Y-122752380D01*
X136528571Y-122752380D01*
X136528571Y-121752380D01*
X136861904Y-121752380D01*
X136957142Y-121800000D01*
X137004761Y-121847619D01*
X137052380Y-121942857D01*
X137052380Y-122038095D01*
X137004761Y-122133333D01*
X136957142Y-122180952D01*
X136861904Y-122228571D01*
X136528571Y-122228571D01*
X137480952Y-122466666D02*
X137957142Y-122466666D01*
X137385714Y-122752380D02*
X137719047Y-121752380D01*
X138052380Y-122752380D01*
X138242857Y-121752380D02*
X138814285Y-121752380D01*
X138528571Y-122752380D02*
X138528571Y-121752380D01*
X139147619Y-122371428D02*
X139909523Y-122371428D01*
X139528571Y-122752380D02*
X139528571Y-121990476D01*
X157692857Y-127959226D02*
X157692857Y-126709226D01*
X157990476Y-126709226D01*
X158169047Y-126768750D01*
X158288095Y-126887797D01*
X158347619Y-127006845D01*
X158407142Y-127244940D01*
X158407142Y-127423511D01*
X158347619Y-127661607D01*
X158288095Y-127780654D01*
X158169047Y-127899702D01*
X157990476Y-127959226D01*
X157692857Y-127959226D01*
X159419047Y-127899702D02*
X159300000Y-127959226D01*
X159061904Y-127959226D01*
X158942857Y-127899702D01*
X158883333Y-127780654D01*
X158883333Y-127304464D01*
X158942857Y-127185416D01*
X159061904Y-127125892D01*
X159300000Y-127125892D01*
X159419047Y-127185416D01*
X159478571Y-127304464D01*
X159478571Y-127423511D01*
X158883333Y-127542559D01*
X159835714Y-127125892D02*
X160311904Y-127125892D01*
X160014285Y-126709226D02*
X160014285Y-127780654D01*
X160073809Y-127899702D01*
X160192857Y-127959226D01*
X160311904Y-127959226D01*
X161204761Y-127899702D02*
X161085714Y-127959226D01*
X160847619Y-127959226D01*
X160728571Y-127899702D01*
X160669047Y-127780654D01*
X160669047Y-127304464D01*
X160728571Y-127185416D01*
X160847619Y-127125892D01*
X161085714Y-127125892D01*
X161204761Y-127185416D01*
X161264285Y-127304464D01*
X161264285Y-127423511D01*
X160669047Y-127542559D01*
X162335714Y-127899702D02*
X162216666Y-127959226D01*
X161978571Y-127959226D01*
X161859523Y-127899702D01*
X161800000Y-127840178D01*
X161740476Y-127721130D01*
X161740476Y-127363988D01*
X161800000Y-127244940D01*
X161859523Y-127185416D01*
X161978571Y-127125892D01*
X162216666Y-127125892D01*
X162335714Y-127185416D01*
X162692857Y-127125892D02*
X163169047Y-127125892D01*
X162871428Y-126709226D02*
X162871428Y-127780654D01*
X162930952Y-127899702D01*
X163050000Y-127959226D01*
X163169047Y-127959226D01*
X163585714Y-127959226D02*
X163585714Y-127125892D01*
X163585714Y-126709226D02*
X163526190Y-126768750D01*
X163585714Y-126828273D01*
X163645238Y-126768750D01*
X163585714Y-126709226D01*
X163585714Y-126828273D01*
X164061904Y-127125892D02*
X164359523Y-127959226D01*
X164657142Y-127125892D01*
X165609523Y-127899702D02*
X165490476Y-127959226D01*
X165252380Y-127959226D01*
X165133333Y-127899702D01*
X165073809Y-127780654D01*
X165073809Y-127304464D01*
X165133333Y-127185416D01*
X165252380Y-127125892D01*
X165490476Y-127125892D01*
X165609523Y-127185416D01*
X165669047Y-127304464D01*
X165669047Y-127423511D01*
X165073809Y-127542559D01*
X167573809Y-127304464D02*
X167752380Y-127363988D01*
X167811904Y-127423511D01*
X167871428Y-127542559D01*
X167871428Y-127721130D01*
X167811904Y-127840178D01*
X167752380Y-127899702D01*
X167633333Y-127959226D01*
X167157142Y-127959226D01*
X167157142Y-126709226D01*
X167573809Y-126709226D01*
X167692857Y-126768750D01*
X167752380Y-126828273D01*
X167811904Y-126947321D01*
X167811904Y-127066369D01*
X167752380Y-127185416D01*
X167692857Y-127244940D01*
X167573809Y-127304464D01*
X167157142Y-127304464D01*
X168585714Y-127959226D02*
X168466666Y-127899702D01*
X168407142Y-127840178D01*
X168347619Y-127721130D01*
X168347619Y-127363988D01*
X168407142Y-127244940D01*
X168466666Y-127185416D01*
X168585714Y-127125892D01*
X168764285Y-127125892D01*
X168883333Y-127185416D01*
X168942857Y-127244940D01*
X169002380Y-127363988D01*
X169002380Y-127721130D01*
X168942857Y-127840178D01*
X168883333Y-127899702D01*
X168764285Y-127959226D01*
X168585714Y-127959226D01*
X169419047Y-127125892D02*
X169716666Y-127959226D01*
X170014285Y-127125892D02*
X169716666Y-127959226D01*
X169597619Y-128256845D01*
X169538095Y-128316369D01*
X169419047Y-128375892D01*
X170430952Y-127899702D02*
X170550000Y-127959226D01*
X170788095Y-127959226D01*
X170907142Y-127899702D01*
X170966666Y-127780654D01*
X170966666Y-127721130D01*
X170907142Y-127602083D01*
X170788095Y-127542559D01*
X170609523Y-127542559D01*
X170490476Y-127483035D01*
X170430952Y-127363988D01*
X170430952Y-127304464D01*
X170490476Y-127185416D01*
X170609523Y-127125892D01*
X170788095Y-127125892D01*
X170907142Y-127185416D01*
X158347619Y-128721726D02*
X158645238Y-129971726D01*
X158883333Y-129078869D01*
X159121428Y-129971726D01*
X159419047Y-128721726D01*
X160430952Y-129971726D02*
X160430952Y-129316964D01*
X160371428Y-129197916D01*
X160252380Y-129138392D01*
X160014285Y-129138392D01*
X159895238Y-129197916D01*
X160430952Y-129912202D02*
X160311904Y-129971726D01*
X160014285Y-129971726D01*
X159895238Y-129912202D01*
X159835714Y-129793154D01*
X159835714Y-129674107D01*
X159895238Y-129555059D01*
X160014285Y-129495535D01*
X160311904Y-129495535D01*
X160430952Y-129436011D01*
X161204761Y-129971726D02*
X161085714Y-129912202D01*
X161026190Y-129793154D01*
X161026190Y-128721726D01*
X161680952Y-129971726D02*
X161680952Y-128721726D01*
X161800000Y-129495535D02*
X162157142Y-129971726D01*
X162157142Y-129138392D02*
X161680952Y-129614583D01*
X162692857Y-129971726D02*
X162692857Y-129138392D01*
X162692857Y-128721726D02*
X162633333Y-128781250D01*
X162692857Y-128840773D01*
X162752380Y-128781250D01*
X162692857Y-128721726D01*
X162692857Y-128840773D01*
X163764285Y-129912202D02*
X163645238Y-129971726D01*
X163407142Y-129971726D01*
X163288095Y-129912202D01*
X163228571Y-129793154D01*
X163228571Y-129316964D01*
X163288095Y-129197916D01*
X163407142Y-129138392D01*
X163645238Y-129138392D01*
X163764285Y-129197916D01*
X163823809Y-129316964D01*
X163823809Y-129436011D01*
X163228571Y-129555059D01*
X165133333Y-128721726D02*
X165847619Y-128721726D01*
X165490476Y-129971726D02*
X165490476Y-128721726D01*
X166800000Y-129971726D02*
X166800000Y-129316964D01*
X166740476Y-129197916D01*
X166621428Y-129138392D01*
X166383333Y-129138392D01*
X166264285Y-129197916D01*
X166800000Y-129912202D02*
X166680952Y-129971726D01*
X166383333Y-129971726D01*
X166264285Y-129912202D01*
X166204761Y-129793154D01*
X166204761Y-129674107D01*
X166264285Y-129555059D01*
X166383333Y-129495535D01*
X166680952Y-129495535D01*
X166800000Y-129436011D01*
X167573809Y-129971726D02*
X167454761Y-129912202D01*
X167395238Y-129793154D01*
X167395238Y-128721726D01*
X168050000Y-129971726D02*
X168050000Y-128721726D01*
X168169047Y-129495535D02*
X168526190Y-129971726D01*
X168526190Y-129138392D02*
X168050000Y-129614583D01*
X169061904Y-129971726D02*
X169061904Y-129138392D01*
X169061904Y-128721726D02*
X169002380Y-128781250D01*
X169061904Y-128840773D01*
X169121428Y-128781250D01*
X169061904Y-128721726D01*
X169061904Y-128840773D01*
X170133333Y-129912202D02*
X170014285Y-129971726D01*
X169776190Y-129971726D01*
X169657142Y-129912202D01*
X169597619Y-129793154D01*
X169597619Y-129316964D01*
X169657142Y-129197916D01*
X169776190Y-129138392D01*
X170014285Y-129138392D01*
X170133333Y-129197916D01*
X170192857Y-129316964D01*
X170192857Y-129436011D01*
X169597619Y-129555059D01*
D11*
%TO.C,C6*%
X138333333Y-129757142D02*
X138285714Y-129804761D01*
X138142857Y-129852380D01*
X138047619Y-129852380D01*
X137904761Y-129804761D01*
X137809523Y-129709523D01*
X137761904Y-129614285D01*
X137714285Y-129423809D01*
X137714285Y-129280952D01*
X137761904Y-129090476D01*
X137809523Y-128995238D01*
X137904761Y-128900000D01*
X138047619Y-128852380D01*
X138142857Y-128852380D01*
X138285714Y-128900000D01*
X138333333Y-128947619D01*
X139190476Y-128852380D02*
X139000000Y-128852380D01*
X138904761Y-128900000D01*
X138857142Y-128947619D01*
X138761904Y-129090476D01*
X138714285Y-129280952D01*
X138714285Y-129661904D01*
X138761904Y-129757142D01*
X138809523Y-129804761D01*
X138904761Y-129852380D01*
X139095238Y-129852380D01*
X139190476Y-129804761D01*
X139238095Y-129757142D01*
X139285714Y-129661904D01*
X139285714Y-129423809D01*
X139238095Y-129328571D01*
X139190476Y-129280952D01*
X139095238Y-129233333D01*
X138904761Y-129233333D01*
X138809523Y-129280952D01*
X138761904Y-129328571D01*
X138714285Y-129423809D01*
%TO.C,R9*%
X155833333Y-118952380D02*
X155500000Y-118476190D01*
X155261904Y-118952380D02*
X155261904Y-117952380D01*
X155642857Y-117952380D01*
X155738095Y-118000000D01*
X155785714Y-118047619D01*
X155833333Y-118142857D01*
X155833333Y-118285714D01*
X155785714Y-118380952D01*
X155738095Y-118428571D01*
X155642857Y-118476190D01*
X155261904Y-118476190D01*
X156309523Y-118952380D02*
X156500000Y-118952380D01*
X156595238Y-118904761D01*
X156642857Y-118857142D01*
X156738095Y-118714285D01*
X156785714Y-118523809D01*
X156785714Y-118142857D01*
X156738095Y-118047619D01*
X156690476Y-118000000D01*
X156595238Y-117952380D01*
X156404761Y-117952380D01*
X156309523Y-118000000D01*
X156261904Y-118047619D01*
X156214285Y-118142857D01*
X156214285Y-118380952D01*
X156261904Y-118476190D01*
X156309523Y-118523809D01*
X156404761Y-118571428D01*
X156595238Y-118571428D01*
X156690476Y-118523809D01*
X156738095Y-118476190D01*
X156785714Y-118380952D01*
%TO.C,J1*%
X157452380Y-104533333D02*
X158166666Y-104533333D01*
X158309523Y-104580952D01*
X158404761Y-104676190D01*
X158452380Y-104819047D01*
X158452380Y-104914285D01*
X158452380Y-103533333D02*
X158452380Y-104104761D01*
X158452380Y-103819047D02*
X157452380Y-103819047D01*
X157595238Y-103914285D01*
X157690476Y-104009523D01*
X157738095Y-104104761D01*
%TO.C,SW2*%
X168804761Y-136033333D02*
X168852380Y-135890476D01*
X168852380Y-135652380D01*
X168804761Y-135557142D01*
X168757142Y-135509523D01*
X168661904Y-135461904D01*
X168566666Y-135461904D01*
X168471428Y-135509523D01*
X168423809Y-135557142D01*
X168376190Y-135652380D01*
X168328571Y-135842857D01*
X168280952Y-135938095D01*
X168233333Y-135985714D01*
X168138095Y-136033333D01*
X168042857Y-136033333D01*
X167947619Y-135985714D01*
X167900000Y-135938095D01*
X167852380Y-135842857D01*
X167852380Y-135604761D01*
X167900000Y-135461904D01*
X167852380Y-135128571D02*
X168852380Y-134890476D01*
X168138095Y-134700000D01*
X168852380Y-134509523D01*
X167852380Y-134271428D01*
X167947619Y-133938095D02*
X167900000Y-133890476D01*
X167852380Y-133795238D01*
X167852380Y-133557142D01*
X167900000Y-133461904D01*
X167947619Y-133414285D01*
X168042857Y-133366666D01*
X168138095Y-133366666D01*
X168280952Y-133414285D01*
X168852380Y-133985714D01*
X168852380Y-133366666D01*
%TO.C,D1*%
X134161904Y-143952380D02*
X134161904Y-142952380D01*
X134400000Y-142952380D01*
X134542857Y-143000000D01*
X134638095Y-143095238D01*
X134685714Y-143190476D01*
X134733333Y-143380952D01*
X134733333Y-143523809D01*
X134685714Y-143714285D01*
X134638095Y-143809523D01*
X134542857Y-143904761D01*
X134400000Y-143952380D01*
X134161904Y-143952380D01*
X135685714Y-143952380D02*
X135114285Y-143952380D01*
X135400000Y-143952380D02*
X135400000Y-142952380D01*
X135304761Y-143095238D01*
X135209523Y-143190476D01*
X135114285Y-143238095D01*
%TO.C,C7*%
X145533333Y-109557142D02*
X145485714Y-109604761D01*
X145342857Y-109652380D01*
X145247619Y-109652380D01*
X145104761Y-109604761D01*
X145009523Y-109509523D01*
X144961904Y-109414285D01*
X144914285Y-109223809D01*
X144914285Y-109080952D01*
X144961904Y-108890476D01*
X145009523Y-108795238D01*
X145104761Y-108700000D01*
X145247619Y-108652380D01*
X145342857Y-108652380D01*
X145485714Y-108700000D01*
X145533333Y-108747619D01*
X145866666Y-108652380D02*
X146533333Y-108652380D01*
X146104761Y-109652380D01*
%TO.C,U1*%
X158747380Y-119741904D02*
X159556904Y-119741904D01*
X159652142Y-119694285D01*
X159699761Y-119646666D01*
X159747380Y-119551428D01*
X159747380Y-119360952D01*
X159699761Y-119265714D01*
X159652142Y-119218095D01*
X159556904Y-119170476D01*
X158747380Y-119170476D01*
X159747380Y-118170476D02*
X159747380Y-118741904D01*
X159747380Y-118456190D02*
X158747380Y-118456190D01*
X158890238Y-118551428D01*
X158985476Y-118646666D01*
X159033095Y-118741904D01*
X162571190Y-118132380D02*
X162571190Y-117132380D01*
X163142619Y-118132380D01*
X163142619Y-117132380D01*
X164190238Y-118132380D02*
X163856904Y-117656190D01*
X163618809Y-118132380D02*
X163618809Y-117132380D01*
X163999761Y-117132380D01*
X164095000Y-117180000D01*
X164142619Y-117227619D01*
X164190238Y-117322857D01*
X164190238Y-117465714D01*
X164142619Y-117560952D01*
X164095000Y-117608571D01*
X163999761Y-117656190D01*
X163618809Y-117656190D01*
X164952142Y-117608571D02*
X164618809Y-117608571D01*
X164618809Y-118132380D02*
X164618809Y-117132380D01*
X165095000Y-117132380D01*
X165428333Y-117227619D02*
X165475952Y-117180000D01*
X165571190Y-117132380D01*
X165809285Y-117132380D01*
X165904523Y-117180000D01*
X165952142Y-117227619D01*
X165999761Y-117322857D01*
X165999761Y-117418095D01*
X165952142Y-117560952D01*
X165380714Y-118132380D01*
X165999761Y-118132380D01*
X166856904Y-117465714D02*
X166856904Y-118132380D01*
X166618809Y-117084761D02*
X166380714Y-117799047D01*
X166999761Y-117799047D01*
X167856904Y-118132380D02*
X167380714Y-118132380D01*
X167380714Y-117132380D01*
X168380714Y-117132380D02*
X168475952Y-117132380D01*
X168571190Y-117180000D01*
X168618809Y-117227619D01*
X168666428Y-117322857D01*
X168714047Y-117513333D01*
X168714047Y-117751428D01*
X168666428Y-117941904D01*
X168618809Y-118037142D01*
X168571190Y-118084761D01*
X168475952Y-118132380D01*
X168380714Y-118132380D01*
X168285476Y-118084761D01*
X168237857Y-118037142D01*
X168190238Y-117941904D01*
X168142619Y-117751428D01*
X168142619Y-117513333D01*
X168190238Y-117322857D01*
X168237857Y-117227619D01*
X168285476Y-117180000D01*
X168380714Y-117132380D01*
X169666428Y-118132380D02*
X169095000Y-118132380D01*
X169380714Y-118132380D02*
X169380714Y-117132380D01*
X169285476Y-117275238D01*
X169190238Y-117370476D01*
X169095000Y-117418095D01*
%TO.C,C9*%
X145633333Y-111557142D02*
X145585714Y-111604761D01*
X145442857Y-111652380D01*
X145347619Y-111652380D01*
X145204761Y-111604761D01*
X145109523Y-111509523D01*
X145061904Y-111414285D01*
X145014285Y-111223809D01*
X145014285Y-111080952D01*
X145061904Y-110890476D01*
X145109523Y-110795238D01*
X145204761Y-110700000D01*
X145347619Y-110652380D01*
X145442857Y-110652380D01*
X145585714Y-110700000D01*
X145633333Y-110747619D01*
X146109523Y-111652380D02*
X146300000Y-111652380D01*
X146395238Y-111604761D01*
X146442857Y-111557142D01*
X146538095Y-111414285D01*
X146585714Y-111223809D01*
X146585714Y-110842857D01*
X146538095Y-110747619D01*
X146490476Y-110700000D01*
X146395238Y-110652380D01*
X146204761Y-110652380D01*
X146109523Y-110700000D01*
X146061904Y-110747619D01*
X146014285Y-110842857D01*
X146014285Y-111080952D01*
X146061904Y-111176190D01*
X146109523Y-111223809D01*
X146204761Y-111271428D01*
X146395238Y-111271428D01*
X146490476Y-111223809D01*
X146538095Y-111176190D01*
X146585714Y-111080952D01*
%TO.C,C5*%
X142033333Y-119307142D02*
X141985714Y-119354761D01*
X141842857Y-119402380D01*
X141747619Y-119402380D01*
X141604761Y-119354761D01*
X141509523Y-119259523D01*
X141461904Y-119164285D01*
X141414285Y-118973809D01*
X141414285Y-118830952D01*
X141461904Y-118640476D01*
X141509523Y-118545238D01*
X141604761Y-118450000D01*
X141747619Y-118402380D01*
X141842857Y-118402380D01*
X141985714Y-118450000D01*
X142033333Y-118497619D01*
X142938095Y-118402380D02*
X142461904Y-118402380D01*
X142414285Y-118878571D01*
X142461904Y-118830952D01*
X142557142Y-118783333D01*
X142795238Y-118783333D01*
X142890476Y-118830952D01*
X142938095Y-118878571D01*
X142985714Y-118973809D01*
X142985714Y-119211904D01*
X142938095Y-119307142D01*
X142890476Y-119354761D01*
X142795238Y-119402380D01*
X142557142Y-119402380D01*
X142461904Y-119354761D01*
X142414285Y-119307142D01*
%TO.C,R13*%
X163057142Y-154302380D02*
X162723809Y-153826190D01*
X162485714Y-154302380D02*
X162485714Y-153302380D01*
X162866666Y-153302380D01*
X162961904Y-153350000D01*
X163009523Y-153397619D01*
X163057142Y-153492857D01*
X163057142Y-153635714D01*
X163009523Y-153730952D01*
X162961904Y-153778571D01*
X162866666Y-153826190D01*
X162485714Y-153826190D01*
X164009523Y-154302380D02*
X163438095Y-154302380D01*
X163723809Y-154302380D02*
X163723809Y-153302380D01*
X163628571Y-153445238D01*
X163533333Y-153540476D01*
X163438095Y-153588095D01*
X164342857Y-153302380D02*
X164961904Y-153302380D01*
X164628571Y-153683333D01*
X164771428Y-153683333D01*
X164866666Y-153730952D01*
X164914285Y-153778571D01*
X164961904Y-153873809D01*
X164961904Y-154111904D01*
X164914285Y-154207142D01*
X164866666Y-154254761D01*
X164771428Y-154302380D01*
X164485714Y-154302380D01*
X164390476Y-154254761D01*
X164342857Y-154207142D01*
%TO.C,C11*%
X170557142Y-148242857D02*
X170604761Y-148290476D01*
X170652380Y-148433333D01*
X170652380Y-148528571D01*
X170604761Y-148671428D01*
X170509523Y-148766666D01*
X170414285Y-148814285D01*
X170223809Y-148861904D01*
X170080952Y-148861904D01*
X169890476Y-148814285D01*
X169795238Y-148766666D01*
X169700000Y-148671428D01*
X169652380Y-148528571D01*
X169652380Y-148433333D01*
X169700000Y-148290476D01*
X169747619Y-148242857D01*
X170652380Y-147290476D02*
X170652380Y-147861904D01*
X170652380Y-147576190D02*
X169652380Y-147576190D01*
X169795238Y-147671428D01*
X169890476Y-147766666D01*
X169938095Y-147861904D01*
X170652380Y-146338095D02*
X170652380Y-146909523D01*
X170652380Y-146623809D02*
X169652380Y-146623809D01*
X169795238Y-146719047D01*
X169890476Y-146814285D01*
X169938095Y-146909523D01*
%TO.C,U4*%
X147952380Y-128961904D02*
X148761904Y-128961904D01*
X148857142Y-128914285D01*
X148904761Y-128866666D01*
X148952380Y-128771428D01*
X148952380Y-128580952D01*
X148904761Y-128485714D01*
X148857142Y-128438095D01*
X148761904Y-128390476D01*
X147952380Y-128390476D01*
X148285714Y-127485714D02*
X148952380Y-127485714D01*
X147904761Y-127723809D02*
X148619047Y-127961904D01*
X148619047Y-127342857D01*
%TO.C,D2*%
X136811904Y-107402380D02*
X136811904Y-106402380D01*
X137050000Y-106402380D01*
X137192857Y-106450000D01*
X137288095Y-106545238D01*
X137335714Y-106640476D01*
X137383333Y-106830952D01*
X137383333Y-106973809D01*
X137335714Y-107164285D01*
X137288095Y-107259523D01*
X137192857Y-107354761D01*
X137050000Y-107402380D01*
X136811904Y-107402380D01*
X137764285Y-106497619D02*
X137811904Y-106450000D01*
X137907142Y-106402380D01*
X138145238Y-106402380D01*
X138240476Y-106450000D01*
X138288095Y-106497619D01*
X138335714Y-106592857D01*
X138335714Y-106688095D01*
X138288095Y-106830952D01*
X137716666Y-107402380D01*
X138335714Y-107402380D01*
%TO.C,SW1*%
X133566666Y-130004761D02*
X133709523Y-130052380D01*
X133947619Y-130052380D01*
X134042857Y-130004761D01*
X134090476Y-129957142D01*
X134138095Y-129861904D01*
X134138095Y-129766666D01*
X134090476Y-129671428D01*
X134042857Y-129623809D01*
X133947619Y-129576190D01*
X133757142Y-129528571D01*
X133661904Y-129480952D01*
X133614285Y-129433333D01*
X133566666Y-129338095D01*
X133566666Y-129242857D01*
X133614285Y-129147619D01*
X133661904Y-129100000D01*
X133757142Y-129052380D01*
X133995238Y-129052380D01*
X134138095Y-129100000D01*
X134471428Y-129052380D02*
X134709523Y-130052380D01*
X134900000Y-129338095D01*
X135090476Y-130052380D01*
X135328571Y-129052380D01*
X136233333Y-130052380D02*
X135661904Y-130052380D01*
X135947619Y-130052380D02*
X135947619Y-129052380D01*
X135852380Y-129195238D01*
X135757142Y-129290476D01*
X135661904Y-129338095D01*
%TO.C,R6*%
X150752380Y-114166666D02*
X150276190Y-114500000D01*
X150752380Y-114738095D02*
X149752380Y-114738095D01*
X149752380Y-114357142D01*
X149800000Y-114261904D01*
X149847619Y-114214285D01*
X149942857Y-114166666D01*
X150085714Y-114166666D01*
X150180952Y-114214285D01*
X150228571Y-114261904D01*
X150276190Y-114357142D01*
X150276190Y-114738095D01*
X149752380Y-113309523D02*
X149752380Y-113500000D01*
X149800000Y-113595238D01*
X149847619Y-113642857D01*
X149990476Y-113738095D01*
X150180952Y-113785714D01*
X150561904Y-113785714D01*
X150657142Y-113738095D01*
X150704761Y-113690476D01*
X150752380Y-113595238D01*
X150752380Y-113404761D01*
X150704761Y-113309523D01*
X150657142Y-113261904D01*
X150561904Y-113214285D01*
X150323809Y-113214285D01*
X150228571Y-113261904D01*
X150180952Y-113309523D01*
X150133333Y-113404761D01*
X150133333Y-113595238D01*
X150180952Y-113690476D01*
X150228571Y-113738095D01*
X150323809Y-113785714D01*
%TO.C,R8*%
X152533333Y-118852380D02*
X152200000Y-118376190D01*
X151961904Y-118852380D02*
X151961904Y-117852380D01*
X152342857Y-117852380D01*
X152438095Y-117900000D01*
X152485714Y-117947619D01*
X152533333Y-118042857D01*
X152533333Y-118185714D01*
X152485714Y-118280952D01*
X152438095Y-118328571D01*
X152342857Y-118376190D01*
X151961904Y-118376190D01*
X153104761Y-118280952D02*
X153009523Y-118233333D01*
X152961904Y-118185714D01*
X152914285Y-118090476D01*
X152914285Y-118042857D01*
X152961904Y-117947619D01*
X153009523Y-117900000D01*
X153104761Y-117852380D01*
X153295238Y-117852380D01*
X153390476Y-117900000D01*
X153438095Y-117947619D01*
X153485714Y-118042857D01*
X153485714Y-118090476D01*
X153438095Y-118185714D01*
X153390476Y-118233333D01*
X153295238Y-118280952D01*
X153104761Y-118280952D01*
X153009523Y-118328571D01*
X152961904Y-118376190D01*
X152914285Y-118471428D01*
X152914285Y-118661904D01*
X152961904Y-118757142D01*
X153009523Y-118804761D01*
X153104761Y-118852380D01*
X153295238Y-118852380D01*
X153390476Y-118804761D01*
X153438095Y-118757142D01*
X153485714Y-118661904D01*
X153485714Y-118471428D01*
X153438095Y-118376190D01*
X153390476Y-118328571D01*
X153295238Y-118280952D01*
%TO.C,R7*%
X147252380Y-119566666D02*
X146776190Y-119900000D01*
X147252380Y-120138095D02*
X146252380Y-120138095D01*
X146252380Y-119757142D01*
X146300000Y-119661904D01*
X146347619Y-119614285D01*
X146442857Y-119566666D01*
X146585714Y-119566666D01*
X146680952Y-119614285D01*
X146728571Y-119661904D01*
X146776190Y-119757142D01*
X146776190Y-120138095D01*
X146252380Y-119233333D02*
X146252380Y-118566666D01*
X147252380Y-118995238D01*
%TO.C,R5*%
X145652380Y-113466666D02*
X145176190Y-113800000D01*
X145652380Y-114038095D02*
X144652380Y-114038095D01*
X144652380Y-113657142D01*
X144700000Y-113561904D01*
X144747619Y-113514285D01*
X144842857Y-113466666D01*
X144985714Y-113466666D01*
X145080952Y-113514285D01*
X145128571Y-113561904D01*
X145176190Y-113657142D01*
X145176190Y-114038095D01*
X144652380Y-112561904D02*
X144652380Y-113038095D01*
X145128571Y-113085714D01*
X145080952Y-113038095D01*
X145033333Y-112942857D01*
X145033333Y-112704761D01*
X145080952Y-112609523D01*
X145128571Y-112561904D01*
X145223809Y-112514285D01*
X145461904Y-112514285D01*
X145557142Y-112561904D01*
X145604761Y-112609523D01*
X145652380Y-112704761D01*
X145652380Y-112942857D01*
X145604761Y-113038095D01*
X145557142Y-113085714D01*
%TO.C,RG1*%
X155433333Y-125952380D02*
X155100000Y-125476190D01*
X154861904Y-125952380D02*
X154861904Y-124952380D01*
X155242857Y-124952380D01*
X155338095Y-125000000D01*
X155385714Y-125047619D01*
X155433333Y-125142857D01*
X155433333Y-125285714D01*
X155385714Y-125380952D01*
X155338095Y-125428571D01*
X155242857Y-125476190D01*
X154861904Y-125476190D01*
X156385714Y-125000000D02*
X156290476Y-124952380D01*
X156147619Y-124952380D01*
X156004761Y-125000000D01*
X155909523Y-125095238D01*
X155861904Y-125190476D01*
X155814285Y-125380952D01*
X155814285Y-125523809D01*
X155861904Y-125714285D01*
X155909523Y-125809523D01*
X156004761Y-125904761D01*
X156147619Y-125952380D01*
X156242857Y-125952380D01*
X156385714Y-125904761D01*
X156433333Y-125857142D01*
X156433333Y-125523809D01*
X156242857Y-125523809D01*
X157385714Y-125952380D02*
X156814285Y-125952380D01*
X157100000Y-125952380D02*
X157100000Y-124952380D01*
X157004761Y-125095238D01*
X156909523Y-125190476D01*
X156814285Y-125238095D01*
%TO.C,C2*%
X138682142Y-131541666D02*
X138729761Y-131589285D01*
X138777380Y-131732142D01*
X138777380Y-131827380D01*
X138729761Y-131970238D01*
X138634523Y-132065476D01*
X138539285Y-132113095D01*
X138348809Y-132160714D01*
X138205952Y-132160714D01*
X138015476Y-132113095D01*
X137920238Y-132065476D01*
X137825000Y-131970238D01*
X137777380Y-131827380D01*
X137777380Y-131732142D01*
X137825000Y-131589285D01*
X137872619Y-131541666D01*
X137872619Y-131160714D02*
X137825000Y-131113095D01*
X137777380Y-131017857D01*
X137777380Y-130779761D01*
X137825000Y-130684523D01*
X137872619Y-130636904D01*
X137967857Y-130589285D01*
X138063095Y-130589285D01*
X138205952Y-130636904D01*
X138777380Y-131208333D01*
X138777380Y-130589285D01*
%TO.C,R11*%
X158202380Y-123542857D02*
X157726190Y-123876190D01*
X158202380Y-124114285D02*
X157202380Y-124114285D01*
X157202380Y-123733333D01*
X157250000Y-123638095D01*
X157297619Y-123590476D01*
X157392857Y-123542857D01*
X157535714Y-123542857D01*
X157630952Y-123590476D01*
X157678571Y-123638095D01*
X157726190Y-123733333D01*
X157726190Y-124114285D01*
X158202380Y-122590476D02*
X158202380Y-123161904D01*
X158202380Y-122876190D02*
X157202380Y-122876190D01*
X157345238Y-122971428D01*
X157440476Y-123066666D01*
X157488095Y-123161904D01*
X158202380Y-121638095D02*
X158202380Y-122209523D01*
X158202380Y-121923809D02*
X157202380Y-121923809D01*
X157345238Y-122019047D01*
X157440476Y-122114285D01*
X157488095Y-122209523D01*
%TO.C,U5*%
X165638095Y-149652380D02*
X165638095Y-150461904D01*
X165685714Y-150557142D01*
X165733333Y-150604761D01*
X165828571Y-150652380D01*
X166019047Y-150652380D01*
X166114285Y-150604761D01*
X166161904Y-150557142D01*
X166209523Y-150461904D01*
X166209523Y-149652380D01*
X167161904Y-149652380D02*
X166685714Y-149652380D01*
X166638095Y-150128571D01*
X166685714Y-150080952D01*
X166780952Y-150033333D01*
X167019047Y-150033333D01*
X167114285Y-150080952D01*
X167161904Y-150128571D01*
X167209523Y-150223809D01*
X167209523Y-150461904D01*
X167161904Y-150557142D01*
X167114285Y-150604761D01*
X167019047Y-150652380D01*
X166780952Y-150652380D01*
X166685714Y-150604761D01*
X166638095Y-150557142D01*
%TO.C,C1*%
X159633333Y-125657142D02*
X159585714Y-125704761D01*
X159442857Y-125752380D01*
X159347619Y-125752380D01*
X159204761Y-125704761D01*
X159109523Y-125609523D01*
X159061904Y-125514285D01*
X159014285Y-125323809D01*
X159014285Y-125180952D01*
X159061904Y-124990476D01*
X159109523Y-124895238D01*
X159204761Y-124800000D01*
X159347619Y-124752380D01*
X159442857Y-124752380D01*
X159585714Y-124800000D01*
X159633333Y-124847619D01*
X160585714Y-125752380D02*
X160014285Y-125752380D01*
X160300000Y-125752380D02*
X160300000Y-124752380D01*
X160204761Y-124895238D01*
X160109523Y-124990476D01*
X160014285Y-125038095D01*
%TO.C,C3*%
X143657142Y-112716666D02*
X143704761Y-112764285D01*
X143752380Y-112907142D01*
X143752380Y-113002380D01*
X143704761Y-113145238D01*
X143609523Y-113240476D01*
X143514285Y-113288095D01*
X143323809Y-113335714D01*
X143180952Y-113335714D01*
X142990476Y-113288095D01*
X142895238Y-113240476D01*
X142800000Y-113145238D01*
X142752380Y-113002380D01*
X142752380Y-112907142D01*
X142800000Y-112764285D01*
X142847619Y-112716666D01*
X142752380Y-112383333D02*
X142752380Y-111764285D01*
X143133333Y-112097619D01*
X143133333Y-111954761D01*
X143180952Y-111859523D01*
X143228571Y-111811904D01*
X143323809Y-111764285D01*
X143561904Y-111764285D01*
X143657142Y-111811904D01*
X143704761Y-111859523D01*
X143752380Y-111954761D01*
X143752380Y-112240476D01*
X143704761Y-112335714D01*
X143657142Y-112383333D01*
%TO.C,R10*%
X148552380Y-124342857D02*
X148076190Y-124676190D01*
X148552380Y-124914285D02*
X147552380Y-124914285D01*
X147552380Y-124533333D01*
X147600000Y-124438095D01*
X147647619Y-124390476D01*
X147742857Y-124342857D01*
X147885714Y-124342857D01*
X147980952Y-124390476D01*
X148028571Y-124438095D01*
X148076190Y-124533333D01*
X148076190Y-124914285D01*
X148552380Y-123390476D02*
X148552380Y-123961904D01*
X148552380Y-123676190D02*
X147552380Y-123676190D01*
X147695238Y-123771428D01*
X147790476Y-123866666D01*
X147838095Y-123961904D01*
X147552380Y-122771428D02*
X147552380Y-122676190D01*
X147600000Y-122580952D01*
X147647619Y-122533333D01*
X147742857Y-122485714D01*
X147933333Y-122438095D01*
X148171428Y-122438095D01*
X148361904Y-122485714D01*
X148457142Y-122533333D01*
X148504761Y-122580952D01*
X148552380Y-122676190D01*
X148552380Y-122771428D01*
X148504761Y-122866666D01*
X148457142Y-122914285D01*
X148361904Y-122961904D01*
X148171428Y-123009523D01*
X147933333Y-123009523D01*
X147742857Y-122961904D01*
X147647619Y-122914285D01*
X147600000Y-122866666D01*
X147552380Y-122771428D01*
%TO.C,USB1*%
X133061904Y-109927380D02*
X133061904Y-110736904D01*
X133109523Y-110832142D01*
X133157142Y-110879761D01*
X133252380Y-110927380D01*
X133442857Y-110927380D01*
X133538095Y-110879761D01*
X133585714Y-110832142D01*
X133633333Y-110736904D01*
X133633333Y-109927380D01*
X134061904Y-110879761D02*
X134204761Y-110927380D01*
X134442857Y-110927380D01*
X134538095Y-110879761D01*
X134585714Y-110832142D01*
X134633333Y-110736904D01*
X134633333Y-110641666D01*
X134585714Y-110546428D01*
X134538095Y-110498809D01*
X134442857Y-110451190D01*
X134252380Y-110403571D01*
X134157142Y-110355952D01*
X134109523Y-110308333D01*
X134061904Y-110213095D01*
X134061904Y-110117857D01*
X134109523Y-110022619D01*
X134157142Y-109975000D01*
X134252380Y-109927380D01*
X134490476Y-109927380D01*
X134633333Y-109975000D01*
X135395238Y-110403571D02*
X135538095Y-110451190D01*
X135585714Y-110498809D01*
X135633333Y-110594047D01*
X135633333Y-110736904D01*
X135585714Y-110832142D01*
X135538095Y-110879761D01*
X135442857Y-110927380D01*
X135061904Y-110927380D01*
X135061904Y-109927380D01*
X135395238Y-109927380D01*
X135490476Y-109975000D01*
X135538095Y-110022619D01*
X135585714Y-110117857D01*
X135585714Y-110213095D01*
X135538095Y-110308333D01*
X135490476Y-110355952D01*
X135395238Y-110403571D01*
X135061904Y-110403571D01*
X136585714Y-110927380D02*
X136014285Y-110927380D01*
X136300000Y-110927380D02*
X136300000Y-109927380D01*
X136204761Y-110070238D01*
X136109523Y-110165476D01*
X136014285Y-110213095D01*
%TO.C,R12*%
X153202380Y-123542857D02*
X152726190Y-123876190D01*
X153202380Y-124114285D02*
X152202380Y-124114285D01*
X152202380Y-123733333D01*
X152250000Y-123638095D01*
X152297619Y-123590476D01*
X152392857Y-123542857D01*
X152535714Y-123542857D01*
X152630952Y-123590476D01*
X152678571Y-123638095D01*
X152726190Y-123733333D01*
X152726190Y-124114285D01*
X153202380Y-122590476D02*
X153202380Y-123161904D01*
X153202380Y-122876190D02*
X152202380Y-122876190D01*
X152345238Y-122971428D01*
X152440476Y-123066666D01*
X152488095Y-123161904D01*
X152297619Y-122209523D02*
X152250000Y-122161904D01*
X152202380Y-122066666D01*
X152202380Y-121828571D01*
X152250000Y-121733333D01*
X152297619Y-121685714D01*
X152392857Y-121638095D01*
X152488095Y-121638095D01*
X152630952Y-121685714D01*
X153202380Y-122257142D01*
X153202380Y-121638095D01*
%TO.C,C8*%
X148657142Y-121066666D02*
X148704761Y-121114285D01*
X148752380Y-121257142D01*
X148752380Y-121352380D01*
X148704761Y-121495238D01*
X148609523Y-121590476D01*
X148514285Y-121638095D01*
X148323809Y-121685714D01*
X148180952Y-121685714D01*
X147990476Y-121638095D01*
X147895238Y-121590476D01*
X147800000Y-121495238D01*
X147752380Y-121352380D01*
X147752380Y-121257142D01*
X147800000Y-121114285D01*
X147847619Y-121066666D01*
X148180952Y-120495238D02*
X148133333Y-120590476D01*
X148085714Y-120638095D01*
X147990476Y-120685714D01*
X147942857Y-120685714D01*
X147847619Y-120638095D01*
X147800000Y-120590476D01*
X147752380Y-120495238D01*
X147752380Y-120304761D01*
X147800000Y-120209523D01*
X147847619Y-120161904D01*
X147942857Y-120114285D01*
X147990476Y-120114285D01*
X148085714Y-120161904D01*
X148133333Y-120209523D01*
X148180952Y-120304761D01*
X148180952Y-120495238D01*
X148228571Y-120590476D01*
X148276190Y-120638095D01*
X148371428Y-120685714D01*
X148561904Y-120685714D01*
X148657142Y-120638095D01*
X148704761Y-120590476D01*
X148752380Y-120495238D01*
X148752380Y-120304761D01*
X148704761Y-120209523D01*
X148657142Y-120161904D01*
X148561904Y-120114285D01*
X148371428Y-120114285D01*
X148276190Y-120161904D01*
X148228571Y-120209523D01*
X148180952Y-120304761D01*
%TO.C,R3*%
X144783333Y-117502380D02*
X144450000Y-117026190D01*
X144211904Y-117502380D02*
X144211904Y-116502380D01*
X144592857Y-116502380D01*
X144688095Y-116550000D01*
X144735714Y-116597619D01*
X144783333Y-116692857D01*
X144783333Y-116835714D01*
X144735714Y-116930952D01*
X144688095Y-116978571D01*
X144592857Y-117026190D01*
X144211904Y-117026190D01*
X145116666Y-116502380D02*
X145735714Y-116502380D01*
X145402380Y-116883333D01*
X145545238Y-116883333D01*
X145640476Y-116930952D01*
X145688095Y-116978571D01*
X145735714Y-117073809D01*
X145735714Y-117311904D01*
X145688095Y-117407142D01*
X145640476Y-117454761D01*
X145545238Y-117502380D01*
X145259523Y-117502380D01*
X145164285Y-117454761D01*
X145116666Y-117407142D01*
%TO.C,X1*%
X167990476Y-139802380D02*
X168657142Y-140802380D01*
X168657142Y-139802380D02*
X167990476Y-140802380D01*
X169561904Y-140802380D02*
X168990476Y-140802380D01*
X169276190Y-140802380D02*
X169276190Y-139802380D01*
X169180952Y-139945238D01*
X169085714Y-140040476D01*
X168990476Y-140088095D01*
%TO.C,U2*%
X142813095Y-133152380D02*
X142813095Y-133961904D01*
X142860714Y-134057142D01*
X142908333Y-134104761D01*
X143003571Y-134152380D01*
X143194047Y-134152380D01*
X143289285Y-134104761D01*
X143336904Y-134057142D01*
X143384523Y-133961904D01*
X143384523Y-133152380D01*
X143813095Y-133247619D02*
X143860714Y-133200000D01*
X143955952Y-133152380D01*
X144194047Y-133152380D01*
X144289285Y-133200000D01*
X144336904Y-133247619D01*
X144384523Y-133342857D01*
X144384523Y-133438095D01*
X144336904Y-133580952D01*
X143765476Y-134152380D01*
X144384523Y-134152380D01*
%TO.C,U3*%
X146252380Y-126311904D02*
X147061904Y-126311904D01*
X147157142Y-126264285D01*
X147204761Y-126216666D01*
X147252380Y-126121428D01*
X147252380Y-125930952D01*
X147204761Y-125835714D01*
X147157142Y-125788095D01*
X147061904Y-125740476D01*
X146252380Y-125740476D01*
X146252380Y-125359523D02*
X146252380Y-124740476D01*
X146633333Y-125073809D01*
X146633333Y-124930952D01*
X146680952Y-124835714D01*
X146728571Y-124788095D01*
X146823809Y-124740476D01*
X147061904Y-124740476D01*
X147157142Y-124788095D01*
X147204761Y-124835714D01*
X147252380Y-124930952D01*
X147252380Y-125216666D01*
X147204761Y-125311904D01*
X147157142Y-125359523D01*
%TO.C,R1*%
X134733333Y-148952380D02*
X134400000Y-148476190D01*
X134161904Y-148952380D02*
X134161904Y-147952380D01*
X134542857Y-147952380D01*
X134638095Y-148000000D01*
X134685714Y-148047619D01*
X134733333Y-148142857D01*
X134733333Y-148285714D01*
X134685714Y-148380952D01*
X134638095Y-148428571D01*
X134542857Y-148476190D01*
X134161904Y-148476190D01*
X135685714Y-148952380D02*
X135114285Y-148952380D01*
X135400000Y-148952380D02*
X135400000Y-147952380D01*
X135304761Y-148095238D01*
X135209523Y-148190476D01*
X135114285Y-148238095D01*
%TO.C,R4*%
X140308333Y-107577380D02*
X139975000Y-107101190D01*
X139736904Y-107577380D02*
X139736904Y-106577380D01*
X140117857Y-106577380D01*
X140213095Y-106625000D01*
X140260714Y-106672619D01*
X140308333Y-106767857D01*
X140308333Y-106910714D01*
X140260714Y-107005952D01*
X140213095Y-107053571D01*
X140117857Y-107101190D01*
X139736904Y-107101190D01*
X141165476Y-106910714D02*
X141165476Y-107577380D01*
X140927380Y-106529761D02*
X140689285Y-107244047D01*
X141308333Y-107244047D01*
%TO.C,C4*%
X148862142Y-131416666D02*
X148909761Y-131464285D01*
X148957380Y-131607142D01*
X148957380Y-131702380D01*
X148909761Y-131845238D01*
X148814523Y-131940476D01*
X148719285Y-131988095D01*
X148528809Y-132035714D01*
X148385952Y-132035714D01*
X148195476Y-131988095D01*
X148100238Y-131940476D01*
X148005000Y-131845238D01*
X147957380Y-131702380D01*
X147957380Y-131607142D01*
X148005000Y-131464285D01*
X148052619Y-131416666D01*
X148290714Y-130559523D02*
X148957380Y-130559523D01*
X147909761Y-130797619D02*
X148624047Y-131035714D01*
X148624047Y-130416666D01*
%TO.C,C10*%
X155257142Y-133457142D02*
X155209523Y-133504761D01*
X155066666Y-133552380D01*
X154971428Y-133552380D01*
X154828571Y-133504761D01*
X154733333Y-133409523D01*
X154685714Y-133314285D01*
X154638095Y-133123809D01*
X154638095Y-132980952D01*
X154685714Y-132790476D01*
X154733333Y-132695238D01*
X154828571Y-132600000D01*
X154971428Y-132552380D01*
X155066666Y-132552380D01*
X155209523Y-132600000D01*
X155257142Y-132647619D01*
X156209523Y-133552380D02*
X155638095Y-133552380D01*
X155923809Y-133552380D02*
X155923809Y-132552380D01*
X155828571Y-132695238D01*
X155733333Y-132790476D01*
X155638095Y-132838095D01*
X156828571Y-132552380D02*
X156923809Y-132552380D01*
X157019047Y-132600000D01*
X157066666Y-132647619D01*
X157114285Y-132742857D01*
X157161904Y-132933333D01*
X157161904Y-133171428D01*
X157114285Y-133361904D01*
X157066666Y-133457142D01*
X157019047Y-133504761D01*
X156923809Y-133552380D01*
X156828571Y-133552380D01*
X156733333Y-133504761D01*
X156685714Y-133457142D01*
X156638095Y-133361904D01*
X156590476Y-133171428D01*
X156590476Y-132933333D01*
X156638095Y-132742857D01*
X156685714Y-132647619D01*
X156733333Y-132600000D01*
X156828571Y-132552380D01*
%TO.C,R2*%
X144783333Y-115652380D02*
X144450000Y-115176190D01*
X144211904Y-115652380D02*
X144211904Y-114652380D01*
X144592857Y-114652380D01*
X144688095Y-114700000D01*
X144735714Y-114747619D01*
X144783333Y-114842857D01*
X144783333Y-114985714D01*
X144735714Y-115080952D01*
X144688095Y-115128571D01*
X144592857Y-115176190D01*
X144211904Y-115176190D01*
X145164285Y-114747619D02*
X145211904Y-114700000D01*
X145307142Y-114652380D01*
X145545238Y-114652380D01*
X145640476Y-114700000D01*
X145688095Y-114747619D01*
X145735714Y-114842857D01*
X145735714Y-114938095D01*
X145688095Y-115080952D01*
X145116666Y-115652380D01*
X145735714Y-115652380D01*
D14*
%TO.C,C6*%
X138761252Y-127065000D02*
X138238748Y-127065000D01*
X138761252Y-128535000D02*
X138238748Y-128535000D01*
%TO.C,R9*%
X156227064Y-119265000D02*
X155772936Y-119265000D01*
X156227064Y-120735000D02*
X155772936Y-120735000D01*
%TO.C,J1*%
X157500000Y-116230000D02*
X157500000Y-117355000D01*
X157500000Y-116230000D02*
X158900000Y-116230000D01*
X157500000Y-109280000D02*
X157500000Y-110630000D01*
X151300000Y-117355000D02*
X157500000Y-117355000D01*
X157500000Y-105255000D02*
X157500000Y-107630000D01*
X157500000Y-112280000D02*
X157500000Y-114680000D01*
X151300000Y-115780000D02*
X151300000Y-105255000D01*
X156900000Y-103255000D02*
X151900000Y-103255000D01*
X157500000Y-105255000D02*
X156900000Y-105255000D01*
X151900000Y-105255000D02*
X151300000Y-105255000D01*
X151900000Y-105255000D02*
X151900000Y-103255000D01*
X157500000Y-114680000D02*
X158900000Y-114680000D01*
X156900000Y-105255000D02*
X156900000Y-103255000D01*
%TO.C,SW2*%
X160670000Y-137930000D02*
X160670000Y-137900000D01*
X160670000Y-131470000D02*
X167130000Y-131470000D01*
X167130000Y-131470000D02*
X167130000Y-131500000D01*
X160670000Y-133400000D02*
X160670000Y-136000000D01*
X160670000Y-131500000D02*
X160670000Y-131470000D01*
X160670000Y-137930000D02*
X167130000Y-137930000D01*
X167130000Y-133400000D02*
X167130000Y-136000000D01*
X167130000Y-137930000D02*
X167130000Y-137900000D01*
%TO.C,D1*%
X133940000Y-142685000D02*
X135860000Y-142685000D01*
X133940000Y-140000000D02*
X133940000Y-142685000D01*
X135860000Y-142685000D02*
X135860000Y-140000000D01*
%TO.C,C7*%
X148138748Y-109935000D02*
X148661252Y-109935000D01*
X148138748Y-108465000D02*
X148661252Y-108465000D01*
%TO.C,U1*%
X160295000Y-109980000D02*
X172295000Y-109980000D01*
X160295000Y-120980000D02*
X172295000Y-120980000D01*
X172295000Y-120980000D02*
X172295000Y-102980000D01*
X172295000Y-102980000D02*
X160295000Y-102980000D01*
X160295000Y-102980000D02*
X160295000Y-120980000D01*
%TO.C,C9*%
X148138748Y-111835000D02*
X148661252Y-111835000D01*
X148138748Y-110365000D02*
X148661252Y-110365000D01*
%TO.C,C5*%
X141888748Y-121210000D02*
X142411252Y-121210000D01*
X141888748Y-119740000D02*
X142411252Y-119740000D01*
%TO.C,R13*%
X163927064Y-151465000D02*
X163472936Y-151465000D01*
X163927064Y-152935000D02*
X163472936Y-152935000D01*
%TO.C,C11*%
X167765000Y-147861252D02*
X167765000Y-147338748D01*
X169235000Y-147861252D02*
X169235000Y-147338748D01*
%TO.C,U4*%
X149340000Y-128400000D02*
X149340000Y-130350000D01*
X149340000Y-128400000D02*
X149340000Y-126450000D01*
X154460000Y-128400000D02*
X154460000Y-124950000D01*
X154460000Y-128400000D02*
X154460000Y-130350000D01*
%TO.C,D2*%
X138585000Y-109710000D02*
X138585000Y-107790000D01*
X138585000Y-107790000D02*
X135900000Y-107790000D01*
X135900000Y-109710000D02*
X138585000Y-109710000D01*
%TO.C,SW1*%
X131845000Y-133200000D02*
X130555000Y-133200000D01*
X130345000Y-133400000D02*
X130345000Y-134300000D01*
X130555000Y-134500000D02*
X130345000Y-134300000D01*
X130555000Y-134500000D02*
X131845000Y-134500000D01*
X134695000Y-136000000D02*
X134695000Y-136200000D01*
X131845000Y-131750000D02*
X131845000Y-137450000D01*
X132855000Y-138050000D02*
X133645000Y-138050000D01*
X130555000Y-133200000D02*
X130345000Y-133400000D01*
X133645000Y-131150000D02*
X132855000Y-131150000D01*
X134695000Y-133000000D02*
X134695000Y-134700000D01*
%TO.C,R6*%
X149435000Y-114427064D02*
X149435000Y-113972936D01*
X147965000Y-114427064D02*
X147965000Y-113972936D01*
%TO.C,R8*%
X152827064Y-120735000D02*
X152372936Y-120735000D01*
X152827064Y-119265000D02*
X152372936Y-119265000D01*
%TO.C,R7*%
X145910000Y-119852064D02*
X145910000Y-119397936D01*
X144440000Y-119852064D02*
X144440000Y-119397936D01*
%TO.C,R5*%
X147535000Y-113972936D02*
X147535000Y-114427064D01*
X146065000Y-113972936D02*
X146065000Y-114427064D01*
%TO.C,RG1*%
X154965000Y-127572936D02*
X154965000Y-128027064D01*
X156435000Y-127572936D02*
X156435000Y-128027064D01*
%TO.C,C2*%
X139265000Y-131038748D02*
X139265000Y-131561252D01*
X140735000Y-131038748D02*
X140735000Y-131561252D01*
%TO.C,R11*%
X156985000Y-123127064D02*
X156985000Y-122672936D01*
X155515000Y-123127064D02*
X155515000Y-122672936D01*
D11*
%TO.C,U5*%
X157875000Y-142075000D02*
X157875000Y-142400000D01*
X165125000Y-142075000D02*
X165125000Y-142400000D01*
X157875000Y-149325000D02*
X158200000Y-149325000D01*
X165125000Y-142075000D02*
X164800000Y-142075000D01*
X165125000Y-149325000D02*
X164800000Y-149325000D01*
X165125000Y-149100000D02*
X166550000Y-149100000D01*
X165125000Y-149325000D02*
X165125000Y-149100000D01*
X157875000Y-142075000D02*
X158200000Y-142075000D01*
X157875000Y-149325000D02*
X157875000Y-149000000D01*
D14*
%TO.C,C1*%
X160935000Y-122638748D02*
X160935000Y-123161252D01*
X159465000Y-122638748D02*
X159465000Y-123161252D01*
%TO.C,C3*%
X142385000Y-112761252D02*
X142385000Y-112238748D01*
X140915000Y-112761252D02*
X140915000Y-112238748D01*
%TO.C,BT1*%
X135180000Y-123195000D02*
X135180000Y-125855000D01*
X137780000Y-125855000D02*
X135180000Y-125855000D01*
X137780000Y-123195000D02*
X135180000Y-123195000D01*
X140380000Y-124525000D02*
X140380000Y-125855000D01*
X140380000Y-125855000D02*
X139050000Y-125855000D01*
X137780000Y-123195000D02*
X137780000Y-125855000D01*
%TO.C,R10*%
X150727064Y-122865000D02*
X150272936Y-122865000D01*
X150727064Y-124335000D02*
X150272936Y-124335000D01*
%TO.C,USB1*%
X137350000Y-111450000D02*
X135350000Y-111450000D01*
X137350000Y-120850000D02*
X135350000Y-120850000D01*
X133450000Y-111450000D02*
X131550000Y-111450000D01*
X131550000Y-111450000D02*
X131550000Y-120850000D01*
X133450000Y-120850000D02*
X131550000Y-120850000D01*
%TO.C,R12*%
X154985000Y-123114564D02*
X154985000Y-122660436D01*
X153515000Y-123114564D02*
X153515000Y-122660436D01*
%TO.C,C8*%
X150735000Y-120638748D02*
X150735000Y-121161252D01*
X149265000Y-120638748D02*
X149265000Y-121161252D01*
%TO.C,R3*%
X142172936Y-116315000D02*
X142627064Y-116315000D01*
X142172936Y-117785000D02*
X142627064Y-117785000D01*
%TO.C,X1*%
X167500000Y-141900000D02*
X167500000Y-141100000D01*
X169900000Y-143700000D02*
X169900000Y-144700000D01*
X169500000Y-141100000D02*
X169900000Y-141100000D01*
X169500000Y-144900000D02*
X169900000Y-144900000D01*
X167500000Y-141100000D02*
X169500000Y-141100000D01*
X167500000Y-144700000D02*
X167500000Y-143700000D01*
X169900000Y-143700000D02*
X170300000Y-143700000D01*
X169500000Y-144700000D02*
X167500000Y-144700000D01*
X167500000Y-144900000D02*
X169500000Y-144900000D01*
X169900000Y-141100000D02*
X169900000Y-141900000D01*
X169500000Y-144700000D02*
X169900000Y-144700000D01*
%TO.C,U2*%
X143625000Y-132847500D02*
X142825000Y-132847500D01*
X143625000Y-132847500D02*
X144425000Y-132847500D01*
X143625000Y-129727500D02*
X141825000Y-129727500D01*
X143625000Y-129727500D02*
X144425000Y-129727500D01*
%TO.C,U3*%
X140840000Y-125300000D02*
X140840000Y-127250000D01*
X140840000Y-125300000D02*
X140840000Y-123350000D01*
X145960000Y-125300000D02*
X145960000Y-121850000D01*
X145960000Y-125300000D02*
X145960000Y-127250000D01*
%TO.C,R1*%
X135635000Y-145672936D02*
X135635000Y-146127064D01*
X134165000Y-145672936D02*
X134165000Y-146127064D01*
%TO.C,R4*%
X140347936Y-108040000D02*
X140802064Y-108040000D01*
X140347936Y-109510000D02*
X140802064Y-109510000D01*
%TO.C,C4*%
X147560000Y-130988748D02*
X147560000Y-131511252D01*
X146090000Y-130988748D02*
X146090000Y-131511252D01*
%TO.C,C10*%
X152438748Y-132365000D02*
X152961252Y-132365000D01*
X152438748Y-133835000D02*
X152961252Y-133835000D01*
%TO.C,R2*%
X142172936Y-114415000D02*
X142627064Y-114415000D01*
X142172936Y-115885000D02*
X142627064Y-115885000D01*
%TD*%
M02*
